<svg width="44" height="44" viewBox="0 0 44 44" fill="none" xmlns="http://www.w3.org/2000/svg">
<path fill-rule="evenodd" clip-rule="evenodd" d="M22 43.7065L43.7065 22L22 0.293457L0.293467 22L22 43.7065ZM22 3.91121L40.0888 22L22 40.0888L3.91122 22L22 3.91121Z" fill="black"/>
<path fill-rule="evenodd" clip-rule="evenodd" d="M27.8837 22.4057C27.8837 19.2975 25.364 16.7778 22.2558 16.7778C19.1476 16.7778 16.6279 19.2975 16.6279 22.4057C16.6279 25.5139 19.1476 28.0336 22.2558 28.0336C25.364 28.0336 27.8837 25.5139 27.8837 22.4057ZM18.1628 22.4057C18.1628 20.1452 19.9953 18.3127 22.2558 18.3127C24.5164 18.3127 26.3489 20.1452 26.3489 22.4057C26.3489 24.6662 24.5164 26.4987 22.2558 26.4987C19.9953 26.4987 18.1628 24.6662 18.1628 22.4057Z" fill="black"/>
<path d="M21.2325 8.84753V17.9642H22.7674V8.84753H21.2325Z" fill="black"/>
<path d="M21.4884 26.4523V35.569H23.0233V26.4523H21.4884Z" fill="black"/>
<path d="M21.9957 9.67036L33.3247 14.1201L33.8859 12.6915L22.0042 8.02466L9.7605 12.6886L10.3069 14.123L21.9957 9.67036Z" fill="black"/>
<path d="M33.7794 29.7717L34.3406 31.2003L22.4589 35.8672L10.2152 31.2032L10.7616 29.7689L22.4505 34.2215L33.7794 29.7717Z" fill="black"/>
<circle cx="22.2558" cy="22.2558" r="4.34884" fill="#FCD619"/>
</svg>
