<svg width="461" height="306" viewBox="0 0 461 306" fill="none" xmlns="http://www.w3.org/2000/svg">
<path fill-rule="evenodd" clip-rule="evenodd" d="M266.052 226.953C248.16 227.059 95 226.953 95 226.953C97.6333 211.903 108.298 165.762 115.131 165.462C117.065 165.375 130.024 164.466 145.611 164.275C185.073 163.783 250.634 163.585 252.898 166.959C255.04 170.149 268.567 196.578 271.458 213.277C272.826 221.19 271.807 226.921 266.052 226.953" fill="#EF9A03"/>
<path fill-rule="evenodd" clip-rule="evenodd" d="M178.705 225.644C178.146 226.382 177.396 226.799 176.414 226.84C166.987 227.2 87 226.84 87 226.84C90.6136 210.845 95.5652 186.091 102.316 173.315C104.996 168.241 107.962 165.057 111.242 165.057C122.777 165.057 161.598 160.926 165.597 168.998C169.684 177.238 184.404 218.102 178.705 225.644" fill="#FFAF22"/>
<path fill-rule="evenodd" clip-rule="evenodd" d="M149.565 228C123.277 228 88 227.839 88 227.839C91.5858 211.751 96.4993 186.851 103.198 174C128.445 189.368 163.574 210.203 179 226.637C178.6 227.172 178.101 227.54 177.487 227.718C175.778 227.776 174.087 227.847 172.443 227.922C167.377 227.978 159.055 228 149.565 228" fill="#F3A723"/>
<path fill-rule="evenodd" clip-rule="evenodd" d="M373.053 226.953C355.159 227.059 202 226.953 202 226.953C204.632 211.903 215.298 165.762 222.131 165.462C224.066 165.375 237.025 164.466 252.611 164.275C292.074 163.783 357.635 163.585 359.899 166.959C362.041 170.149 375.568 196.578 378.459 213.277C379.825 221.19 378.808 226.921 373.053 226.953" fill="#EF9A03"/>
<path fill-rule="evenodd" clip-rule="evenodd" d="M194.026 227C192.406 226.914 190.721 226.861 189 226.836C190.074 222.623 201.193 179.183 203.67 174.138C206.057 169.275 210.924 166.237 217 165C214.419 165.902 212.046 168.83 209.864 173.051C203.209 185.923 198.323 210.835 194.755 226.993C194.511 226.995 194.267 226.998 194.026 227" fill="#C9840B"/>
<path fill-rule="evenodd" clip-rule="evenodd" d="M286.705 225.644C286.146 226.382 285.394 226.799 284.414 226.84C274.987 227.2 195 226.84 195 226.84C198.613 210.845 203.564 186.091 210.316 173.315C212.996 168.241 215.962 165.057 219.242 165.057C230.777 165.057 269.598 160.926 273.597 168.998C277.684 177.238 292.404 218.102 286.705 225.644" fill="#FFAF22"/>
<path fill-rule="evenodd" clip-rule="evenodd" d="M270.518 228C259.168 227.678 245.335 227.561 231.373 227.561C218.772 227.561 206.066 227.656 195 227.783C198.584 211.673 203.491 186.835 210.176 174C235.43 189.386 270.569 210.245 286 226.699C285.699 227.098 285.345 227.405 284.928 227.61C284.904 227.61 284.877 227.61 284.851 227.61C280.067 227.61 275.103 227.788 270.518 228" fill="#F3A723"/>
<path fill-rule="evenodd" clip-rule="evenodd" d="M205.052 290.953C187.16 291.059 34 290.953 34 290.953C36.6335 275.905 47.2983 229.761 54.1316 229.463C56.0667 229.376 69.0252 228.468 84.6104 228.276C124.073 227.782 189.634 227.586 191.898 230.96C194.04 234.15 207.567 260.58 210.458 277.279C211.826 285.192 210.807 290.921 205.052 290.953" fill="#EF9A03"/>
<path fill-rule="evenodd" clip-rule="evenodd" d="M118.705 289.643C118.146 290.384 117.396 290.8 116.414 290.839C106.987 291.202 27 290.839 27 290.839C30.6137 274.846 35.5655 250.092 42.316 237.316C44.9965 232.241 47.9631 229.057 51.2428 229.057C62.7786 229.057 101.599 224.926 105.597 232.996C109.684 241.238 124.404 282.103 118.705 289.643" fill="#FFAF22"/>
<path fill-rule="evenodd" clip-rule="evenodd" d="M88.5661 291C62.2763 291 27 290.837 27 290.837C30.5859 274.751 35.4996 249.851 42.1982 237C67.4448 252.368 102.574 273.203 118 289.635C117.445 290.379 116.701 290.798 115.726 290.837C115.351 290.854 114.858 290.866 114.265 290.878C109.943 290.968 100.121 291 88.5661 291" fill="#F3A723"/>
<path fill-rule="evenodd" clip-rule="evenodd" d="M310.054 289.954C292.16 290.058 139 289.954 139 289.954C141.632 274.904 152.298 228.762 159.131 228.462C161.066 228.375 174.025 227.466 189.612 227.275C229.074 226.783 294.636 226.585 296.9 229.959C299.042 233.149 312.567 259.578 315.458 276.278C316.826 284.191 315.807 289.922 310.054 289.954" fill="#EF9A03"/>
<path fill-rule="evenodd" clip-rule="evenodd" d="M126 290C126 290 138.113 242.404 140.71 237.114C143.09 232.263 147.942 229.233 154 228C151.427 228.899 149.061 231.82 146.886 236.029C140.233 248.9 135.355 273.836 131.795 289.949C131.795 289.949 133.278 289.954 135.863 289.966L126 290" fill="#C9840B"/>
<path fill-rule="evenodd" clip-rule="evenodd" d="M223.706 288.642C223.147 289.382 222.395 289.799 221.415 289.84C211.988 290.2 132 289.84 132 289.84C135.613 273.845 140.565 249.091 147.317 236.315C149.996 231.241 152.962 228.057 156.243 228.057C167.778 228.057 206.599 223.926 210.598 231.998C214.683 240.238 229.403 281.102 223.706 288.642" fill="#FFAF22"/>
<path fill-rule="evenodd" clip-rule="evenodd" d="M193.565 290C172.685 290 146.139 289.898 136.097 289.856C133.493 289.844 132 289.839 132 289.839C135.585 273.751 140.499 248.851 147.199 236C172.445 251.368 207.574 272.203 223 288.635C222.445 289.379 221.698 289.798 220.726 289.839C220.348 289.854 219.858 289.866 219.265 289.878C214.943 289.968 205.123 290 193.565 290" fill="#F3A723"/>
<path fill-rule="evenodd" clip-rule="evenodd" d="M328.052 163.953C310.16 164.059 157 163.953 157 163.953C159.635 148.903 170.3 102.762 177.134 102.463C179.068 102.376 192.027 101.468 207.611 101.275C247.073 100.783 312.634 100.586 314.898 103.96C317.04 107.15 330.567 133.578 333.458 150.277C334.826 158.19 333.807 163.921 328.052 163.953" fill="#EF9A03"/>
<path fill-rule="evenodd" clip-rule="evenodd" d="M241.705 163.642C241.146 164.382 240.396 164.799 239.414 164.84C229.987 165.2 150 164.84 150 164.84C153.615 148.845 158.567 124.092 165.316 111.317C167.996 106.243 170.964 103.057 174.242 103.057C185.78 103.057 224.598 98.9264 228.597 106.998C232.684 115.238 247.404 156.102 241.705 163.642" fill="#FFAF22"/>
<path fill-rule="evenodd" clip-rule="evenodd" d="M211.565 164C188.615 164 158.814 163.876 151.614 163.847C150.57 163.842 150 163.84 150 163.84C150.327 162.379 150.664 160.848 151.011 159.258C151.479 160.828 151.787 161.842 151.876 162.153C152.126 163.023 153.27 163.375 154.785 163.375C158.162 163.375 163.378 161.625 164.622 159.956C165.589 158.655 161.996 142.988 158.419 128.394C158.877 126.8 159.347 125.237 159.827 123.713C165.904 136.483 172.34 147.056 174.812 147.056C174.967 147.056 175.108 147.015 175.232 146.928C175.794 146.534 176.39 146.15 177.001 145.778C177.837 146.857 178.647 147.868 179.285 148.583C178.872 151.414 176.582 155.717 175.278 160.111C174.638 162.262 174.938 163.098 175.789 163.098C177.28 163.098 180.463 160.536 183.258 157.982C187.65 153.971 190.634 151.935 191.71 150.158C192.789 148.384 185.238 143.671 186.578 140.406C187.521 138.109 180.472 126.768 173.314 115C197.499 129.678 227.169 147.927 241 162.636C240.445 163.38 239.701 163.798 238.726 163.84C238.351 163.854 237.858 163.866 237.265 163.878C236.642 163.893 235.905 163.903 235.064 163.915C230.075 163.978 221.455 164 211.565 164" fill="#F3A723"/>
<path fill-rule="evenodd" clip-rule="evenodd" d="M334 151C311.363 128.686 262.637 117.539 226.649 105.391C226.448 105.247 226.232 105.109 226 104.975L253.56 104.634H253.59C254.901 104.634 255.964 103.587 255.966 102.295V102.027C259.005 102.011 262.015 102.002 264.969 102C265.145 102.001 265.324 102.003 265.5 102.004C291.759 102.204 314.075 102.96 315.382 104.893C317.53 108.067 331.1 134.377 334 151" fill="#DF9106"/>
<path fill-rule="evenodd" clip-rule="evenodd" d="M227 105C226.665 104.674 226.331 104.344 226 104.017L226.462 104C226.655 104.32 226.834 104.653 227 105" fill="#EEA423"/>
<path fill-rule="evenodd" clip-rule="evenodd" d="M409.052 289.954C391.16 290.058 238 289.954 238 289.954C240.632 274.904 251.298 228.762 258.131 228.462C260.066 228.375 273.025 227.466 288.609 227.275C328.072 226.783 393.634 226.585 395.897 229.959C398.039 233.149 411.567 259.578 414.458 276.278C415.826 284.191 414.807 289.922 409.052 289.954" fill="#EF9A03"/>
<path fill-rule="evenodd" clip-rule="evenodd" d="M227.843 290C226.899 290 225.944 290 225 290C225.209 289.176 237.136 242.357 239.709 237.116C242.089 232.264 246.942 229.234 253 228C250.427 228.9 248.059 231.82 245.883 236.031C239.232 248.903 234.353 273.844 230.791 289.959C230.791 289.959 232.276 289.963 234.861 289.976L227.843 290" fill="#C9840B"/>
<path fill-rule="evenodd" clip-rule="evenodd" d="M321.705 288.642C321.146 289.382 320.396 289.799 319.414 289.84C309.987 290.2 230 289.84 230 289.84C233.615 273.845 238.567 249.091 245.316 236.315C247.996 231.241 250.964 228.057 254.242 228.057C265.78 228.057 304.598 223.926 308.597 231.998C312.684 240.238 327.404 281.102 321.705 288.642" fill="#FFAF22"/>
<path fill-rule="evenodd" clip-rule="evenodd" d="M292.568 290C271.687 290 245.142 289.898 235.099 289.856C232.496 289.844 231 289.839 231 289.839C234.588 273.751 239.501 248.851 246.199 236C271.445 251.368 306.574 272.203 322 288.635C321.445 289.379 320.701 289.798 319.726 289.839C319.351 289.854 318.861 289.866 318.267 289.878C313.945 289.968 304.123 290 292.568 290" fill="#F3A723"/>
<path fill-rule="evenodd" clip-rule="evenodd" d="M167.338 107C166.478 105.249 165.689 103.568 165 102.004C165.25 102.002 165.507 102.001 165.761 102C166.471 103.309 167.223 104.659 168 106.037C167.778 106.343 167.556 106.664 167.338 107" fill="#D6C7B1"/>
<path fill-rule="evenodd" clip-rule="evenodd" d="M173 116C172.11 115.452 171.226 114.91 170.352 114.373C169.173 112.187 168.036 110.023 167 107.956C167.221 107.623 167.446 107.304 167.672 107C169.363 109.927 171.186 112.978 173 116" fill="#DC981F"/>
<path fill-rule="evenodd" clip-rule="evenodd" d="M176.15 164C175.308 164 175.011 163.16 175.644 160.998C176.933 156.582 179.199 152.259 179.606 149.413C179.674 149.489 179.738 149.564 179.803 149.633L184.212 151.721L186.276 145.319L184.238 142.361C185.204 141.592 185.816 140.837 185.816 140.068C185.816 139.804 185.744 139.538 185.59 139.267C184.794 137.882 177.283 125.664 171 114C171.892 114.55 172.793 115.104 173.702 115.665C180.781 127.491 187.753 138.888 186.82 141.196C185.494 144.477 192.962 149.213 191.895 150.996C190.831 152.781 187.88 154.828 183.536 158.858C180.772 161.426 177.624 164 176.15 164" fill="#D2911F"/>
<path fill-rule="evenodd" clip-rule="evenodd" d="M190.764 33.835C188.721 60.8777 183.711 64.3986 181.733 68.5751C179.759 72.7519 165.603 94.848 166.009 95.6758C166.414 96.5033 171.151 102.932 173.055 101.885C174.956 100.838 187.736 80.4494 191.353 72.7947C194.973 65.1404 200.948 36.4027 200.948 36.4027C200.948 36.4027 201.916 23.7772 195.488 25.0967C190.63 26.0934 190.764 33.835 190.764 33.835" fill="#0069AB"/>
<path fill-rule="evenodd" clip-rule="evenodd" d="M173.257 103C173.175 103 173.089 102.991 173 102.975C173.143 102.978 173.289 102.98 173.434 102.983C173.437 102.983 173.442 102.984 173.446 102.984C173.385 102.995 173.323 103 173.257 103M189.493 78.8342C185.379 78.4852 181.354 78.199 177.524 78.0041C179.867 74.1548 181.84 70.8521 182.494 69.4793C184.489 65.2908 189.545 61.7598 191.607 34.6395C191.607 34.6395 192.554 27.385 196 26C191.158 37.0889 192.776 55.2763 194.592 67.0312C193.746 69.83 192.927 72.1875 192.202 73.711C191.553 75.0755 190.613 76.8435 189.493 78.8342" fill="#045C98"/>
<path fill-rule="evenodd" clip-rule="evenodd" d="M179.609 148.945C177.519 146.649 173 140.233 173 140.233L179.296 135L186 144.7L183.962 151L179.609 148.945" fill="#FAAAA2"/>
<path fill-rule="evenodd" clip-rule="evenodd" d="M178.588 148.79C177.791 149.184 178.595 149.592 179.181 150.809C180.521 153.595 172.195 160.629 171.105 161.891C170.541 162.54 172.288 166.821 175.522 164.108C178.319 161.76 187.303 154.276 190.345 151.689C190.981 151.148 191.183 150.242 190.822 149.486C189.536 146.787 186.53 143.441 185.613 144.079C183.973 144.741 181.913 147.145 178.588 148.79" fill="#211B2D"/>
<path fill-rule="evenodd" clip-rule="evenodd" d="M216 81.0097C187.386 77.5448 151.634 74.0233 146.833 81.0885C140.733 90.0656 169.975 150.14 174.696 146.871C179.419 143.603 186.498 141.178 184.895 138.475C183.292 135.775 155.065 91.4009 162.274 91.7267C169.483 92.0526 210.125 99.4873 212.9 97.9037C215.677 96.3202 216 81.0097 216 81.0097" fill="#3B3B4D"/>
<path fill-rule="evenodd" clip-rule="evenodd" d="M174.302 147C170.938 147 160.329 127.956 153.099 110.172C152.1 106.265 151.436 103.621 151.377 103.143C151.279 102.351 156.612 101.998 164.055 101.949C170.179 115.139 183.834 136.621 184.936 138.475C185.093 138.744 185.166 139.007 185.166 139.268C185.166 140.03 184.542 140.777 183.555 141.539C181.847 142.851 179.054 144.203 176.514 145.728C175.897 146.098 175.294 146.48 174.726 146.872C174.601 146.959 174.459 147 174.302 147M146.348 88.702C146.12 87.2761 145.998 85.9853 146 84.8609C146 83.2186 146.262 81.929 146.833 81.0887C148.871 78.092 156.48 77 166.757 77C175.857 77 187.048 77.857 198.307 79.0064C199.644 79.6429 201.54 80.403 204 81.0633C202.435 81.2134 201.109 81.4861 200.215 81.9283C196.215 83.9076 162.193 84.8036 146.348 88.702" fill="#323241"/>
<path fill-rule="evenodd" clip-rule="evenodd" d="M228.19 70L235.871 70.0458C237.056 70.053 238.01 71.4564 238 73.1786L237.973 77.9585C237.973 77.9815 237.954 78.0002 237.932 78L236.503 77.9915C236.478 77.9915 236.461 77.9727 236.461 77.9495L236.481 74.5814C236.488 73.2928 235.776 72.2433 234.891 72.2381L229.146 72.2038C228.261 72.1986 227.536 73.2396 227.529 74.5279L227.512 77.8962C227.509 77.9192 227.492 77.938 227.47 77.9377L226.039 77.9292C226.017 77.9292 226 77.9102 226 77.8872L226.027 73.1073C226.037 71.3851 227.005 69.993 228.19 70" fill="#211B2D"/>
<path fill-rule="evenodd" clip-rule="evenodd" d="M235.71 70C236.987 70.007 238.01 71.4195 238 73.1512L237.971 77.9582C237.968 77.9814 237.95 78 237.926 78L236.389 77.9917C236.363 77.9914 236.344 77.9726 236.344 77.9494L236.365 74.5616C236.373 73.2661 235.607 72.2105 234.655 72.2047L234.002 70.0624C233.994 70.0355 234.015 70.0086 234.044 70.0086L235.71 70" fill="#211B2D"/>
<path fill-rule="evenodd" clip-rule="evenodd" d="M256 79.88L255.995 101.191C255.993 102.479 254.933 103.523 253.625 103.522H253.596L214.94 104C210.578 103.999 210.608 100.968 210.608 99.7028L210 79.5622C210 78.2956 211.555 74.9664 215.042 75.0149L249.44 75.0019L250.731 75C253.572 75.0007 256 77.0167 256 79.88" fill="#66383D"/>
<path fill-rule="evenodd" clip-rule="evenodd" d="M207 105C207.133 104.686 207.268 104.361 207.406 104.026C208.83 104.274 210.138 104.391 211.342 104.391C212.645 104.391 213.828 104.254 214.894 104C215.108 104.019 215.337 104.029 215.579 104.029L216 104.023C213.773 104.672 210.626 104.959 207 105" fill="#D3911E"/>
<path fill-rule="evenodd" clip-rule="evenodd" d="M173.001 102.006C172.977 102.003 172.951 101.999 172.927 101.995C172.93 101.995 172.932 101.994 172.935 101.994C172.98 101.995 173.028 101.995 173.073 101.996C173.049 101.999 173.025 102.003 173.001 102.006" fill="#CCBEAA"/>
<path fill-rule="evenodd" clip-rule="evenodd" d="M195.561 105C190.626 104.591 185.581 103.956 181.215 103.321C178.006 102.854 175.165 102.388 173 102.011C173.022 102.007 173.044 102.003 173.065 102C180.81 102.165 189.3 102.581 196 103.123C195.77 103.97 195.617 104.614 195.561 105" fill="#D3911E"/>
<path fill-rule="evenodd" clip-rule="evenodd" d="M173.003 102.001C172.997 102 172.992 102 172.989 101.999C172.995 101.999 173.003 101.999 173.011 102C173.008 102 173.005 102 173.003 102.001" fill="#054D7E"/>
<path fill-rule="evenodd" clip-rule="evenodd" d="M214.626 105C214.405 105 214.196 104.991 214 104.973C215.596 104.584 216.915 103.9 218 103C217.599 103.888 216.544 104.538 215.011 104.995L214.626 105" fill="#553034"/>
<path fill-rule="evenodd" clip-rule="evenodd" d="M157.476 166.54C156.226 163.617 154 155.896 154 155.896L161.76 153L165 164.625L160.976 170L157.476 166.54" fill="#FAAAA2"/>
<path fill-rule="evenodd" clip-rule="evenodd" d="M156.672 165.156C155.789 165.265 156.415 165.92 156.569 167.272C156.926 170.368 146.774 174.287 145.332 175.121C144.588 175.554 144.84 180.207 148.777 178.701C152.183 177.4 163.104 173.272 166.82 171.825C167.597 171.524 168.082 170.728 167.988 169.889C167.655 166.895 165.911 162.714 164.836 163.015C163.075 163.098 160.345 164.699 156.672 165.156" fill="#211B2D"/>
<path fill-rule="evenodd" clip-rule="evenodd" d="M223.48 82.2938C224.271 87.2966 224.798 96.3677 220.073 101.278C217.501 103.953 213.369 105.393 206.875 104.267C196.671 102.499 151.816 101.108 152.1 103.415C152.383 105.721 166.491 158.143 164.678 160.571C162.862 162.999 152.658 165.59 151.846 162.774C151.033 159.961 132.429 100.155 139.67 92.0819C145.774 85.2797 195.856 84.477 200.754 82.0242C205.652 79.5717 223.48 82.2938 223.48 82.2938" fill="#3B3B4D"/>
<path fill-rule="evenodd" clip-rule="evenodd" d="M199.19 32L207 29.7216C206.797 26.5178 205.737 20.7223 204.983 17.9018C204.157 14.8073 202.108 13 202.108 13L200.671 16.1788L197.306 17.5936C197.306 17.5936 197.603 17.6292 197.825 18.543C198.192 20.0464 198.543 24.6602 196.282 27.0027C194.876 28.4612 199.19 32 199.19 32" fill="#FFAFA6"/>
<path fill-rule="evenodd" clip-rule="evenodd" d="M198.13 23C198.174 22.5891 198.207 22.1888 198.228 21.789C198.212 22.1832 198.181 22.5901 198.13 23M198 17.2906C198.293 16.2041 199.389 16 200.171 16C200.642 16 201 16.0742 201 16.0742L198 17.2906" fill="#D8C9B8"/>
<path fill-rule="evenodd" clip-rule="evenodd" d="M199.838 24C199.335 24 198.77 23.8862 198.139 23.6312C198.155 23.4954 198.166 23.3608 198.18 23.2276C198.226 22.7998 198.253 22.3751 198.267 21.9638C198.31 20.9164 198.269 19.874 198.071 18.6833C197.973 18.0995 197.982 17.6364 198.066 17.2694L200.704 16C200.704 16 202.15 16.8891 202.592 17.8809C203.596 20.1393 202.772 24.0003 199.838 24" fill="#DF9A97"/>
<path fill-rule="evenodd" clip-rule="evenodd" d="M206.202 22.0597C203.173 21.4011 201.45 26.4039 199.04 26.7348C197.578 26.9356 198.254 24.7046 197.521 24.0525C197.067 23.6512 196.645 23.1436 196.088 24.1579C186.969 40.7459 195.954 77.9651 195.954 77.9651C195.954 77.9651 203.109 83.1938 218.053 82.9944C227.154 82.8733 220.993 74.5157 220.579 72.4129C220.165 70.3103 212.832 29.246 212.832 29.246C212.832 29.246 210.9 25.8662 206.202 22.0597" fill="white"/>
<path fill-rule="evenodd" clip-rule="evenodd" d="M189.629 44.6901C190.181 47.4188 190.971 52.6302 191.399 56.2706C191.927 60.7727 191.573 63.5535 191.483 65.3106C191.275 69.2969 191.548 74.4438 193.281 78.1982C195.134 82.2148 196.674 81.2383 198.403 79.4337C201.36 76.3379 199.641 68.7504 197.818 58.3186C196.085 48.3892 193.249 42.6147 193.816 34.2752C194.247 27.9669 196.441 23 196.441 23C186.399 27.0866 189.321 43.1661 189.629 44.6901" fill="#0067A7"/>
<path fill-rule="evenodd" clip-rule="evenodd" d="M202.135 50.9972C202.143 51.0868 202.15 51.1746 202.16 51.2621C202.194 51.5898 202.233 51.9172 202.274 52.2405C202.286 52.3263 202.298 52.4138 202.313 52.4991C202.325 52.5869 202.342 52.6744 202.357 52.7621C203.246 57.7871 207.292 64.6134 209.15 68.9513V68.9535C209.213 69.1052 209.277 69.2528 209.335 69.3987C209.425 69.6171 209.508 69.8275 209.583 70.0313C209.659 70.2417 209.734 70.4496 209.807 70.6559C209.856 70.7955 209.902 70.9349 209.951 71.0745C210.005 71.2347 210.058 71.3929 210.109 71.5512C210.168 71.7325 210.224 71.9116 210.28 72.0907C213.021 80.9294 211.427 86.5405 215.327 90.2899C218.838 93.6607 236.707 103.166 243.53 96.924C245.47 95.1482 241.054 91.9065 236.712 87.7121L236.671 87.6709C235.074 86.125 233.486 84.4474 232.237 82.6667C227.978 76.6002 226.096 69.4935 224.689 64.1199C223.608 59.9924 223.218 54.608 222.673 48.3684C222.527 46.7262 222.371 45.0235 222.188 43.2707C221.631 37.8979 217.414 30.9104 214.906 28.4955C208.95 22.7511 206.54 22 206.54 22C206.501 24.0281 204.341 30.4652 203.017 37.8303C202.819 38.9117 202.642 40.0118 202.496 41.1219L202.491 41.1534C202.048 44.4527 201.846 47.8297 202.135 50.9972" fill="#0067A7"/>
<path fill-rule="evenodd" clip-rule="evenodd" d="M202.251 53V53C202.235 52.9123 202.215 52.8248 202.202 52.7371C202.182 52.6517 202.169 52.5643 202.155 52.4785C202.105 52.1615 202.061 51.8341 202.028 51.5001C202.017 51.4126 202.008 51.3249 202 51.2352C202.008 51.3249 202.017 51.4126 202.028 51.5001C202.066 51.8278 202.11 52.1552 202.157 52.4785C202.171 52.5643 202.185 52.6517 202.202 52.7371C202.215 52.8248 202.235 52.9123 202.251 53M202.409 41.3607C202.583 39.8768 202.738 38.6769 202.771 38L203 38.0693C202.776 39.1507 202.575 40.2507 202.409 41.3607" fill="#D8D8DE"/>
<path fill-rule="evenodd" clip-rule="evenodd" d="M215.095 85C215.948 82.5443 216.642 80.3714 217.073 78.7509C218.857 72.0629 219.596 51.3464 219.81 43.7726L220.975 72.7936C221.355 77.0655 217.27 81.8609 215.095 85M207.947 66.6385C205.889 62.4522 203.08 57.1897 202.324 53.1079C202.309 53.0191 202.291 52.9306 202.279 52.8418C202.264 52.7555 202.251 52.667 202.239 52.5802C202.197 52.253 202.157 51.9217 202.122 51.5902C202.112 51.5016 202.104 51.4129 202.097 51.3221C201.83 48.0685 202.169 44.2069 202.461 41.3623L202.466 41.3304C202.616 40.2073 202.798 39.0942 203 38L204.507 38.5174C204.382 38.965 204.335 39.2372 204.335 39.2372C207.121 52.9809 207.955 61.242 207.947 66.6385" fill="#045A94"/>
<path fill-rule="evenodd" clip-rule="evenodd" d="M199.134 103C198.14 104.755 198.145 103.014 197.174 105.501C196.237 107.905 195.664 109.748 193.574 110.84C191.862 111.736 189.112 113.423 190.281 115.945C191.333 118.216 195.383 116.262 196.489 115.275C200.741 111.486 199.518 115.513 201.314 115.161C203.112 114.808 200.46 113.156 202.532 109.216C203.778 106.851 204.817 107.375 204.996 106.236C205.175 105.098 199.134 103 199.134 103" fill="#FFAFA6"/>
<path fill-rule="evenodd" clip-rule="evenodd" d="M204.086 38.4805C209.234 64.815 207.439 70.9153 206.288 75.3895C205.135 79.8637 195.483 104.209 196.022 104.95C196.563 105.691 202.277 111.157 203.921 109.778C205.563 108.399 214.199 85.9872 216.305 77.788C218.414 69.5892 219 40.1969 219 40.1969C219 40.1969 218.067 29.0901 211.708 30.06C205.352 31.0299 204.086 38.4805 204.086 38.4805" fill="#0067A7"/>
<path fill-rule="evenodd" clip-rule="evenodd" d="M222 41C221.734 40.3411 221.394 39.6708 221 39C221.456 39.6922 221.737 40.3172 222 41" fill="#CFC1B2"/>
<path fill-rule="evenodd" clip-rule="evenodd" d="M222 42C221.27 41.8882 220.5 41.7804 219.705 41.6727C219.716 41.2055 219.721 40.9516 219.721 40.9516C219.721 40.9516 219.574 39.131 219 37.0341C219.437 37.0276 219.856 37.016 220.243 37C220.682 37.8003 220.991 38.473 221.225 39.0956C221.468 39.8226 221.678 40.549 221.842 41.2631C221.894 41.4987 221.946 41.7405 221.998 41.993C222 41.9952 222 41.9981 222 42" fill="#055993"/>
<path fill-rule="evenodd" clip-rule="evenodd" d="M198.894 26.0153C198.944 25.9954 199.003 25.9847 199.066 25.9847C199.08 25.9847 199.093 25.9853 199.106 25.9861C199.072 25.993 199.034 25.9991 199 26.0041C198.963 26.0094 198.928 26.0129 198.894 26.0153" fill="#D69492"/>
<path fill-rule="evenodd" clip-rule="evenodd" d="M203.231 36C200.85 32.7296 199.834 27.8598 199.537 27.8598C199.532 27.8598 199.53 27.8603 199.527 27.8613C199.515 27.8658 199.501 27.8681 199.486 27.8681C199.292 27.8678 199.082 27.4005 199.019 26.9334C198.964 26.5347 199.019 26.1363 199.285 26.0277C199.316 26.0254 199.348 26.0221 199.381 26.0171C199.412 26.0123 199.446 26.0065 199.477 26C199.537 26.0038 199.601 26.0171 199.673 26.041C200.536 26.3285 200.378 27.3703 200.931 28.2431C201.729 29.4998 202.745 30.9332 204 32.2565C203.734 33.4555 203.473 34.7097 203.231 36" fill="#D6D6DB"/>
<path fill-rule="evenodd" clip-rule="evenodd" d="M204.397 38C204.367 37.9763 204.339 37.9523 204.31 37.9284C203.834 37.5313 203.398 37.0684 203 36.566C203.251 35.3368 203.523 34.1422 203.799 33C204.27 33.456 204.775 33.8983 205.313 34.314C205.534 34.4862 205.763 34.6542 206 34.8167C205.193 35.9567 204.693 37.1314 204.397 38" fill="#055993"/>
<path fill-rule="evenodd" clip-rule="evenodd" d="M218.983 41C214.797 40.483 210.04 39.9698 207.132 39.0113C205.968 38.6275 204.925 37.9857 204 37.2128C204.293 36.3362 204.789 35.1506 205.588 34C206.476 34.6273 207.45 35.1731 208.513 35.5859C209.959 36.1474 213.902 36.373 217.232 36.373C217.565 36.373 217.893 36.3706 218.211 36.3662C218.84 38.4609 219 40.2796 219 40.2796C219 40.2796 218.995 40.5333 218.983 41" fill="#055993"/>
<path fill-rule="evenodd" clip-rule="evenodd" d="M198.225 27.0652C198.415 26.5182 199.052 25.7252 200.215 26.0948C201.09 26.3731 201.064 26.7531 201.625 27.5984C203.311 30.1366 205.97 33.4176 209.776 34.9263C213.581 36.4349 223.955 33.7443 229.413 36.6063C234.872 39.4686 235.205 45.1664 243.22 48.8121C251.235 52.4578 261.222 51.3973 263.577 52.5035C265.934 53.61 267.281 54.5648 266.95 55.5277C266.617 56.4908 264.941 57.7731 263.012 57.9895C261.083 58.2059 245.497 55.0296 241.605 53.3727C235.254 50.6677 231.221 43.1479 227.076 41.5995C222.931 40.0509 213.318 40.0239 208.412 38.3736C202.941 36.5333 200.202 28.8115 199.767 28.9558C199.334 29.1 198.93 29.2443 198.266 28.8684C197.811 28.6104 198.038 27.6122 198.225 27.0652" fill="#FFAE00"/>
<path fill-rule="evenodd" clip-rule="evenodd" d="M194.086 5C192.928 7.50986 188.281 11.466 190.064 12.0804C191.85 12.6949 187.615 17.3812 189.49 18.1022C194.034 19.8485 200.353 18.837 201.736 16.8693C203.12 14.9016 205 8.71546 205 8.71546L194.086 5" fill="#FFAFA6"/>
<path fill-rule="evenodd" clip-rule="evenodd" d="M198.214 9.63235C196.709 9.2847 196.543 9.61429 195.704 8.75496C194.865 7.89588 197.113 7.11105 195.335 6.11677C193.558 5.12275 191.528 4.26066 192.098 2.00272C192.924 -1.26529 195.521 0.223362 197.103 1.20459C198.12 1.83617 199.244 -0.489486 201.41 0.405211C203.105 1.10727 202.546 2.05565 204.033 2.74968C204.932 3.16881 207.288 2.27136 208.34 3.9243C210.293 6.9909 207.145 8.76625 208.593 11.8115C210.283 15.3632 202.283 18.7719 201.82 17.8461C201.278 16.7656 203.434 14.4881 202.83 13.5558C201.922 12.1494 201.387 13.17 199.991 13.7918C198.501 14.4557 196.417 13.7795 198.464 12.1975C200.509 10.6156 199.575 9.94663 198.214 9.63235" fill="#191939"/>
<path fill-rule="evenodd" clip-rule="evenodd" d="M95 160.904C109.395 159.191 111.45 154.265 114.12 139C115.986 153.483 118.367 158.976 133 160.629C120.235 164.758 115.75 166.259 113.474 183C110.328 166.044 107.524 164.544 95 160.904" fill="white"/>
<path fill-rule="evenodd" clip-rule="evenodd" d="M226.914 306C101.593 306 0 298.957 0 290.268C0 287.483 10.4507 284.865 28.7776 282.594C28.143 285.474 27.5428 288.219 26.9761 290.744C26.9761 290.744 62.4126 290.907 88.8219 290.907C100.429 290.907 110.295 290.875 114.637 290.785C127.679 290.79 140.911 290.793 153.128 290.793C178.421 290.793 199.379 290.781 205.33 290.744C206.187 290.742 206.937 290.608 207.59 290.363C212.918 290.343 217.157 290.312 219.619 290.261C221.292 290.261 222.965 290.263 224.64 290.263C224.638 290.271 224.635 290.273 224.635 290.273L227.516 290.263C232.281 290.266 237.032 290.266 241.727 290.268C254.323 290.314 275.231 290.382 292.346 290.382C303.954 290.382 313.821 290.351 318.163 290.261C331.205 290.266 344.434 290.268 356.651 290.268C381.944 290.268 402.902 290.256 408.854 290.222C413.979 290.193 415.34 285.62 414.605 279C443.56 281.018 461 283.745 461 287.225C461 295.912 352.234 306 226.914 306" fill="#DBCDB9"/>
<path fill-rule="evenodd" clip-rule="evenodd" d="M360 167C359.029 165.417 346.298 164.559 329 164.139C329.326 164.115 329.638 164.068 329.933 164C346.723 164.31 358.862 165.147 360 167" fill="#E7D8C2"/>
<path fill-rule="evenodd" clip-rule="evenodd" d="M379 214C356.375 191.566 307.673 180.358 271.7 168.144C270.211 167.066 267.855 166.299 264.93 165.773C264.282 165.538 263.636 165.301 263 165.065C267.444 165.065 271.818 165.065 276.069 165.065C301.475 165.065 322.528 165.053 328.505 165.019C328.679 165.017 328.848 165.012 329.014 165C346.522 165.388 359.408 166.181 360.391 167.642C362.539 170.835 376.102 197.287 379 214" fill="#DF9106"/>
<path fill-rule="evenodd" clip-rule="evenodd" d="M272 168C269.608 167.337 267.273 166.673 265 166C268.025 166.444 270.46 167.09 272 168" fill="#EEA423"/>
<path fill-rule="evenodd" clip-rule="evenodd" d="M315 104C313.69 101.996 291.321 101.212 265 101.004V101C265.184 101 265.37 101 265.557 101C291.762 101 313.452 101.629 315 104" fill="#E7D8C2"/>
<path fill-rule="evenodd" clip-rule="evenodd" d="M266 101.002C265.668 101.001 265.332 100.999 265 100.998C265.332 100.998 265.664 100.998 266 100.998V101.002" fill="#38394A"/>
<path fill-rule="evenodd" clip-rule="evenodd" d="M224 290.005C224 290.005 224.003 290.003 224.005 289.995C224.999 289.995 226.006 289.995 227 289.995L224 290.005" fill="#B9AFA3"/>
<path fill-rule="evenodd" clip-rule="evenodd" d="M395 230C394.072 228.382 382.26 227.48 366 227.022C368.524 227.017 370.541 227.008 371.967 227C385.028 227.425 394.033 228.318 395 230" fill="#E7D8C2"/>
<path fill-rule="evenodd" clip-rule="evenodd" d="M365.871 227.133C359.46 226.998 352.382 226.914 345 226.867C345.374 226.867 345.747 226.867 346.118 226.867C355.577 226.867 364.448 226.935 372 227.116C370.535 227.122 368.464 227.128 365.871 227.133" fill="#DF9106"/>
<path fill-rule="evenodd" clip-rule="evenodd" d="M414 276C391.395 253.686 342.736 242.538 306.798 230.39C305.309 229.317 302.954 228.555 300.031 228.032C299.349 227.786 298.67 227.538 298 227.289H308.017C320.263 227.137 333.091 227.007 345.031 227C352.372 227.053 359.41 227.15 365.786 227.304C382.394 227.702 394.459 228.485 395.408 229.891C397.553 233.067 411.104 259.377 414 276" fill="#DF9106"/>
<path fill-rule="evenodd" clip-rule="evenodd" d="M307 230C304.609 229.337 302.273 228.673 300 228C303.023 228.444 305.46 229.09 307 230" fill="#EEA423"/>
<path fill-rule="evenodd" clip-rule="evenodd" d="M256 79.9618L255.995 101.63C255.992 102.939 254.859 104 253.46 104L253.418 103.973C252.946 102.688 252.648 100.664 252.875 97.4817C253.424 89.7556 251.061 81.0017 249.002 75.0545C248.994 75.0281 249.015 75.002 249.043 75.002L250.364 75C253.403 75.0007 256 77.0505 256 79.9618" fill="#7E4F54"/>
<path fill-rule="evenodd" clip-rule="evenodd" d="M388 221.39C404.665 219.403 407.047 213.695 410.139 196C412.299 212.789 415.054 219.155 432 221.07C417.22 225.859 412.025 227.595 409.388 247C405.748 227.347 402.501 225.61 388 221.39" fill="white"/>
<path fill-rule="evenodd" clip-rule="evenodd" d="M271 235.906C285.772 234.191 287.882 229.268 290.622 214C292.537 228.485 294.979 233.979 310 235.63C296.899 239.761 292.295 241.259 289.958 258C286.731 241.044 283.854 239.546 271 235.906" fill="white"/>
<path fill-rule="evenodd" clip-rule="evenodd" d="M342 179.96C348.818 179.26 349.79 177.245 351.056 171C351.938 176.926 353.068 179.174 360 179.848C353.953 181.539 351.827 182.151 350.75 189C349.259 182.064 347.93 181.45 342 179.96" fill="white"/>
<path fill-rule="evenodd" clip-rule="evenodd" d="M273 76.9609C279.818 76.2602 280.793 74.2452 282.056 68C282.941 73.9254 284.068 76.1726 291 76.8482C284.953 78.5379 282.827 79.1513 281.75 86C280.259 79.0635 278.933 78.4503 273 76.9609" fill="white"/>
</svg>
