<svg width="100" height="24" viewBox="0 0 100 24" fill="none" xmlns="http://www.w3.org/2000/svg">
<path fill-rule="evenodd" clip-rule="evenodd" d="M11.5183 22.883L22.883 11.5183L11.5183 0.153625L0.153634 11.5183L11.5183 22.883ZM11.5183 2.04774L20.9889 11.5183L11.5183 20.9889L2.04775 11.5183L11.5183 2.04774Z" fill="black"/>
<path fill-rule="evenodd" clip-rule="evenodd" d="M14.5988 11.7307C14.5988 10.1034 13.2796 8.78418 11.6522 8.78418C10.0249 8.78418 8.70569 10.1034 8.70569 11.7307C8.70569 13.3581 10.0249 14.6773 11.6522 14.6773C13.2796 14.6773 14.5988 13.3581 14.5988 11.7307ZM9.50929 11.7307C9.50929 10.5472 10.4687 9.58778 11.6522 9.58778C12.8358 9.58778 13.7952 10.5472 13.7952 11.7307C13.7952 12.9142 12.8358 13.8737 11.6522 13.8737C10.4687 13.8737 9.50929 12.9142 9.50929 11.7307Z" fill="black"/>
<path d="M11.1166 4.6322V9.4053H11.9202V4.6322H11.1166Z" fill="black"/>
<path d="M11.2505 13.8494V18.6225H12.0541V13.8494H11.2505Z" fill="black"/>
<path d="M11.5161 5.06304L17.4475 7.39277L17.7413 6.64479L11.5206 4.20142L5.11023 6.6433L5.39629 7.39426L11.5161 5.06304Z" fill="black"/>
<path d="M17.6856 15.5873L17.9793 16.3353L11.7586 18.7786L5.34827 16.3367L5.63433 15.5858L11.7542 17.917L17.6856 15.5873Z" fill="black"/>
<circle cx="11.6522" cy="11.6522" r="2.27688" fill="#FCD619"/>
<path fill-rule="evenodd" clip-rule="evenodd" d="M29.1508 4.43035V20.9424H31.5911V4.43035H37.5176V2.09424H23.2244V4.43035H29.1508ZM40.4942 2.09424V20.9424H42.9881V12.4475H53.4197V20.9424H55.9137V2.09424H53.4197V10.1379H42.9881V2.09424H40.4942ZM60.9552 20.9424V2.09424H72.0572V4.43035H63.4491V10.1379H70.4482V12.474H63.4491V18.6063H72.0572V20.9424H60.9552ZM75.892 2.09424V20.9424H78.3859V2.09424H75.892ZM81.0676 20.9424L89.4879 2.09424H91.5528L100 20.9424H97.3988L94.9317 15.4472H86.0554L83.6419 20.9424H81.0676ZM93.9395 13.2173L90.4801 5.43912L87.0476 13.2173H93.9395Z" fill="black"/>
<path fill-rule="evenodd" clip-rule="evenodd" d="M29.1508 4.43035V20.9424H31.5911V4.43035H37.5176V2.09424H23.2244V4.43035H29.1508ZM40.4942 2.09424V20.9424H42.9881V12.4475H53.4197V20.9424H55.9137V2.09424H53.4197V10.1379H42.9881V2.09424H40.4942ZM60.9552 20.9424V2.09424H72.0572V4.43035H63.4491V10.1379H70.4482V12.474H63.4491V18.6063H72.0572V20.9424H60.9552ZM75.892 2.09424V20.9424H78.3859V2.09424H75.892ZM81.0676 20.9424L89.4879 2.09424H91.5528L100 20.9424H97.3988L94.9317 15.4472H86.0554L83.6419 20.9424H81.0676ZM93.9395 13.2173L90.4801 5.43912L87.0476 13.2173H93.9395Z" fill="black"/>
</svg>
