<svg width="377" height="245" viewBox="0 0 377 245" fill="none" xmlns="http://www.w3.org/2000/svg">
<path fill-rule="evenodd" clip-rule="evenodd" d="M95 85.0306C94.6695 85.0218 94.3367 85.0109 94 85.0022C94.0611 84.9913 94.1232 84.9803 94.1843 84.9694C94.5029 84.9913 94.7779 85.0131 95 85.0306" fill="#CC9E74"/>
<path fill-rule="evenodd" clip-rule="evenodd" d="M171 87.0306C170.67 87.0218 170.335 87.0109 170 87.0022C170.062 86.9913 170.124 86.9803 170.187 86.9694C170.502 86.9913 170.78 87.0109 171 87.0306" fill="#CC9E74"/>
<path fill-rule="evenodd" clip-rule="evenodd" d="M120 117.983C123.03 117.671 123.463 116.776 124.025 114C124.418 116.634 124.919 117.632 128 117.933C125.312 118.684 124.367 118.956 123.889 122C123.226 118.917 122.637 118.645 120 117.983" fill="white"/>
<path fill-rule="evenodd" clip-rule="evenodd" d="M110.256 245C49.3639 245 0 240.682 0 235.355C0 232.701 12.2669 230.297 32.1166 228.552C32.2862 235.934 32.5025 237 33.3209 237C33.487 237 33.6782 236.956 33.8987 236.912C34.1189 236.868 34.3688 236.824 34.6526 236.824C34.6665 236.824 34.6805 236.824 34.6945 236.824C42.5289 236.94 72.4248 239.186 89.8587 239.186C95.9586 239.186 100.537 238.911 102.105 238.173C102.107 238.171 102.109 238.171 102.112 238.171L102.118 238.169C102.12 238.169 102.123 238.167 102.125 238.167C103.757 237.636 105.858 236.698 108.043 235.546C108.218 237.742 108.495 238.169 109.015 238.169C109.181 238.169 109.372 238.125 109.592 238.081C109.813 238.037 110.063 237.993 110.346 237.993C110.359 237.993 110.375 237.993 110.388 237.993C118.223 238.11 148.12 240.356 165.552 240.356C171.657 240.356 176.235 240.08 177.801 239.341L177.812 239.338C178.198 239.153 178.395 238.942 178.389 238.7C178.312 236.275 178.391 232.023 178.534 227C205.833 228.231 224 230.367 224 233.49C224 238.816 171.15 245 110.256 245" fill="#DACBB6"/>
<path fill-rule="evenodd" clip-rule="evenodd" d="M31.1412 192C31.044 191.995 30.9507 191.988 30.8615 191.98C30.831 190.441 31.053 187.635 31.018 186.002L31.0178 186L31.018 186.002C31.053 187.635 31.0857 189.221 31.1161 190.76C31.1246 191.179 31.1329 191.588 31.1412 192" fill="#CFB294"/>
<path fill-rule="evenodd" clip-rule="evenodd" d="M297.068 238C264.446 238 238 236.208 238 234C238 231.79 264.446 230 297.068 230C329.687 230 358 231.015 358 233.226C358 235.434 329.687 238 297.068 238" fill="#DACBB6"/>
<path fill-rule="evenodd" clip-rule="evenodd" d="M303.412 30.5284L311 27.6427C310.722 24.1462 306.186 17.1833 305.308 14.1126C304.348 10.7434 299.719 8 299.719 8L297.816 15.4444L298.042 16.0325C298.042 16.0325 299.241 21.9898 298.434 24.8357C297.971 26.463 298.574 28.7469 297.111 31.3114C296.015 33.2308 303.412 30.5284 303.412 30.5284" fill="#EFAEA6"/>
<path fill-rule="evenodd" clip-rule="evenodd" d="M298.959 21C298.64 18.8978 298 17.0271 298 17.0271L298.081 17C298.386 18.0393 298.756 19.4894 298.959 21" fill="#D0C1B0"/>
<path fill-rule="evenodd" clip-rule="evenodd" d="M301.025 24C300.52 24 299.966 23.9017 299.367 23.68C299.369 23.674 299.369 23.6676 299.369 23.6617C299.458 22.7927 299.428 21.718 299.352 20.7084C299.271 19.4718 299.122 18.2847 299 17.4339L301.114 16C301.114 16 303.848 17.702 304.624 18.473C305.706 19.547 304.435 24.0004 301.025 24" fill="#D29A97"/>
<path fill-rule="evenodd" clip-rule="evenodd" d="M290 8.28819C291.597 15.6702 289.212 17.6256 291.74 17.1328C293.689 16.7531 292.887 23.4635 294.944 22.9745C299.929 21.7899 304.051 17.156 304 14.498C303.948 11.8401 301.675 5 301.675 5L290 8.28819" fill="#EFAEA6"/>
<path fill-rule="evenodd" clip-rule="evenodd" d="M295.901 10.3757C294.588 10.9313 294.641 11.2885 293.555 11.0632C292.469 10.8376 293.735 8.96017 291.875 9.14703C290.014 9.3341 288.035 9.76859 287.261 7.6366C286.142 4.55108 288.878 4.30648 290.586 4.21673C291.685 4.15898 291.291 1.66582 293.387 1.18354C295.033 0.805285 295.119 1.87885 296.603 1.61089C297.498 1.44934 298.787 -0.581221 300.454 0.163612C303.548 1.54579 302.133 4.72107 304.837 6.36472C307.995 8.28173 303.812 15.4634 302.974 14.9764C301.993 14.408 302.397 11.3802 301.45 10.9659C300.018 10.3408 300.162 11.4572 299.446 12.7317C298.682 14.0931 296.762 14.7065 297.454 12.2989C298.144 9.89165 297.089 9.8724 295.901 10.3757" fill="#1F1F3B"/>
<path fill-rule="evenodd" clip-rule="evenodd" d="M284.17 225.03C283.844 221.441 284.087 212.346 284.087 212.346L293 212L292.52 225.657L286.628 230L284.17 225.03" fill="white"/>
<path fill-rule="evenodd" clip-rule="evenodd" d="M282.195 222.381C281.401 221.787 279.629 223.87 279.265 225.267C278.427 228.469 267.907 228.875 266.034 229.165C265.066 229.314 263.507 234.019 268.321 234C272.483 233.981 285.819 233.972 290.374 233.925C291.327 233.915 292.16 233.309 292.389 232.443C293.208 229.352 293.309 222.1 292.037 222C290.326 222.374 285.226 224.642 282.195 222.381" fill="#1F1F3B"/>
<path fill-rule="evenodd" clip-rule="evenodd" d="M320.206 225.057C319.86 221.475 320.055 212.398 320.055 212.398L329 212L328.592 225.631L322.701 230L320.206 225.057" fill="white"/>
<path fill-rule="evenodd" clip-rule="evenodd" d="M318.8 220.678C317.789 220.744 317.971 221.707 317.619 223.164C316.817 226.504 304.875 228.669 303.009 228.986C302.046 229.15 300.535 234.061 305.336 233.999C309.487 233.944 322.785 233.82 327.327 233.731C328.275 233.714 329.1 233.076 329.321 232.173C330.108 228.946 330.404 220.095 329.136 220C327.432 220.403 323.407 220.374 318.8 220.678" fill="#1F1F3B"/>
<path fill-rule="evenodd" clip-rule="evenodd" d="M333.715 112.086C333.595 113.632 333.436 115.317 333.22 117.16C332.406 124.074 330.694 147.393 331.11 162.203C331.529 176.943 330.227 211.423 330.227 216.705C325.761 218.668 322.994 218.056 316.611 216.705C316.611 216.705 315.476 188.256 314.218 163.348C313.197 143.125 312.902 148.531 309.195 122.778L309.193 122.782C309.15 122.903 308.246 125.412 306.931 129.27C304.116 137.51 299.413 148.527 297.159 158.95C293.644 175.21 295.479 217.594 294.007 219.057C289.624 221.643 282.206 221.894 280.225 218.3C280.225 218.3 279.387 165.886 280.945 157.678C282.003 152.095 290.924 97.3938 292.916 82.6994C292.916 82.6994 332.212 74.1149 333.416 87.5633C333.58 89.4039 333.63 91.0281 333.608 92.5759C333.576 94.6657 333.691 96.6003 333.805 98.7229C333.988 102.19 334.169 106.151 333.715 112.086" fill="#3B3B4D"/>
<path fill-rule="evenodd" clip-rule="evenodd" d="M312.051 112.036C311.979 111.992 311.951 111.971 311.942 111.964L312.058 112.016L312.051 112.036" fill="#2E2E45"/>
<path fill-rule="evenodd" clip-rule="evenodd" d="M306 128C307.18 124.997 307.955 123.107 308 123C307.97 123.074 307.096 125.285 306 128" fill="#7E7679"/>
<path fill-rule="evenodd" clip-rule="evenodd" d="M304 134L307.379 114C307.379 114 308.213 117.601 309 122.452L308.997 122.456C308.997 122.458 308.997 122.458 308.997 122.458C308.951 122.562 308.148 124.4 306.926 127.32C305.984 129.514 304.885 132.046 304 134" fill="#2C2C43"/>
<path fill-rule="evenodd" clip-rule="evenodd" d="M333.928 108C333.592 107.93 317.903 105.197 316 97C316.291 97.7753 316.745 98.4999 317.438 99.1907C320.081 101.821 323.46 102.993 326.879 102.993C329.292 102.993 331.723 102.41 333.937 101.343C334.019 103.973 334.026 106.612 333.928 108" fill="#313147"/>
<path fill-rule="evenodd" clip-rule="evenodd" d="M310.746 22.1025C307.337 21.1776 307.005 26.8106 303.567 27.0829C301.751 27.2266 302.153 26.4357 301.297 25.5995C300.768 25.0847 300.274 24.5072 299.439 25.3631C282.473 42.7689 300.139 86.6541 297.98 89.7174C296.214 92.2213 310.571 97.6881 319.59 95.49C331.956 92.4748 331.204 79.0461 330.846 76.4809C330.487 73.9158 322.522 30.3238 322.522 30.3238C322.522 30.3238 316.257 27.0118 310.746 22.1025" fill="#EDEDED"/>
<path fill-rule="evenodd" clip-rule="evenodd" d="M284.679 77.8602C281.667 74.5337 278 73.7437 278 69.0831C278 58.7091 286.25 26.6592 298.088 26C298.088 26 298.505 28.9258 297.533 36.5546C296.249 46.6369 301.839 53.8099 300.705 66.0096C299.24 81.7901 303.064 97.9026 299.24 101.462C297.01 103.533 293.919 103.932 290.188 99.9982C284.316 93.8059 288.176 73.4936 288.712 68.6688C288.919 66.7905 289.377 64.2599 289.771 61.6371C290.257 58.3755 290.704 59.7731 292.536 56.4483C292.817 55.9414 297.383 66.5553 297.777 73.7372C298.192 81.3381 297.47 78.1147 295.616 82.7139C294.19 86.2467 286.922 80.3353 284.679 77.8602" fill="#0069A8"/>
<path fill-rule="evenodd" clip-rule="evenodd" d="M334.815 100.612C329.336 103.967 322.047 104.069 317.223 99.0961C313.226 94.9708 317.27 89.6331 314.313 80.014C312.67 74.6741 310.123 65.1051 309.578 58.4617C308.42 44.3239 309.306 26.9925 309.629 23C309.629 23 318.335 23.2095 325.484 30.5066C328.49 33.5726 330.381 42.4395 330.702 48.9207C330.804 51.0475 330.864 52.757 330.895 54.2018C330.955 57.1526 330.884 58.9938 330.786 61.0117C330.747 61.8153 330.707 62.6475 330.665 63.5866V63.5886C330.623 64.649 330.578 65.849 330.55 67.3018C330.505 69.6769 331.325 73.5788 332.343 77.8971L332.346 77.8993C334.576 87.3579 337.752 98.8141 334.815 100.612" fill="#0069A8"/>
<path fill-rule="evenodd" clip-rule="evenodd" d="M305.458 52L304 51.1381L305.408 49.3028C305.65 48.9886 306.137 48.9055 306.493 49.117L306.654 49.2122C307.013 49.4237 307.108 49.8505 306.866 50.1648L305.458 52" fill="white"/>
<path fill-rule="evenodd" clip-rule="evenodd" d="M304.875 51L304.987 51.076L305.262 51.265L305.747 51.5962L305.768 51.6117L306 51.7692L294.563 69.0013L294.533 69.0253L293.411 69.9427C293.217 70.0995 292.941 69.91 293.011 69.6703L293.438 68.2325L293.473 68.1802L304.875 51" fill="#F4AD00"/>
<path fill-rule="evenodd" clip-rule="evenodd" d="M295 69.7397L293.327 70.9588C293.176 71.0691 292.948 70.9404 293.011 70.7791L293.727 69.019L293.742 69C293.868 69.0319 293.951 69.0221 294.014 69.0123C294.077 69.0022 294.121 68.9922 294.169 69.0259C294.293 69.1111 294.15 69.3847 294.293 69.466C294.366 69.5069 294.41 69.4864 294.456 69.464C294.5 69.4436 294.546 69.4229 294.616 69.464C294.76 69.5436 294.699 69.6192 294.786 69.6682C294.823 69.6886 294.832 69.6845 294.845 69.6825C294.862 69.6764 294.883 69.6723 295 69.7397" fill="#EFAEA6"/>
<path fill-rule="evenodd" clip-rule="evenodd" d="M294 70.3995L293.24 70.9695C293.128 71.0521 292.962 70.9535 293.008 70.8337L293.332 70.016L293.363 70C293.608 70.0346 293.54 70.2024 293.675 70.2664C293.743 70.2956 293.864 70.3303 293.988 70.3596L294 70.3995" fill="#1F1E39"/>
<path fill-rule="evenodd" clip-rule="evenodd" d="M294.195 69V69C294.115 68.9459 294.084 68.9346 294.066 68.9346C294.06 68.9346 294.055 68.9346 294.053 68.9369C294.049 68.9369 294.047 68.9392 294.044 68.9392L294 68.9211C295.114 66.8565 299.999 59.7051 301.507 57.4327C302.701 55.6328 304.374 52.975 305.739 51L305.761 51.016L306 51.1789L294.195 69" fill="#E1A005"/>
<path fill-rule="evenodd" clip-rule="evenodd" d="M294.68 69.29L294 69.02C294.01 69.02 294.02 69.01 294.04 69.01C294.05 69 294.07 69 294.1 69C294.18 69 294.32 69.05 294.68 69.29" fill="#DCA19C"/>
<path fill-rule="evenodd" clip-rule="evenodd" d="M332.993 85V85C332.665 82.9919 332.323 80.9644 332 79C332.586 82.2546 333.062 85 332.993 85" fill="#C4B6A8"/>
<path fill-rule="evenodd" clip-rule="evenodd" d="M313 75C312.992 74.9954 312.988 74.9931 312.988 74.9931C312.988 74.9931 306.456 72.7655 306.016 70.2575C306.002 70.1793 305.999 70.092 306 70C306.089 70.3816 306.211 70.623 306.375 70.6736C306.748 70.7931 309.187 71.7885 312.554 73.0138C312.704 73.692 312.852 74.3563 313 75" fill="#C4C4C9"/>
<path fill-rule="evenodd" clip-rule="evenodd" d="M333 83C333 83 333 83 332.998 83C332.389 82.742 313.061 74.985 312.492 74.7554C312.328 74.1865 312.165 73.5993 312 73C317.622 74.6396 325.59 76.7444 331.562 77.3356C331.621 77.549 331.68 77.7643 331.736 77.9736C332.147 79.6193 332.582 81.3178 333 83" fill="#065A92"/>
<path fill-rule="evenodd" clip-rule="evenodd" d="M310.002 59.0289C310 59.0285 310 59.0281 309.998 59.0276C309.998 59.0084 309.998 58.9896 309.998 58.9711C310 58.9903 310 59.0097 310.002 59.0289" fill="#C4C4C9"/>
<path fill-rule="evenodd" clip-rule="evenodd" d="M327.673 65C326.489 65 322.047 63.2799 317.616 61.5597C314.813 60.4709 312.014 59.3821 310.046 58.7296C310.044 58.7103 310.044 58.6909 310.042 58.6716C310.035 58.1509 310 57.8369 310 57.8369C314.546 59.7023 320.971 61.6487 323.655 61.6487C324.402 61.6487 324.859 61.4974 324.903 61.1504C325.212 58.6963 319.625 46.6219 319.552 46C324.164 53.3975 328.344 61.282 327.978 64.8614C327.969 64.9563 327.863 65 327.673 65" fill="#065A92"/>
<path fill-rule="evenodd" clip-rule="evenodd" d="M307.336 60.3604C302.144 59.1127 303.312 57.5234 302.244 57.5532C300.996 57.5878 299.985 56.3401 298.332 57.4837C297.632 57.969 295.501 58.1424 296.107 61.0537C296.714 63.965 298.332 67.0842 301.165 67.1536C303.792 67.2177 310 71 310 71L307.336 60.3604" fill="#EFAEA6"/>
<path fill-rule="evenodd" clip-rule="evenodd" d="M316.196 39.7556C321.909 48.3041 328.763 59.7863 328.302 64.3135C328.232 64.9948 323.151 63.0195 318.082 61.0445C313.294 59.1777 308.517 57.3108 308 57.6867C306.549 58.7366 305.165 70.6131 306.614 71.0049C308.065 71.399 337.971 82.1058 341.026 76.2555C346.299 66.1506 328.563 33.144 326.172 30.3881C323.784 27.6323 313.471 26.4466 313.581 31.3789C313.69 36.3112 316.196 39.7556 316.196 39.7556" fill="#0069A8"/>
<path fill-rule="evenodd" clip-rule="evenodd" d="M308.92 36C306.082 33.6891 304.09 29.6575 303.795 29.6575C303.789 29.6575 303.783 29.6589 303.779 29.662C303.76 29.6757 303.736 29.6822 303.713 29.6822C303.517 29.6822 303.21 29.2616 303.071 28.841C302.932 28.4204 302.966 28 303.451 28C303.466 28 303.484 28.0004 303.5 28.0012C304.337 28.0444 304.433 29.0131 305.123 29.6552C306.174 30.6274 307.482 31.7143 309 32.612C308.969 33.6858 308.941 34.821 308.92 36" fill="#C8C8CD"/>
<path fill-rule="evenodd" clip-rule="evenodd" d="M314 38C313.994 37.9995 313.988 37.9991 313.981 37.9986C312.778 37.9099 311.622 37.4998 310.551 36.9137C310.013 36.6192 309.495 36.2437 309 35.8156C309.023 34.4878 309.052 33.2094 309.085 32C309.557 32.2981 310.05 32.5778 310.562 32.8301C311.22 33.1568 311.91 33.4377 312.625 33.6545C312.973 35.4829 313.534 36.978 314 38" fill="#065C94"/>
<path fill-rule="evenodd" clip-rule="evenodd" d="M329 36C328.697 35.0995 328.409 34.2661 328.141 33.513C328.094 33.3391 328.047 33.1681 328 33C328.525 34.1961 328.772 35.1214 329 36" fill="#C8BAAA"/>
<path fill-rule="evenodd" clip-rule="evenodd" d="M328 34C327.658 33.6501 327.321 33.3172 327 33C327.209 33.1566 327.401 33.3088 327.583 33.4571C327.722 33.635 327.861 33.8159 328 34" fill="#065C94"/>
<path fill-rule="evenodd" clip-rule="evenodd" d="M316.68 39C315.881 39 315.145 38.982 314.495 38.9423C313.988 38.0041 313.378 36.6318 313 34.9535C313.628 35.1138 314.272 35.2356 314.936 35.3098C315.068 35.3248 315.222 35.332 315.395 35.332C317.778 35.3318 323.547 33.9388 326.815 33C327.038 33.2432 327.236 33.472 327.409 33.6886C327.544 33.9058 327.686 34.1338 327.83 34.3734C328.163 34.9192 328.521 35.5232 328.897 36.1758C329.181 36.8071 329.442 37.4048 330 38.127C325.998 38.5665 320.594 39 316.68 39" fill="#065C94"/>
<path fill-rule="evenodd" clip-rule="evenodd" d="M302.013 27.4498C302.057 26.8726 302.48 25.9425 303.718 26.0028C304.651 26.0485 304.725 26.4228 305.497 27.0963C307.814 29.1197 311.28 31.613 315.415 32.099C319.551 32.5851 329.053 27.332 335.165 28.7044C341.278 30.0767 343.085 35.5012 351.913 36.9782C360.742 38.455 370.29 34.8768 372.895 35.3444C375.5 35.8122 377.074 36.3907 376.997 37.4068C376.921 38.4226 375.604 40.0914 373.762 40.7935C371.923 41.4957 355.765 42.4086 351.51 41.801C344.561 40.8087 338.642 34.5675 334.162 34.1299C329.683 33.6923 320.222 36.123 314.968 35.7811C309.111 35.3997 304.411 28.6332 304.021 28.8835C303.633 29.1338 303.273 29.3768 302.523 29.1831C302.007 29.0499 301.97 28.027 302.013 27.4498" fill="#F4AD00"/>
<path fill-rule="evenodd" clip-rule="evenodd" d="M106.141 194C106.043 193.995 105.949 193.988 105.862 193.98C105.831 192.442 106.052 189.637 106.017 188.005C106.017 188.005 106.017 188.002 106.017 188C106.017 188.002 106.017 188.005 106.017 188.005C106.052 189.637 106.084 191.222 106.115 192.76C106.124 193.177 106.133 193.588 106.141 194" fill="#B57B4D"/>
<path fill-rule="evenodd" clip-rule="evenodd" d="M291.828 62L290 59.2834L291.689 52C291.689 52 292.284 57.4098 291.828 62" fill="#08568C"/>
<path fill-rule="evenodd" clip-rule="evenodd" d="M268.203 58.9376C270.579 55.8737 286.897 49.5238 288.709 53.0239C290.518 56.524 301.586 79.8871 299.807 81.9043C298.172 83.7546 282.405 90.4714 280.192 88.7077C277.977 86.9418 266.331 61.3544 268.203 58.9376" fill="white"/>
<path fill-rule="evenodd" clip-rule="evenodd" d="M275.118 76.404C276.408 77.0086 277.482 78.2038 278.227 79.3769C279.714 81.721 281.17 82.3619 278.567 84.6234C275.965 86.8848 274.873 85.9415 273.272 84.7604C271.669 83.5793 268.592 78.5687 270.731 76.9744C272.328 75.7852 273.831 75.7993 275.118 76.404" fill="#EFAEA6"/>
<path fill-rule="evenodd" clip-rule="evenodd" d="M278.035 56.7675C281.732 55.6495 281.138 53.9099 280.601 52.3503C280.272 51.9755 279.436 51.6866 279.499 52.6639C279.501 52.6922 279.509 52.7201 279.514 52.7484C279.52 52.7767 279.528 52.8048 279.537 52.8327C279.924 54.0039 279.84 55.0168 277.056 55.7609C274.105 56.55 273.357 57.8669 272.116 55.1868C271.628 54.7719 271.246 54.9844 271 55.5113V55.5149C272.458 59.2619 274.035 57.9773 278.035 56.7675" fill="#3B3B4D"/>
</svg>
