<svg width="173" height="91" viewBox="0 0 173 91" fill="none" xmlns="http://www.w3.org/2000/svg">
<path fill-rule="evenodd" clip-rule="evenodd" d="M102.446 64.9789C94.7636 65.0263 29 64.9789 29 64.9789C30.1307 58.2904 34.7097 37.7833 37.6437 37.6498C38.4744 37.611 44.0387 37.2073 50.7311 37.1223C67.6754 36.9037 95.8258 36.8155 96.7979 38.3151C97.7176 39.7329 103.526 51.4791 104.767 58.9008C105.355 62.4178 104.917 64.965 102.446 64.9789" fill="#EF9A03"/>
<path fill-rule="evenodd" clip-rule="evenodd" d="M64.4571 64.3975C64.2225 64.7255 63.908 64.9105 63.4962 64.9288C59.543 65.089 26 64.9288 26 64.9288C27.5154 57.8201 29.5919 46.8184 32.4229 41.1401C33.5468 38.8849 34.7904 37.4696 36.1662 37.4696C41.0034 37.4696 57.2832 35.6338 58.9602 39.2215C60.674 42.8834 66.847 61.0454 64.4571 64.3975" fill="#FFAF22"/>
<path fill-rule="evenodd" clip-rule="evenodd" d="M52.3851 65C41.1186 65 26 64.9286 26 64.9286C27.5368 57.7781 29.6426 46.7117 32.5136 41C43.3334 47.8303 58.3887 57.0901 65 64.3942C64.8286 64.6322 64.6146 64.7955 64.3517 64.8745C63.6194 64.9005 62.8942 64.9318 62.1899 64.9654C60.0186 64.9903 56.4522 65 52.3851 65" fill="#F3A723"/>
<path fill-rule="evenodd" clip-rule="evenodd" d="M148.446 64.9789C140.763 65.0263 75 64.9789 75 64.9789C76.1303 58.2904 80.7099 37.7833 83.644 37.6498C84.4746 37.611 90.0389 37.2073 96.7314 37.1223C113.676 36.9037 141.826 36.8155 142.798 38.3151C143.718 39.7329 149.526 51.4791 150.768 58.9008C151.354 62.4178 150.917 64.965 148.446 64.9789" fill="#EF9A03"/>
<path fill-rule="evenodd" clip-rule="evenodd" d="M70.3335 63C69.5814 62.9641 68.7991 62.9416 68 62.9313C68.4987 61.1644 73.6611 42.9476 74.811 40.8322C75.9195 38.7926 78.179 37.5186 81 37C79.8019 37.3782 78.7001 38.606 77.687 40.3761C74.5969 45.7743 72.3285 56.2212 70.672 62.9969C70.5588 62.998 70.4456 62.999 70.3335 63" fill="#C9840B"/>
<path fill-rule="evenodd" clip-rule="evenodd" d="M110.457 64.3975C110.223 64.7255 109.907 64.9105 109.496 64.9288C105.543 65.089 72 64.9288 72 64.9288C73.5151 57.8201 75.5916 46.8184 78.423 41.1401C79.5468 38.8849 80.7904 37.4696 82.1662 37.4696C87.0034 37.4696 103.283 35.6338 104.96 39.2215C106.674 42.8834 112.847 61.0454 110.457 64.3975" fill="#FFAF22"/>
<path fill-rule="evenodd" clip-rule="evenodd" d="M87.5886 64.8051C82.188 64.8051 76.7428 64.8473 72 64.9036C73.5359 57.7437 75.6392 46.7043 78.5042 41C89.3271 47.8383 104.387 57.109 111 64.4217C110.871 64.5993 110.719 64.7357 110.541 64.8267C110.53 64.8267 110.519 64.8267 110.507 64.8267C108.457 64.8267 106.33 64.9058 104.365 65C99.5006 64.857 93.5721 64.8051 87.5886 64.8051Z" fill="#F3A723"/>
<path fill-rule="evenodd" clip-rule="evenodd" d="M151 58C141.248 48.8431 120.256 44.2686 104.75 39.2834C104.108 38.8431 103.093 38.5304 101.832 38.3157C101.552 38.2197 101.274 38.1227 101 38.0267C102.916 38.0267 104.801 38.0267 106.633 38.0267C117.584 38.0267 126.658 38.0218 129.235 38.0079C129.31 38.0069 129.383 38.0049 129.454 38C137.001 38.1583 142.555 38.4819 142.979 39.0786C143.905 40.3818 149.751 51.1783 151 58" fill="#DF9106"/>
<path fill-rule="evenodd" clip-rule="evenodd" d="M77.4459 90.9789C69.7636 91.0263 4 90.9789 4 90.9789C5.13078 84.2913 9.71002 63.7827 12.6441 63.6503C13.4749 63.6115 19.0391 63.2078 25.731 63.1227C42.6753 62.9031 70.8257 62.8159 71.7978 64.3156C72.7175 65.7334 78.5259 77.4799 79.7672 84.9017C80.3549 88.4189 79.917 90.965 77.4459 90.9789" fill="#EF9A03"/>
<path fill-rule="evenodd" clip-rule="evenodd" d="M38.4571 90.397C38.2225 90.7261 37.908 90.9111 37.4962 90.9283C33.543 91.0896 0 90.9283 0 90.9283C1.51541 83.8206 3.59199 72.8187 6.42285 67.1403C7.54694 64.8851 8.79098 63.4698 10.1664 63.4698C15.0039 63.4698 31.2836 61.634 32.9601 65.2206C34.6739 68.8836 40.847 87.0459 38.4571 90.397" fill="#FFAF22"/>
<path fill-rule="evenodd" clip-rule="evenodd" d="M26.3855 91C15.1184 91 0 90.9275 0 90.9275C1.5368 83.7781 3.6427 72.7117 6.51352 67C17.3335 73.8303 32.3888 83.0901 39 90.3931C38.7621 90.7242 38.4432 90.9102 38.0255 90.9275C37.8645 90.9351 37.6536 90.9405 37.3991 90.9459C35.5468 90.9859 31.3377 91 26.3855 91" fill="#F3A723"/>
<path fill-rule="evenodd" clip-rule="evenodd" d="M121.447 90.9794C113.764 91.0257 48 90.9794 48 90.9794C49.1303 84.2907 53.71 63.7833 56.644 63.6498C57.4747 63.611 63.0391 63.2073 69.7316 63.1223C86.676 62.9037 114.827 62.8155 115.799 64.3151C116.719 65.7329 122.526 77.4793 123.767 84.9011C124.355 88.4183 123.917 90.9654 121.447 90.9794" fill="#EF9A03"/>
<path fill-rule="evenodd" clip-rule="evenodd" d="M42 91C42 91 47.6239 71.0403 48.8296 68.8221C49.9348 66.7879 52.1875 65.5172 55 65C53.8055 65.3772 52.7071 66.6018 51.6969 68.3672C48.6084 73.7645 46.3434 84.2217 44.6907 90.9785C44.6907 90.9785 45.3791 90.9806 46.5792 90.9857L42 91" fill="#C9840B"/>
<path fill-rule="evenodd" clip-rule="evenodd" d="M84.4575 90.3964C84.2229 90.7255 83.9074 90.9105 83.4966 90.9288C79.5434 91.089 46 90.9288 46 90.9288C47.5151 83.8201 49.5916 72.8184 52.4231 67.1401C53.5469 64.8849 54.7905 63.4696 56.1663 63.4696C61.0036 63.4696 77.2835 61.6338 78.9605 65.2215C80.6733 68.8834 86.8464 87.0454 84.4575 90.3964" fill="#FFAF22"/>
<path fill-rule="evenodd" clip-rule="evenodd" d="M70.3851 91C61.4363 91 50.0597 90.9546 45.7557 90.9362C44.6399 90.9308 44 90.9286 44 90.9286C45.5365 83.7781 47.6423 72.7117 50.5137 67C61.3334 73.8303 76.3887 83.0901 83 90.3931C82.7621 90.7242 82.4421 90.9102 82.0255 90.9286C81.8635 90.9351 81.6536 90.9405 81.3991 90.9459C79.5468 90.9859 75.3384 91 70.3851 91" fill="#F3A723"/>
<path fill-rule="evenodd" clip-rule="evenodd" d="M128.446 37.9789C120.764 38.0263 55 37.9789 55 37.9789C56.1313 31.2904 60.7109 10.7831 63.645 10.6501C64.4756 10.6117 70.0399 10.208 76.7313 10.1223C93.6755 9.90343 121.826 9.81601 122.798 11.3157C123.718 12.7332 129.526 24.4792 130.767 31.9008C131.355 35.4179 130.917 37.965 128.446 37.9789" fill="#EF9A03"/>
<path fill-rule="evenodd" clip-rule="evenodd" d="M91.4571 37.3964C91.2225 37.7255 90.908 37.9105 90.4962 37.9288C86.543 38.089 53 37.9288 53 37.9288C54.5161 30.8202 56.5926 19.8189 59.423 14.1407C60.5468 11.8856 61.7914 10.4696 63.1662 10.4696C68.0044 10.4696 84.2832 8.63394 85.9602 12.2213C87.674 15.8837 93.847 34.0454 91.4571 37.3964" fill="#FFAF22"/>
<path fill-rule="evenodd" clip-rule="evenodd" d="M79.3851 37C69.5491 37 56.7773 36.9494 53.6919 36.9375C53.2441 36.9355 53 36.9345 53 36.9345C53.1402 36.3383 53.2846 35.7133 53.4332 35.0645C53.6337 35.7053 53.7656 36.119 53.8041 36.246C53.9111 36.6012 54.4014 36.745 55.0507 36.745C56.4979 36.745 58.7335 36.0307 59.2664 35.3492C59.6809 34.8184 58.1413 28.4235 56.608 22.4671C56.8043 21.8163 57.0059 21.1784 57.2116 20.5564C59.816 25.7687 62.5742 30.0843 63.6338 30.0843C63.7003 30.0843 63.7606 30.0674 63.8135 30.0317C64.0546 29.871 64.3101 29.7142 64.5719 29.5624C64.9303 30.0029 65.2773 30.4156 65.5505 30.7073C65.3739 31.863 64.3922 33.619 63.8333 35.4127C63.559 36.2907 63.6878 36.6319 64.0525 36.6319C64.6914 36.6319 66.0554 35.5863 67.2532 34.5436C69.1356 32.9067 70.4145 32.0753 70.8757 31.3501C71.338 30.6259 68.102 28.7023 68.6765 27.3699C69.0806 26.4324 66.0596 21.8034 62.9918 17C73.3565 22.9909 86.0722 30.4394 92 36.4434C91.7621 36.747 91.4432 36.9177 91.0255 36.9345C90.8645 36.9405 90.6536 36.9454 90.3991 36.9504C90.1321 36.9563 89.8163 36.9603 89.4558 36.9653C87.3178 36.9911 83.6236 37 79.3851 37" fill="#F3A723"/>
<path fill-rule="evenodd" clip-rule="evenodd" d="M131 30C121.358 20.8923 100.605 16.3424 85.2762 11.3843C85.1907 11.3253 85.099 11.2688 85 11.2144L96.7387 11.0752H96.7512C97.3099 11.0752 97.7623 10.6477 97.7633 10.1203V10.0108C99.0579 10.0046 100.34 10.0008 101.598 10C101.673 10.0005 101.749 10.0011 101.824 10.0016C113.008 10.0834 122.513 10.3919 123.07 11.1806C123.985 12.4765 129.765 23.215 131 30" fill="#DF9106"/>
<path fill-rule="evenodd" clip-rule="evenodd" d="M163.446 90.9794C155.764 91.0257 90 90.9794 90 90.9794C91.1303 84.2907 95.71 63.7833 98.644 63.6498C99.4747 63.611 105.039 63.2073 111.731 63.1223C128.675 62.9037 156.826 62.8155 157.798 64.3151C158.717 65.7329 164.526 77.4793 165.767 84.9011C166.355 88.4183 165.917 90.9654 163.446 90.9794" fill="#EF9A03"/>
<path fill-rule="evenodd" clip-rule="evenodd" d="M86.3198 91C85.8817 91 85.4381 91 85 91C85.0972 90.6544 90.6345 71.0208 91.8291 68.8227C92.9343 66.7881 95.1872 65.5173 98 65C96.8054 65.3773 95.7058 66.6021 94.6955 68.3677C91.6078 73.7658 89.3426 84.2247 87.6887 90.9826C87.6887 90.9826 88.3782 90.9847 89.5784 90.9898L86.3198 91" fill="#C9840B"/>
<path fill-rule="evenodd" clip-rule="evenodd" d="M126.457 90.3964C126.223 90.7255 125.908 90.9105 125.496 90.9288C121.543 91.089 88 90.9288 88 90.9288C89.5161 83.8201 91.5926 72.8184 94.423 67.1401C95.5468 64.8849 96.7914 63.4696 98.1662 63.4696C103.004 63.4696 119.283 61.6338 120.96 65.2215C122.674 68.8834 128.847 87.0454 126.457 90.3964" fill="#FFAF22"/>
<path fill-rule="evenodd" clip-rule="evenodd" d="M113.386 91C104.437 91 93.0607 90.9546 88.7567 90.9362C87.641 90.9308 87 90.9286 87 90.9286C88.5375 83.7781 90.6433 72.7117 93.5137 67C104.333 73.8303 119.389 83.0901 126 90.3931C125.762 90.7242 125.443 90.9102 125.026 90.9286C124.865 90.9351 124.655 90.9405 124.4 90.9459C122.548 90.9859 118.338 91 113.386 91" fill="#F3A723"/>
<path fill-rule="evenodd" clip-rule="evenodd" d="M166 85C156.256 75.8922 135.283 71.3422 119.792 66.3838C119.151 65.9458 118.135 65.6348 116.875 65.4212C116.581 65.3209 116.289 65.2195 116 65.1181H120.318C125.596 65.0561 131.125 65.003 136.272 65C139.436 65.0217 142.47 65.061 145.218 65.124C152.377 65.2864 157.577 65.6063 157.986 66.1801C158.911 67.4763 164.752 78.2149 166 85" fill="#DF9106"/>
<path fill-rule="evenodd" clip-rule="evenodd" d="M156 59.957C162.439 59.1777 163.359 56.939 164.554 50C165.388 56.5839 166.453 59.0804 173 59.8314C167.29 61.7093 165.282 62.3903 164.264 70C162.857 62.293 161.603 61.612 156 59.957" fill="white"/>
<path fill-rule="evenodd" clip-rule="evenodd" d="M40 35.4627C45.6821 34.801 46.4934 32.8978 47.5474 27C48.2839 32.5958 49.2238 34.718 55 35.3565C49.9613 36.9521 48.1909 37.5318 47.2923 44C46.0503 37.4488 44.9436 36.8691 40 35.4627" fill="white"/>
<path fill-rule="evenodd" clip-rule="evenodd" d="M110 65.4637C115.681 64.8011 116.493 62.8989 117.547 57C118.283 62.5963 119.223 64.719 125 65.3572C119.961 66.953 118.19 67.5318 117.291 74C116.051 67.4488 114.944 66.8701 110 65.4637" fill="white"/>
<path fill-rule="evenodd" clip-rule="evenodd" d="M138 42.4846C140.651 42.2122 141.029 41.4285 141.522 39C141.865 41.3044 142.304 42.1786 145 42.4408C142.648 43.0985 141.822 43.3364 141.403 46C140.823 43.3028 140.306 43.064 138 42.4846" fill="white"/>
<path fill-rule="evenodd" clip-rule="evenodd" d="M111 3.48479C113.651 3.2123 114.03 2.42867 114.522 0C114.866 2.30432 115.304 3.17825 118 3.44095C115.648 4.09807 114.822 4.33661 114.403 7C113.823 4.30247 113.307 4.06402 111 3.48479" fill="white"/>
</svg>
