<svg width="44" height="52" viewBox="0 0 44 52" fill="none" xmlns="http://www.w3.org/2000/svg">
<path d="M22.3284 52C36.8361 52 44 40.1198 44 25.7604C44 11.401 36.8361 0 22.3284 0C7.82058 0 0 11.401 0 25.7604C0 40.1198 7.82058 52 22.3284 52Z" fill="#E0D7A5"/>
<path d="M35 39.7597C34.0615 41.3654 32.5365 42.8068 30.4249 44.0841C28.3133 45.3614 25.6152 46 22.3306 46C18.0323 46 14.5694 44.7319 11.9416 42.1956C9.31386 39.6593 8 36.0465 8 31.3571V19.5334C8 14.917 9.24816 11.3407 11.7445 8.80441C14.2409 6.26812 17.5537 5 21.683 5C25.8686 5 29.0688 6.02636 31.2836 8.07911C33.4984 10.1319 34.6809 13.0102 34.8311 16.7143V23.4972H29.2847C29.23 22.051 29.7075 17.8196 29.2847 14.9005C28.982 12.8107 27.8769 11.7535 27.3561 11.213C26.1079 9.91744 24.2451 9.26969 21.7675 9.26969C19.2711 9.26969 17.3003 10.141 15.8551 11.8835C14.4098 13.6261 13.6872 16.1577 13.6872 19.4786V31.3571C13.6872 34.751 14.4614 37.3374 16.0099 39.1165C17.5584 40.8955 19.6653 41.785 22.3306 41.785C24.2826 41.785 25.7982 41.4612 26.8775 40.8134C27.9567 40.1657 28.7591 39.34 29.2847 38.3364V29.277H22.2742V25.2537H35V39.7597Z" fill="white"/>
</svg>
