<svg width="438" height="217" viewBox="0 0 438 217" fill="none" xmlns="http://www.w3.org/2000/svg">
<path fill-rule="evenodd" clip-rule="evenodd" d="M210.078 212C216.27 209.907 311.639 140.949 317.749 129.509C318.317 128.447 320.486 121.56 317.309 120.937C295.705 116.698 250.657 104.97 247.72 107.304C244.326 110.003 110.367 182.716 111.002 195.084C111.643 207.555 210.078 212 210.078 212" fill="#50505B"/>
<path fill-rule="evenodd" clip-rule="evenodd" d="M210.421 205C216.602 202.878 325.642 122.01 317.574 120.132C309.505 118.254 247.801 98.5224 244.411 101.26C241.022 103.998 106.777 189.541 113.225 193.159C119.673 196.779 210.421 205 210.421 205" fill="#DBDBDD"/>
<path fill-rule="evenodd" clip-rule="evenodd" d="M233.42 112.423C231.889 98.9629 232.79 14.4771 267.376 14.0021C282.309 13.797 281.817 28.5001 286.287 50.1333C288.313 59.9377 372.44 61.6033 368.891 81.1415C364.445 105.62 288.153 70.478 288.163 78.9394C288.189 101.237 288.891 112.031 287.868 112.164C282.417 112.866 270.546 114.159 270.795 110.76C271.044 107.363 274.565 77.1428 260.252 77.8775C245.939 78.6123 253.495 105.682 251.543 110.859C250.459 113.737 233.42 112.423 233.42 112.423" fill="#3B3B4D"/>
<path fill-rule="evenodd" clip-rule="evenodd" d="M231.935 114.425C230.396 100.993 222.208 12.4756 256.94 12.0016C271.936 11.797 280.535 30.6833 285.024 52.2698C287.058 62.0529 369.538 63.4554 367.978 83.2107C366.437 102.709 286.897 72.5701 286.907 81.0131C286.936 103.263 287.641 114.033 286.611 114.166C281.137 114.866 269.218 116.156 269.468 112.765C269.718 109.376 273.251 79.2205 258.878 79.9537C244.505 80.6868 252.093 107.698 250.134 112.863C249.044 115.735 231.935 114.425 231.935 114.425" fill="#AAAAAF"/>
<path fill-rule="evenodd" clip-rule="evenodd" d="M278.033 137C284.323 135.269 345.157 92.8553 351.951 81.6389C352.583 80.5969 354.312 77.9382 351.188 77.1045C329.955 71.4343 265.13 57.0427 262.062 59.2229C258.516 61.7448 169.103 111.431 175.309 115.458C181.512 119.485 278.033 137 278.033 137" fill="#50505B"/>
<path fill-rule="evenodd" clip-rule="evenodd" d="M275.828 134C282.168 132.271 360.418 79.5094 352.428 77.1188C344.44 74.728 263.31 53.6871 259.735 56.2095C256.161 58.7319 166.057 108.428 172.311 112.456C178.563 116.484 275.828 134 275.828 134" fill="#DBDBDD"/>
<path fill-rule="evenodd" clip-rule="evenodd" d="M221.187 87.0615C228.356 89.212 260.422 98.7139 264.351 97.6656C268.28 96.6193 253.281 114.981 248.639 115C243.995 115.017 205.294 104.672 206.01 101.14C206.723 97.6088 217.841 86.0581 221.187 87.0615" fill="#3EB58A"/>
<path fill-rule="evenodd" clip-rule="evenodd" d="M222.17 88.3072L222.104 88.5476C225.08 89.442 233.33 92.0763 241.511 94.4861C245.603 95.6916 249.679 96.8396 253.074 97.6895C254.772 98.1144 256.299 98.4632 257.575 98.7064C258.853 98.9495 259.875 99.089 260.583 99.089C260.854 99.089 261.079 99.07 261.266 99.0214C261.356 98.996 261.424 98.9876 261.47 98.9876C261.502 98.9876 261.52 98.9918 261.528 98.9939L261.534 98.996L261.544 98.9749L261.528 98.9918L261.534 98.996L261.544 98.9749L261.528 98.9918L261.555 98.9643L261.522 98.9854L261.528 98.9918L261.555 98.9643L261.522 98.9854L261.536 98.9749L261.52 98.9812L261.522 98.9854L261.536 98.9749L261.52 98.9812C261.522 98.9812 261.524 98.9939 261.524 99.0193C261.526 99.0827 261.496 99.2222 261.422 99.3977C261.282 99.7338 261.003 100.205 260.617 100.757C259.263 102.698 256.604 105.653 253.929 108.11C252.592 109.338 251.25 110.444 250.066 111.237C249.474 111.634 248.924 111.951 248.436 112.169C247.951 112.387 247.529 112.499 247.21 112.499H247.212H247.202C246.97 112.501 246.606 112.465 246.141 112.395C244.393 112.133 241.206 111.4 237.423 110.402C231.746 108.903 224.719 106.81 219.116 104.816C216.315 103.818 213.87 102.846 212.135 101.988C211.268 101.558 210.579 101.159 210.12 100.808C209.889 100.634 209.718 100.472 209.612 100.334C209.56 100.264 209.524 100.205 209.502 100.155C209.482 100.104 209.476 100.066 209.476 100.038L209.478 100.007C209.542 99.6852 209.73 99.2412 210.021 98.7339C210.531 97.8438 211.35 96.7487 212.333 95.6155C213.808 93.9149 215.656 92.1236 217.396 90.7646C218.265 90.0852 219.11 89.5139 219.86 89.1163C220.611 88.7171 221.271 88.4979 221.749 88.5C221.881 88.5 222.002 88.5165 222.104 88.5476L222.17 88.3072L222.234 88.0668C222.082 88.0207 221.919 88 221.749 88C221.285 88.0008 220.766 88.1493 220.196 88.4017C219.198 88.8446 218.046 89.6152 216.86 90.5634C215.082 91.9858 213.232 93.8081 211.771 95.5246C211.041 96.3829 210.409 97.2138 209.929 97.958C209.452 98.7064 209.124 99.3596 209.014 99.903V99.9009C209.004 99.9474 209 99.9939 209 100.038C209 100.197 209.052 100.347 209.132 100.484C209.289 100.751 209.552 100.998 209.909 101.264C210.579 101.759 211.597 102.303 212.879 102.888C217.368 104.93 225.122 107.453 232.166 109.469C235.688 110.478 239.031 111.359 241.698 111.989C243.032 112.304 244.196 112.556 245.131 112.729C246.068 112.903 246.767 113 247.202 113H247.212C247.722 112.996 248.31 112.797 248.972 112.463C250.126 111.877 251.505 110.865 252.934 109.647C255.075 107.82 257.326 105.529 259.046 103.529C259.907 102.527 260.635 101.599 261.153 100.831C261.41 100.446 261.617 100.104 261.763 99.8057C261.835 99.6556 261.894 99.5182 261.934 99.3892C261.974 99.2603 262 99.1398 262 99.0193C262 98.9516 261.992 98.8818 261.968 98.8142C261.936 98.7127 261.862 98.6155 261.767 98.5605C261.673 98.5055 261.573 98.4886 261.47 98.4886C261.37 98.4886 261.266 98.5055 261.149 98.5351C261.025 98.569 260.83 98.5901 260.583 98.5901C259.933 98.5901 258.924 98.4569 257.659 98.2138C253.235 97.3702 245.675 95.2244 238.581 93.0948C231.484 90.9651 224.847 88.8518 222.234 88.0666L222.17 88.3072" fill="#1B5B44"/>
<path fill-rule="evenodd" clip-rule="evenodd" d="M238.181 103.644L238.062 103.317C236.389 103.927 234.608 104.304 232.985 104.302C231.456 104.304 230.074 103.969 229.035 103.217C228.569 102.882 228.234 102.513 228.017 102.134C227.8 101.753 227.697 101.361 227.697 100.964C227.697 100.439 227.878 99.8987 228.254 99.3743C228.633 98.8498 229.208 98.3432 229.982 97.9125C231.34 97.1567 233.059 96.696 234.84 96.696C236.654 96.698 238.53 97.1706 240.18 98.2774C240.58 98.5466 240.861 98.8418 241.04 99.1429C241.222 99.446 241.303 99.7552 241.305 100.074C241.305 100.633 241.04 101.243 240.495 101.819C239.949 102.396 239.127 102.928 238.062 103.317L238.181 103.644L238.301 103.973C239.448 103.552 240.361 102.972 240.999 102.3C241.636 101.63 242 100.858 242 100.074C242 99.6315 241.881 99.1888 241.638 98.786C241.397 98.3811 241.038 98.0142 240.566 97.6991C238.791 96.5065 236.774 96 234.84 96C232.939 96 231.113 96.4866 229.644 97.3042C228.796 97.7749 228.139 98.3412 227.691 98.9674C227.241 99.5896 227 100.276 227 100.964C227 101.484 227.139 102.001 227.414 102.479C227.689 102.96 228.095 103.399 228.627 103.784C229.829 104.649 231.358 105 232.985 105C234.715 105 236.565 104.605 238.301 103.973L238.181 103.644" fill="#1B5B44"/>
<path fill-rule="evenodd" clip-rule="evenodd" d="M232.575 100.222L232.579 100.224C232.803 100.351 233.403 100.433 233.637 100.523C234.204 100.74 233.867 101.3 232.752 101.075H232.746C232.275 101.091 231.92 100.985 231.616 100.834C230.929 100.492 230.517 99.92 229.687 100.021C228.384 100.58 229.104 101.205 230.441 101.62C230.737 101.711 231.063 101.793 231.404 101.86C233.566 102.293 235.705 101.64 235.811 101.027C235.917 100.407 235.252 100.214 234.675 99.8596C234.361 99.6669 233.602 99.4921 233.431 99.4056C233.017 99.1966 233.386 98.7622 234.469 99.0414H234.485C234.828 99.0676 235.205 99.1623 235.554 99.288C236.078 99.4774 236.541 99.7404 236.745 99.9543C238.334 99.9559 238.328 99.1165 237.212 98.7377C237.063 98.6528 236.908 98.5744 236.749 98.5058C236.457 98.3784 236.15 98.2772 235.835 98.2004C232.962 97.4933 229.564 98.7736 232.575 100.222" fill="#1B5B44"/>
<path fill-rule="evenodd" clip-rule="evenodd" d="M236.121 97.0762C237.003 96.8023 237.153 97.3439 236.871 97.491C236.588 97.6402 230.872 103.234 230.3 102.992C229.728 102.751 229.995 102.584 230.914 101.689C231.928 100.702 236.121 97.0762 236.121 97.0762" fill="#1B5B44"/>
<path fill-rule="evenodd" clip-rule="evenodd" d="M248.113 104.775C246.826 105.962 244.613 106.354 243.172 105.651C241.728 104.945 241.601 103.413 242.887 102.225C244.173 101.038 246.387 100.646 247.83 101.349C249.271 102.053 249.399 103.587 248.113 104.775" fill="#1B5B44"/>
<path fill-rule="evenodd" clip-rule="evenodd" d="M223.982 97.9918C222.739 99.1 220.842 99.3293 219.748 98.5066C218.654 97.6816 218.774 96.117 220.018 95.0088C221.261 93.9006 223.156 93.6699 224.252 94.494C225.346 95.3168 225.226 96.8836 223.982 97.9918" fill="#1B5B44"/>
<path fill-rule="evenodd" clip-rule="evenodd" d="M219 88.962C219 88.962 228.258 92.1438 230.112 91.9949C231.964 91.8458 233 91.1716 233 91.1716L221.367 88L219 88.962" fill="#1B5B44"/>
<path fill-rule="evenodd" clip-rule="evenodd" d="M233 108.421C235.242 107.551 236.135 106.8 237.359 107.048C238.583 107.298 250.535 110.163 249.981 110.555C249.428 110.947 247.877 112.08 246.982 111.996C246.085 111.909 233.732 108.65 233.732 108.65L233 108.421" fill="#1B5B44"/>
<path fill-rule="evenodd" clip-rule="evenodd" d="M245.414 72.0549C252.22 73.975 282.656 82.4588 286.384 81.5243C290.112 80.59 275.876 96.9841 271.471 97C267.065 97.0159 230.332 87.7797 231.009 84.6262C231.687 81.4728 242.239 71.1592 245.414 72.0549" fill="#3EB58A"/>
<path fill-rule="evenodd" clip-rule="evenodd" d="M245.673 73.2826L245.611 73.5039C248.474 74.3267 256.412 76.7502 264.286 78.9673C268.223 80.076 272.144 81.1333 275.412 81.914C277.045 82.3044 278.514 82.6259 279.742 82.85C280.971 83.074 281.956 83.202 282.635 83.2024C282.897 83.2022 283.114 83.1843 283.294 83.1387C283.38 83.1169 283.445 83.1084 283.49 83.1087C283.521 83.1084 283.54 83.1124 283.548 83.115L283.552 83.1167L283.562 83.0971L283.546 83.1126L283.552 83.1167L283.562 83.0971L283.546 83.1126L283.572 83.0864L283.542 83.1058L283.546 83.1126L283.572 83.0864L283.542 83.1058L283.554 83.0969L283.54 83.1033L283.542 83.1058L283.554 83.0969L283.54 83.1033C283.54 83.1033 283.544 83.1136 283.544 83.1375C283.546 83.1958 283.515 83.3238 283.443 83.4865C283.31 83.7942 283.04 84.2287 282.668 84.7373C281.366 86.5229 278.809 89.2415 276.234 91.5006C274.947 92.6307 273.656 93.6475 272.516 94.3773C271.947 94.7423 271.417 95.0354 270.949 95.2353C270.482 95.4353 270.075 95.5404 269.77 95.5404H269.76C269.537 95.5404 269.187 95.5074 268.741 95.4435C267.059 95.2024 263.991 94.5267 260.351 93.6085C254.889 92.2311 248.126 90.3054 242.734 88.4702C240.039 87.5528 237.686 86.6572 236.018 85.8685C235.183 85.4746 234.52 85.1061 234.076 84.7835C233.855 84.6227 233.692 84.4731 233.589 84.347C233.487 84.2202 233.456 84.1246 233.456 84.0751L233.46 84.0462V84.0456C233.522 83.7495 233.704 83.3422 233.984 82.8755C234.473 82.0567 235.261 81.049 236.209 80.0065C237.627 78.4417 239.405 76.7937 241.081 75.5436C241.918 74.9185 242.728 74.3929 243.45 74.027C244.173 73.66 244.809 73.4582 245.268 73.46C245.397 73.46 245.511 73.4751 245.611 73.5039L245.673 73.2826L245.736 73.0614C245.589 73.0192 245.431 73 245.268 73C244.824 73.001 244.322 73.1373 243.774 73.3696C242.814 73.777 241.705 74.4861 240.563 75.3583C238.852 76.6671 237.072 78.3436 235.668 79.9222C234.964 80.7118 234.357 81.4765 233.896 82.162C233.436 82.8494 233.121 83.45 233.014 83.95V83.9494C233.004 83.991 233 84.0333 233 84.0751C233 84.2214 233.051 84.3585 233.127 84.4851C233.278 84.7301 233.53 84.9583 233.876 85.2034C234.52 85.6591 235.499 86.1591 236.735 86.697C241.052 88.5763 248.513 90.8965 255.292 92.7523C258.681 93.6798 261.9 94.4902 264.466 95.0696C265.749 95.359 266.868 95.5919 267.769 95.7506C268.669 95.9114 269.342 96 269.76 96H269.77C270.261 95.9959 270.826 95.8124 271.462 95.5053C272.575 94.9659 273.899 94.0349 275.275 92.9143C277.337 91.2337 279.502 89.1271 281.158 87.2855C281.986 86.3644 282.686 85.5102 283.184 84.8041C283.433 84.4508 283.632 84.1349 283.773 83.8608C283.842 83.7235 283.898 83.5967 283.937 83.478C283.975 83.3593 284 83.2486 284 83.1375C284 83.0751 283.992 83.0118 283.969 82.9491C283.939 82.8549 283.867 82.7655 283.777 82.716C283.687 82.6653 283.589 82.6486 283.49 82.6486C283.394 82.6486 283.294 82.6645 283.181 82.6927C283.063 82.7238 282.875 82.7428 282.635 82.7424C282.011 82.743 281.039 82.6196 279.823 82.3974C275.565 81.6203 268.293 79.6462 261.464 77.6871C254.636 75.7279 248.249 73.7838 245.736 73.0614L245.673 73.2826" fill="#1B5B44"/>
<path fill-rule="evenodd" clip-rule="evenodd" d="M260.436 87.6448L260.323 87.3172C258.764 87.9277 257.101 88.3035 255.585 88.3028C254.157 88.3033 252.869 87.9698 251.898 87.2181C251.463 86.8829 251.152 86.5137 250.949 86.1336C250.746 85.7525 250.65 85.3607 250.65 84.9632C250.65 84.4402 250.817 83.8998 251.17 83.3743C251.522 82.8495 252.06 82.344 252.783 81.9134C254.049 81.1572 255.654 80.6965 257.316 80.6972C259.01 80.6974 260.762 81.1714 262.3 82.2777C262.675 82.5465 262.937 82.8415 263.104 83.1433C263.273 83.4459 263.35 83.7553 263.35 84.075C263.352 84.6338 263.104 85.243 262.594 85.8202C262.086 86.396 261.318 86.929 260.323 87.3172L260.436 87.6448L260.546 87.9721C261.619 87.553 262.47 86.9719 263.067 86.3001C263.659 85.6298 264 84.8578 264 84.075C264 83.6308 263.888 83.1891 263.663 82.7855C263.437 82.381 263.102 82.0144 262.663 81.6986C261.003 80.5063 259.122 79.9998 257.316 80C255.542 80.0006 253.838 80.4867 252.468 81.3039C251.676 81.7758 251.063 82.3424 250.644 82.9668C250.225 83.5904 250 84.2762 250 84.9632C250 85.4842 250.13 86.0015 250.386 86.4801C250.642 86.9592 251.022 87.3998 251.518 87.7838C252.639 88.6492 254.067 88.9996 255.585 89C257.2 88.9996 258.927 88.6046 260.546 87.9721L260.436 87.6448" fill="#1B5B44"/>
<path fill-rule="evenodd" clip-rule="evenodd" d="M256.178 85.2228L256.182 85.224C256.38 85.3504 256.914 85.4331 257.123 85.5228C257.626 85.7399 257.327 86.2987 256.336 86.0736L256.332 86.0742C255.913 86.0906 255.596 85.9845 255.325 85.8335C254.714 85.4908 254.348 84.9195 253.612 85.0212C252.452 85.5804 253.091 86.2048 254.282 86.6195C254.545 86.7105 254.833 86.7922 255.137 86.8602C257.06 87.2924 258.959 86.6401 259.053 86.0278C259.15 85.4067 258.558 85.2143 258.045 84.8594C257.765 84.6665 257.092 84.4916 256.939 84.4056C256.57 84.1971 256.898 83.7625 257.863 84.0425L257.876 84.0409C258.181 84.0677 258.516 84.1618 258.825 84.2883V84.2887C259.292 84.4776 259.705 84.7399 259.885 84.9546C261.297 84.9563 261.291 84.117 260.298 83.7376C260.168 83.6523 260.029 83.5755 259.889 83.5061C259.628 83.3789 259.355 83.2779 259.077 83.2006C256.524 82.4931 253.502 83.7738 256.178 85.2228" fill="#1B5B44"/>
<path fill-rule="evenodd" clip-rule="evenodd" d="M260.122 82.0632C261.003 81.8357 261.152 82.2863 260.871 82.4095C260.588 82.5329 254.872 87.1945 254.3 86.9937C253.728 86.7929 253.996 86.6532 254.914 85.9074C255.927 85.0836 260.122 82.0632 260.122 82.0632" fill="#1B5B44"/>
<path fill-rule="evenodd" clip-rule="evenodd" d="M271.113 88.7747C269.826 89.9621 267.614 90.3542 266.171 89.6501C264.727 88.9463 264.602 87.4128 265.888 86.2254C267.175 85.0378 269.387 84.6459 270.829 85.3498C272.272 86.0538 272.399 87.5871 271.113 88.7747" fill="#1B5B44"/>
<path fill-rule="evenodd" clip-rule="evenodd" d="M247.983 82.1932C246.739 83.0795 244.843 83.2639 243.748 82.605C242.654 81.946 242.774 80.6933 244.017 79.8068C245.261 78.9205 247.157 78.7361 248.252 79.395C249.346 80.054 249.226 81.3067 247.983 82.1932" fill="#1B5B44"/>
<path fill-rule="evenodd" clip-rule="evenodd" d="M243 74.2025C243 74.2025 251.598 78.1797 253.319 77.9937C255.04 77.8076 256 76.9648 256 76.9648L245.199 73L243 74.2025" fill="#1B5B44"/>
<path fill-rule="evenodd" clip-rule="evenodd" d="M257 92.1378C258.979 91.4408 259.768 90.8396 260.847 91.0386C261.928 91.2379 272.474 93.5298 271.983 93.8437C271.495 94.1574 270.127 95.0656 269.337 94.9962C268.546 94.9289 257.648 92.3197 257.648 92.3197L257 92.1378" fill="#1B5B44"/>
<path fill-rule="evenodd" clip-rule="evenodd" d="M264.9 55.0549C271.463 56.9752 300.811 65.4584 304.406 64.5242C308.001 63.5898 294.274 79.984 290.025 80C285.776 80.0158 250.355 70.7793 251.009 67.626C251.663 64.4725 261.839 54.1593 264.9 55.0549" fill="#3EB58A"/>
<path fill-rule="evenodd" clip-rule="evenodd" d="M265.679 57.258L265.621 57.46C268.261 58.2114 275.577 60.424 282.832 62.4483C286.46 63.4607 290.073 64.4261 293.083 65.139C294.589 65.4955 295.943 65.7889 297.076 65.9935C298.208 66.1982 299.115 66.3148 299.743 66.3154C299.982 66.315 300.183 66.2987 300.35 66.2572C300.428 66.2372 300.49 66.2294 300.529 66.2296C300.558 66.2296 300.576 66.2331 300.582 66.2354L300.586 66.237L300.595 66.2189L300.582 66.2333L300.586 66.237L300.595 66.2189L300.582 66.2333L300.605 66.2094L300.576 66.2269L300.582 66.2333L300.605 66.2094L300.576 66.2269L300.589 66.2189L300.576 66.2248V66.2269L300.589 66.2189L300.576 66.2248C300.576 66.2248 300.58 66.2341 300.578 66.2558C300.58 66.3092 300.553 66.4261 300.486 66.5746C300.364 66.8556 300.115 67.2523 299.772 67.7167C298.572 69.3469 296.216 71.8292 293.842 73.892C292.657 74.9237 291.467 75.8522 290.418 76.5186C289.893 76.8517 289.404 77.1195 288.972 77.3018C288.542 77.4847 288.167 77.5796 287.885 77.5798H287.887H287.877C287.671 77.58 287.348 77.5501 286.937 77.4913C285.387 77.2713 282.56 76.6551 279.205 75.8167C274.172 74.5589 267.94 72.8006 262.971 71.125C260.489 70.2874 258.319 69.4698 256.78 68.7494C256.012 68.3898 255.401 68.0534 254.992 67.7588C254.79 67.612 254.638 67.4753 254.545 67.3604C254.449 67.2445 254.42 67.1571 254.422 67.1121L254.424 67.0861V67.0851C254.481 66.8148 254.648 66.4428 254.907 66.0168C255.358 65.2691 256.084 64.3492 256.957 63.3972C258.265 61.9684 259.903 60.4638 261.446 59.3224C262.218 58.7515 262.965 58.2716 263.631 57.9376C264.296 57.6025 264.882 57.4182 265.306 57.42C265.425 57.42 265.53 57.4338 265.621 57.46L265.738 57.0561C265.602 57.0173 265.456 57 265.306 57C264.895 57.0008 264.434 57.1254 263.928 57.3373C263.045 57.7095 262.024 58.3568 260.971 59.1532C259.393 60.3481 257.753 61.8789 256.459 63.3203C255.811 64.041 255.249 64.7394 254.825 65.3652C254.401 65.9927 254.113 66.5414 254.014 66.9979V66.9969C254.004 67.0354 254 67.0742 254 67.1121C254.002 67.2456 254.047 67.3707 254.119 67.4864C254.257 67.7101 254.49 67.9186 254.807 68.1421C255.403 68.5584 256.304 69.0148 257.442 69.5061C261.422 71.2219 268.296 73.3403 274.544 75.0348C277.668 75.8817 280.631 76.6217 282.997 77.1505C284.18 77.415 285.211 77.6266 286.04 77.7726C286.871 77.9183 287.492 77.9992 287.877 78H287.887C288.338 77.9967 288.859 77.8288 289.447 77.5484C290.47 77.056 291.692 76.206 292.959 75.1829C294.86 73.6483 296.854 71.7247 298.381 70.0433C299.144 69.2022 299.79 68.4225 300.247 67.7776C300.477 67.4551 300.66 67.1666 300.79 66.9164C300.854 66.7909 300.905 66.6752 300.942 66.5669C300.977 66.4583 301 66.3576 301 66.2558C301 66.1989 300.992 66.1411 300.973 66.084C300.944 65.998 300.875 65.9162 300.794 65.871C300.71 65.8248 300.621 65.8096 300.529 65.8094C300.442 65.8096 300.348 65.8242 300.245 65.85C300.134 65.8784 299.963 65.8957 299.743 65.8953C299.165 65.8958 298.27 65.783 297.152 65.5801C293.227 64.8707 286.525 63.0683 280.233 61.2795C273.939 59.4907 268.053 57.7155 265.736 57.0561L265.679 57.258" fill="#1B5B44"/>
<path fill-rule="evenodd" clip-rule="evenodd" d="M279.436 69.7953L279.324 69.504C277.764 70.0467 276.1 70.3808 274.586 70.3802C273.157 70.3806 271.869 70.0843 270.898 69.416C270.463 69.1181 270.152 68.79 269.949 68.452C269.746 68.1134 269.648 67.7652 269.648 67.4116C269.648 66.9467 269.817 66.4666 270.17 65.9994C270.522 65.5329 271.058 65.0834 271.782 64.7007C273.05 64.0285 274.653 63.6192 276.317 63.6196C278.01 63.6198 279.761 64.0411 281.301 65.0247C281.675 65.2637 281.937 65.5257 282.106 65.7939C282.273 66.0629 282.35 66.338 282.352 66.6223C282.352 67.1188 282.106 67.6603 281.594 68.1735C281.086 68.6852 280.318 69.159 279.324 69.504L279.436 69.7953L279.546 70.0864C280.619 69.7137 281.472 69.1972 282.065 68.6001C282.659 68.0041 283 67.318 283 66.6223C283.002 66.2273 282.888 65.8348 282.663 65.4759C282.437 65.1164 282.102 64.7906 281.663 64.5098C280.003 63.45 278.121 62.9998 276.317 63C274.543 63.0006 272.838 63.4326 271.467 64.159C270.674 64.5784 270.063 65.0821 269.642 65.6371C269.224 66.1914 268.998 66.801 269 67.4116C268.998 67.8747 269.128 68.3348 269.384 68.7602C269.64 69.186 270.02 69.5775 270.518 69.9189C271.639 70.6882 273.066 70.9996 274.586 71C276.199 70.9994 277.926 70.6486 279.546 70.0864L279.436 69.7953" fill="#1B5B44"/>
<path fill-rule="evenodd" clip-rule="evenodd" d="M274.781 67.7785L274.782 67.7798C274.958 67.938 275.424 68.0413 275.606 68.1533C276.048 68.4247 275.785 69.1233 274.918 68.8419L274.914 68.8426C274.548 68.8633 274.271 68.7306 274.035 68.5418C273.499 68.1134 273.18 67.3994 272.535 67.5264C271.52 68.2254 272.08 69.0059 273.121 69.5245C273.352 69.6382 273.605 69.7402 273.87 69.8252C275.551 70.3654 277.215 69.5501 277.297 68.7846C277.38 68.0085 276.863 67.7678 276.414 67.3242C276.17 67.0832 275.58 66.8646 275.447 66.757C275.124 66.4964 275.412 65.9531 276.253 66.3029L276.267 66.3012C276.534 66.3346 276.827 66.4524 277.098 66.6104V66.6109C277.505 66.8469 277.866 67.1749 278.024 67.4431C279.26 67.4454 279.255 66.3962 278.386 65.9221C278.272 65.8154 278.152 65.7192 278.027 65.6327C277.8 65.4736 277.561 65.3475 277.318 65.2509L277.316 65.2507C275.082 64.3664 272.438 65.9671 274.781 67.7785" fill="#1B5B44"/>
<path fill-rule="evenodd" clip-rule="evenodd" d="M278.121 65.0632C279.003 64.8357 279.153 65.2862 278.871 65.4097C278.589 65.5329 272.872 70.1947 272.3 69.9937C271.728 69.7928 271.996 69.6532 272.914 68.9073C273.927 68.0835 278.121 65.0632 278.121 65.0632" fill="#1B5B44"/>
<path fill-rule="evenodd" clip-rule="evenodd" d="M290.111 71.7746C288.825 72.9621 286.613 73.3542 285.171 72.6502C283.728 71.9462 283.601 70.4129 284.887 69.2254C286.173 68.0379 288.387 67.6458 289.83 68.3498C291.272 69.0536 291.399 70.5869 290.111 71.7746" fill="#1B5B44"/>
<path fill-rule="evenodd" clip-rule="evenodd" d="M267.982 65.193C266.739 66.0795 264.844 66.264 263.748 65.6049C262.654 64.9459 262.774 63.6931 264.018 62.8068C265.261 61.9205 267.158 61.7361 268.252 62.3949C269.346 63.054 269.226 64.3067 267.982 65.193" fill="#1B5B44"/>
<path fill-rule="evenodd" clip-rule="evenodd" d="M263 57.7215C263 57.7215 270.936 60.1078 272.524 59.9962C274.113 59.8845 275 59.3787 275 59.3787L265.03 57L263 57.7215" fill="#1B5B44"/>
<path fill-rule="evenodd" clip-rule="evenodd" d="M276 75.1375C277.979 74.4409 278.766 73.8396 279.848 74.0386C280.928 74.2379 291.474 76.5294 290.983 76.8431C290.495 77.157 289.128 78.0649 288.338 77.9963C287.546 77.9279 276.647 75.3195 276.647 75.3195L276 75.1375" fill="#1B5B44"/>
<path fill-rule="evenodd" clip-rule="evenodd" d="M164.996 47.7681C177.518 41.274 241.453 16.593 252.419 11.693C274.474 1.83752 300.61 37.2621 273.283 59.7967C245.957 82.3314 212.054 100.691 199.64 108.438C156.634 135.273 116.83 72.7489 164.996 47.7681" fill="white"/>
<path fill-rule="evenodd" clip-rule="evenodd" d="M196.789 74.0442C200.935 88.2352 194.094 102.63 181.509 106.195C168.922 109.761 155.359 101.147 151.211 86.9558C147.065 72.7647 153.908 58.3703 166.493 54.8049C179.078 51.2393 192.643 59.8531 196.789 74.0442" fill="#83838C"/>
<path fill-rule="evenodd" clip-rule="evenodd" d="M154.105 191.318C152.89 180.63 135.928 107.358 144.324 77.6786C147.45 66.6267 157.3 58.1425 167.511 58.0018C183.761 57.7784 193.078 78.4068 197.944 101.984C200.147 112.67 289.67 115.23 287.976 136.807C287.542 142.359 280.377 146.115 271.48 146.004C246.243 145.695 199.977 126.561 199.985 133.379C200.013 157.683 200.442 190.661 200.53 192.381C200.588 193.516 199.06 195.948 197.279 195.996C192.698 196.12 191.445 193.438 191.671 190.353C191.941 186.65 186.311 150.182 170.736 150.983C155.16 151.783 163.16 183.276 161.253 188.997C159.419 194.495 154.105 191.318 154.105 191.318" fill="#3B3B4D"/>
<path fill-rule="evenodd" clip-rule="evenodd" d="M138.592 188.417C136.932 173.667 126.466 60.5222 163.995 60.0018C180.199 59.7772 189.491 80.5174 194.341 104.223C196.54 114.967 285.665 116.506 283.976 138.202C283.04 150.249 255.42 145.041 231.445 139.831C212.808 135.782 196.373 131.733 196.377 135.788C196.406 160.224 198.304 195.636 197.193 195.781C191.277 196.551 178.374 195.322 178.644 191.601C178.913 187.878 182.741 152.682 167.21 153.488C151.679 154.292 159.871 186.035 157.754 191.708C156.576 194.86 138.592 188.417 138.592 188.417" fill="#AAAAAF"/>
<path fill-rule="evenodd" clip-rule="evenodd" d="M159.022 82.7907C159.305 88.0347 162.211 92.1558 165.512 91.9955C168.814 91.8351 171.262 87.4538 170.978 82.2095C170.695 76.9653 167.789 72.8442 164.488 73.0045C161.185 73.1649 158.74 77.5464 159.022 82.7907" fill="#3B3B4C"/>
<path fill-rule="evenodd" clip-rule="evenodd" d="M72.1051 217C33.5026 217 0 214.434 0 212.226C0 210.018 33.5026 209 72.1051 209C110.707 209 142 210.791 142 212.999C142 215.209 110.707 217 72.1051 217" fill="#DCCDB7"/>
<path fill-rule="evenodd" clip-rule="evenodd" d="M132.033 91.3468C133.696 92.5421 130.453 92.5642 133.055 93.2898C136.69 94.3038 137.253 98.6485 138.993 100.088C140.493 101.326 140.543 102.291 144.847 101.919C147.465 101.694 147.379 96.517 146.554 95.2789C146.259 94.8371 146.68 95.0173 147.142 95.1994C147.709 95.4222 148.34 95.647 147.785 94.7092C146.862 93.1511 142.648 92.8696 141.06 92.041C138.643 90.7804 134.473 87.3395 133.345 87.0161C132.216 86.6929 132.033 91.3468 132.033 91.3468" fill="#EFAEA6"/>
<path fill-rule="evenodd" clip-rule="evenodd" d="M115.031 75.9634C118.116 79.0715 138.841 88.0095 139.873 88.5989C140.648 89.041 137.722 94.996 135.196 95C133.117 95.004 118.181 90.4686 108.096 83.1012C103.277 79.5804 94.2283 67.3397 84.3002 69.0758C81.8451 69.5049 83.1863 65.279 85.6751 61.0529C88.6885 55.9358 93.3846 50.8189 95.0619 53.9662C95.7722 55.2987 113.515 74.436 115.031 75.9634" fill="#0267A4"/>
<path fill-rule="evenodd" clip-rule="evenodd" d="M130.545 94C124.791 92.2864 115.077 88.5749 107.84 83.4652C105.26 81.6438 101.478 77.4265 97 74.1248C97.5284 72.4968 98.4357 68.8635 98.4365 64.927C98.4369 62.6072 98.1224 60.1818 97.23 58C102.379 63.6305 113.633 75.3441 114.831 76.5109C117.941 79.5391 138.832 88.2474 139.872 88.8215C139.961 88.8696 140 88.9841 140 89.1497C140.002 89.9893 138.961 92.1424 137.624 93.6042C133.957 93.6168 130.654 93.6697 130.553 93.9756C130.551 93.9836 130.549 93.9916 130.545 94" fill="#075A91"/>
<path fill-rule="evenodd" clip-rule="evenodd" d="M103.972 205.992C104.136 203.154 103.531 196 103.531 196L95 196.073L96.0183 206.808L101.826 210L103.972 205.992" fill="white"/>
<path fill-rule="evenodd" clip-rule="evenodd" d="M104.239 205.027C105.089 204.854 104.737 205.53 105.057 206.597C105.79 209.038 116.488 209.067 118.102 209.283C118.935 209.393 120.296 212.979 116.152 212.979C112.569 212.979 101.092 213.014 97.1708 212.994C96.3511 212.988 95.6322 212.529 95.4311 211.868C94.7133 209.511 94.8885 205.849 95.982 205.768C97.6337 205.321 100.697 205.742 104.239 205.027" fill="#1F1F39"/>
<path fill-rule="evenodd" clip-rule="evenodd" d="M29.9469 196.808C32.1091 195.027 37 189.839 37 189.839L32.2797 184L25 191.863L25.8473 198L29.9469 196.808" fill="white"/>
<path fill-rule="evenodd" clip-rule="evenodd" d="M30.9938 196.229C31.6839 196.688 30.8589 196.921 30.1088 197.883C28.392 200.085 35.1215 207.397 35.9494 208.647C36.3766 209.292 34.0331 212.725 31.4159 209.901C29.1531 207.458 21.8728 199.661 19.4152 196.974C18.9013 196.413 18.8582 195.601 19.321 195.003C20.9729 192.867 24.3545 190.43 25.1178 191.119C26.5588 191.932 28.1173 194.314 30.9938 196.229" fill="#1F1F39"/>
<path fill-rule="evenodd" clip-rule="evenodd" d="M80.4729 96C84.8899 107.96 97.2158 150.481 98.0992 156.723C98.9825 162.962 104.283 198.59 103.988 200.671C96.3323 202.231 93.2077 201.986 93.2077 201.986C92.3244 196.786 89.7588 169.4 86.0055 160.559C82.252 151.718 71.1219 125.777 71.1219 125.777C68.6535 137.218 67.4093 150.767 62.7231 162.8C55.4355 178.434 35.3797 194.168 35.3797 194.168C29.785 190.788 26.2515 187.667 27.135 187.408C31.5518 181.687 50.6916 165.044 51.575 158.283C52.4583 151.521 50.527 118.161 53.0786 101.709C53.3426 100.006 77.953 96.6221 77.953 96.6221L80.4729 96" fill="#3B3B4C"/>
<path fill-rule="evenodd" clip-rule="evenodd" d="M71.525 126.555C71.497 126.495 71.48 126.465 71.475 126.455C71.476 126.445 71.476 126.445 71.477 126.445C71.477 126.445 71.493 126.485 71.525 126.555" fill="#787175"/>
<path fill-rule="evenodd" clip-rule="evenodd" d="M75 134C73.3517 129.59 72.1163 126.317 72.0077 126.03C72.003 126.016 72.0006 126.009 72.0006 126.009C72.0004 126.009 72.0004 126.009 72.0003 126.011C72.0001 126.011 72 126.009 72 126.009C72.4973 122.783 72.8594 119 72.8594 119C72.8594 119 74.6609 128.485 75 134" fill="#2B2B41"/>
<path fill-rule="evenodd" clip-rule="evenodd" d="M52 122C52.1521 117.081 52.4532 112.293 53 108C52.4532 112.293 52.1525 117.081 52 122" fill="#B4A79D"/>
<path fill-rule="evenodd" clip-rule="evenodd" d="M52 126C52.0122 124.694 52.0297 123.391 52.0538 122.097C52.1405 117.452 52.3115 112.931 52.6225 108.877C53.3622 109.02 54.1105 109.085 54.8568 109.085C58.5869 109.085 62.2587 107.479 64.4712 106.179C65.1796 105.761 65.6642 105.38 66 105C63.207 114.412 55.0219 123.504 52 126" fill="#333347"/>
<path fill-rule="evenodd" clip-rule="evenodd" d="M82 55.724L89.1766 60C89.1766 60 94.4546 57.7616 93.4488 55.9864C92.6824 54.6339 92.6419 52.9514 92.8928 51.4111C93.1725 49.702 93.8122 48.1675 94.2214 47.4618C94.5218 46.9434 94.7547 46.7724 94.885 46.7162C94.9571 46.6846 94.9984 46.6902 95 46.6902L94.9207 46.6307L92.0289 44.4329L91.9678 44.067L91.4626 41C91.4626 41 88.9207 42.185 87.2499 44.9313C85.7264 47.4332 83.0815 52.7067 82 55.724" fill="#EFAEA6"/>
<path fill-rule="evenodd" clip-rule="evenodd" d="M94.8197 46V46L92.0584 44.3998L92 44.1334C92.3689 44.0449 92.6406 44 92.6406 44C92.6406 44 95.7721 44.1391 94.8197 46" fill="#CFC0B0"/>
<path fill-rule="evenodd" clip-rule="evenodd" d="M92.934 51C88.373 50.9771 88.2666 46.7608 90.1496 44.9072C90.5867 44.4759 91.4053 44.1737 91.9915 44L92.0537 44.3487L95 46.4436C94.9895 46.4701 94.9775 46.4978 94.9637 46.5251C94.8309 46.5787 94.5936 46.7416 94.2876 47.2357C93.8707 47.9084 93.2189 49.371 92.934 51" fill="#D19997"/>
<path fill-rule="evenodd" clip-rule="evenodd" d="M99.3927 38.3945C99.1867 40.723 100.885 45.4759 99.3536 45.253C97.8219 45.0303 98.9231 50.1732 97.2829 49.9955C93.3087 49.5654 89.1982 46.3827 89.0183 44.3745C88.8384 42.3664 90.0416 37 90.0416 37L99.3927 38.3945" fill="#EFAEA6"/>
<path fill-rule="evenodd" clip-rule="evenodd" d="M95.2131 40.0557C96.3063 40.3327 96.2951 40.5917 97.1429 40.3329C97.9906 40.074 96.8261 38.851 98.3267 38.8159C99.827 38.7805 101.444 38.9106 101.886 37.3219C102.526 35.0228 100.321 35.0964 98.9501 35.1872C98.0679 35.2455 98.1788 33.434 96.4642 33.2805C95.1191 33.1602 95.1398 33.9324 93.9333 33.876C93.2046 33.842 92.0084 32.5124 90.7383 33.1942C88.3824 34.4588 89.7732 36.5924 87.7483 38.0084C85.3863 39.6598 89.3143 44.3964 89.945 43.9734C90.6808 43.4798 90.1094 41.3597 90.8324 40.9787C91.9229 40.4039 91.9006 41.2121 92.5761 42.0551C93.2977 42.9556 94.8818 43.2185 94.1321 41.5664C93.3822 39.9142 94.2237 39.8048 95.2131 40.0557" fill="#191939"/>
<path fill-rule="evenodd" clip-rule="evenodd" d="M84.2486 48C87.1755 48.0623 87.721 52.977 89.8736 53.8023C91.1797 54.303 90.9401 51.8372 91.7526 51.4058C92.2527 51.1399 92.8278 51.066 93.1302 52.1074C98.0761 69.1438 80.3164 104.115 80.3164 104.115C80.3164 104.115 74.3238 107.613 60.6405 100.7C52.9551 96.8182 59.6981 92.3679 60.5168 90.5503C61.3354 88.7328 76.6425 53.0749 76.6425 53.0749C76.6425 53.0749 79.1259 50.4295 84.2486 48" fill="white"/>
<path fill-rule="evenodd" clip-rule="evenodd" d="M49 99C48.5731 99.4254 48.2256 99.7761 48 100C48.3176 99.709 48.6492 99.3731 49 99" fill="#0267A4"/>
<path fill-rule="evenodd" clip-rule="evenodd" d="M50.0282 99.0027C51.6107 97.5955 53.3487 95.5519 54.3717 93.4511C57.4611 87.1122 55.4298 87.0181 57.8913 82.4231C65.4051 66.0267 63.6925 53.9749 83.984 48C83.7686 51.4792 84.3884 60.9426 83.5201 68.7073C83.1595 71.9163 82.5471 74.8359 81.515 76.9248C81.4989 76.9563 81.4848 76.9915 81.4688 77.0231L81.4648 77.0281C79.3776 81.6993 74.3038 86.7014 71.6109 90.2976C70.6924 91.5278 69.8255 92.9383 69.076 94.3229C68.7674 94.8993 68.4786 95.4678 68.2139 96.0182C65.4116 101.899 68.2305 103.04 64.3894 105.226C60.35 107.522 51.3886 110.806 46.2332 103.584C45.1659 102.089 47.9938 100.14 50.0282 99.0027" fill="#0267A4"/>
<path fill-rule="evenodd" clip-rule="evenodd" d="M96.3041 74.8395C95.2008 77.2344 91.6024 80.5417 90.4217 83.8047C88.9648 87.841 88.7039 90.4841 88.4142 92.1249C87.7585 95.8474 85.0744 106.889 82.6389 109.967C80.0332 113.262 78.7872 112.021 77.5427 109.973C75.411 106.464 79.9806 93.4916 83.9281 84.2729C87.6835 75.4979 91.5916 70.7992 92.8354 62.9812C93.7751 57.067 92.7654 52 92.7654 52C101.368 57.9922 96.9204 73.5021 96.3041 74.8395" fill="#0267A4"/>
<path fill-rule="evenodd" clip-rule="evenodd" d="M84 107V107C85.0569 105.312 86.0873 103.171 87 101C86.0873 103.171 85.0569 105.312 84 107" fill="#C8BAAA"/>
<path fill-rule="evenodd" clip-rule="evenodd" d="M79.8235 112C79.5273 112 79.2555 111.9 79 111.722C79.2555 111.9 79.5273 112 79.8235 112C80.5536 112 81.4314 111.389 82.5737 109.813C83.0452 109.163 83.5266 108.185 84 107C83.5266 108.185 83.0452 109.165 82.5737 109.815C81.4314 111.389 80.5536 112 79.8235 112" fill="#363649"/>
<path fill-rule="evenodd" clip-rule="evenodd" d="M78 110C77.9435 109.938 77.8872 109.874 77.8307 109.81C77.2572 109.158 77.0003 108.195 77 107C77.0003 108.195 77.2572 109.158 77.8307 109.81C77.8872 109.874 77.9435 109.938 78 110" fill="#363649"/>
<path fill-rule="evenodd" clip-rule="evenodd" d="M79.8462 112C79.5466 112 79.2717 111.906 79.0133 111.737C79.0127 111.737 79.0121 111.737 79.0115 111.735C79.0058 111.733 79.0002 111.729 78.9946 111.725C78.9884 111.721 78.9824 111.717 78.9762 111.712H78.976C78.4951 111.386 78.0711 110.807 77.652 110.123C77.6151 110.063 77.5785 110.002 77.5416 109.94C77.1677 109.314 77.0002 108.39 77 107.242C76.9986 103.208 79.0595 96.404 81.4593 90C82.7913 91.3413 85.1222 92.6224 88 93.8111C87.5786 95.8002 86.9405 98.4556 86.1887 101.072C85.5443 103.317 84.8168 105.531 84.0707 107.276C83.5918 108.396 83.1049 109.32 82.628 109.934C81.4725 111.423 80.5847 112 79.8462 112" fill="#075A91"/>
<path fill-rule="evenodd" clip-rule="evenodd" d="M91.3254 82C91.3018 81.9672 91.2801 81.9348 91.2602 81.9026C90.8736 81.2736 89.9985 78.1095 89 74.129C90.7929 70.5402 92.2547 67.2028 92.9261 62.9277C93.8187 57.2376 92.921 52.3357 92.8604 52.0165C92.8584 52.0054 92.8573 52 92.8573 52C96.8849 54.8418 98.0008 59.8346 98 64.4267C97.9992 68.4785 97.1293 72.2183 96.6226 73.894C96.4986 74.3044 96.3962 74.5912 96.3339 74.7282C95.4336 76.7074 92.8425 79.3133 91.3254 82" fill="#075A91"/>
<path fill-rule="evenodd" clip-rule="evenodd" d="M69.5104 95C67.6056 90.4857 71.3903 78.101 74.9506 68C76.1672 72.8842 77.624 78.3765 79 82.6548C76.6674 85.6862 73.8937 88.5955 72.1212 90.923C71.1752 92.169 70.2824 93.5977 69.5104 95" fill="#075A91"/>
<path fill-rule="evenodd" clip-rule="evenodd" d="M136.09 99.1204C136.636 98.9658 138.268 99.2512 140.242 99.5386C142.705 99.8953 145.698 100.254 147.76 99.7526C147.835 99.7348 147.907 99.715 147.979 99.6971C149.519 99.3008 150.316 98.7954 150.467 98.1771C151.416 94.2614 155.058 86.8661 156.07 85.1235V85.1215C156.233 84.8411 156.464 84.6726 156.781 84.6441C157.899 84.545 159.483 84.6419 160.975 84.7388C162.529 84.8397 163.987 84.9406 164.719 84.8207C165.868 84.6326 166.874 84.9346 166.944 83.3341C166.962 82.929 167.06 82.3783 166.944 81.6904C166.396 78.4128 163.75 79.0472 162.366 79.0531C161.82 79.0553 161.264 79.044 160.698 79.0327C158.409 78.9867 155.936 78.9408 153.063 79.8019C152.95 79.8364 152.85 79.8936 152.764 79.9721L152.762 79.9745C151.214 81.3931 147.323 92.1965 146.6 93.6521C146.536 93.7815 146.202 93.887 145.684 93.9835C144.598 94.1876 142.643 94.0328 140.641 93.8785C137.296 93.6202 133.815 93.3622 134.008 94.7743C134.371 97.4359 134.315 99.6218 136.09 99.1204" fill="white"/>
<path fill-rule="evenodd" clip-rule="evenodd" d="M146.551 93.0011C143.974 93.3419 130.478 92.8962 130.274 93.5331C130.07 94.17 129.815 95.8507 130.199 97.9448C130.581 100.039 131.409 100.077 132.354 99.9657C132.651 99.93 134.322 99.9479 136.467 99.9637C141.137 100.001 148.062 100.039 148 99.5421C147.905 98.8196 147.246 92.9092 146.551 93.0011" fill="#3B3B4C"/>
<path fill-rule="evenodd" clip-rule="evenodd" d="M156 85C156.579 83.8062 161.348 84.3708 167 84C166.929 84.8954 165.911 84.7265 164.75 84.8317C164.51 84.8534 164.193 84.8622 163.819 84.8622C163.042 84.8622 162.024 84.824 160.962 84.7859C159.9 84.7478 158.793 84.7096 157.836 84.7096C157.432 84.7096 157.054 84.7165 156.719 84.7329C156.398 84.7489 156.165 84.8431 156 85" fill="#C4C4C9"/>
<path fill-rule="evenodd" clip-rule="evenodd" d="M148.11 100.795V100.795C148.1 100.685 148.09 100.545 148.08 100.375C148.195 100.315 148.305 100.255 148.42 100.205C148.325 100.465 148.225 100.665 148.11 100.795" fill="#888891"/>
<path fill-rule="evenodd" clip-rule="evenodd" d="M148.086 100C147.987 99.1209 147.526 94.797 147 93.7417C147.819 91.7922 151.261 81.5539 152.657 80.1732L152.658 80.1708L152.936 80C153.634 80.6018 148.353 95.2485 148.429 96.7501C148.498 98.1026 148.526 99.4968 148.213 99.9662C148.17 99.9761 148.129 99.9881 148.086 100" fill="#C4C4C9"/>
<path fill-rule="evenodd" clip-rule="evenodd" d="M147.987 100C147.969 100 147.943 99.9793 147.913 99.9379C147.623 99.528 146.838 97.1642 146 94.4637C146.477 94.3722 146.784 94.2721 146.844 94.1493C146.864 94.1076 146.886 94.0575 146.912 94C147.434 94.9978 147.891 99.0861 147.989 99.9173C147.993 99.9492 147.996 99.9756 148 99.9962C147.996 100 147.991 100 147.987 100" fill="#3B3B4C"/>
<path fill-rule="evenodd" clip-rule="evenodd" d="M117.008 97.8087C119.034 98.4343 117.685 99.3456 120.47 99.2368C124.362 99.0852 125.009 101.205 127.195 102.039C129.076 102.755 133.339 103.822 135.431 101.963C137.396 100.212 133.739 98.0146 132.518 97.0898C131.543 96.3515 133.362 95.1196 132.603 93.4673C131.844 91.8143 129.342 95.1488 126.232 94.2432C123.531 93.457 119.261 94.4085 118.049 94.4477C116.838 94.4868 117.008 97.8087 117.008 97.8087" fill="#EFAEA6"/>
<path fill-rule="evenodd" clip-rule="evenodd" d="M92.0399 81.5779C94.4326 85.3067 124.804 92.8809 125.863 93.482C126.659 93.9327 123.846 101.051 121.2 101C119.024 100.956 85.6521 95.5279 81.4245 88.7844C78.0531 83.4071 72 56.3058 72 56.3058C72 56.3058 84.0745 48.1973 85.014 54.2346C85.3177 56.1872 90.8645 79.7461 92.0399 81.5779" fill="#0267A4"/>
<path fill-rule="evenodd" clip-rule="evenodd" d="M73 60C71.4532 59.5902 69.8212 59.107 68 58.5684C69.9534 56.3762 69.0258 57.3232 71.4912 55C71.922 55.2102 72.3526 55.4206 72.7795 55.6274C72.2942 55.9042 72.0103 56.0785 72.0103 56.0785C72.0103 56.0785 72.3838 57.6095 73 60" fill="#075A91"/>
<path fill-rule="evenodd" clip-rule="evenodd" d="M85.542 60C85.342 59.1961 85.1597 58.4539 85 57.7946C86.2488 57.3265 87.3843 56.7861 88.3617 56.2743C89.2105 55.8291 89.5434 55 90.349 55C90.4064 55 90.4662 55.0042 90.5286 55.0131C91.6731 55.1735 90.4334 56.5976 89.9608 56.5976C89.918 56.5976 89.8816 56.5861 89.8539 56.5609C89.8477 56.5553 89.8393 56.5526 89.8287 56.5526C89.5565 56.5526 87.8508 58.3787 85.542 60" fill="#D7D7DB"/>
<path fill-rule="evenodd" clip-rule="evenodd" d="M79.5715 62C79.2322 62 78.8924 61.9745 78.5533 61.9198C76.6729 61.6166 74.8774 61.1047 72.9418 60.435C72.3554 57.4637 72 55.5607 72 55.5607C72 55.5607 72.2702 55.344 72.732 55C75.0992 56.4971 77.3481 57.8327 78.8397 57.9798C79.1613 58.0117 79.4814 58.0267 79.7993 58.0267C80.7607 58.0267 81.7017 57.8888 82.607 57.657C83.6319 57.396 84.6109 57.0142 85.5216 56.5768C85.6626 57.3231 85.8235 58.1633 86 59.0732C84.7775 60.1742 83.3635 61.1912 81.9156 61.6291C81.1508 61.8611 80.3631 62 79.5715 62" fill="#075A91"/>
<path fill-rule="evenodd" clip-rule="evenodd" d="M90.9882 54.8127C91.0556 54.2868 90.8574 53.3758 89.7698 53.2048C88.9506 53.0757 88.8196 53.3985 88.0264 53.8626C85.6438 55.2561 82.1783 56.8626 78.4959 56.5468C74.8136 56.231 67.51 49.7905 61.9485 49.9104C56.3868 50.0303 53.8299 54.5682 45.8884 54.2878C37.9469 54.0074 30.2995 49.0612 27.9512 49.0073C25.6031 48.9534 24.1296 49.1864 24.0111 50.1116C23.8924 51.0368 24.7335 52.7733 26.2054 53.7378C27.6772 54.7023 41.5523 58.459 45.3622 58.6877C51.5825 59.061 57.8604 54.5382 61.8328 54.96C65.8055 55.3819 73.5868 59.2831 78.214 59.9311C83.3746 60.6542 88.6896 55.4385 88.9822 55.7338C89.2747 56.029 89.544 56.3126 90.2309 56.2751C90.703 56.2494 90.9208 55.3384 90.9882 54.8127" fill="#F4AD00"/>
<path fill-rule="evenodd" clip-rule="evenodd" d="M146.973 100.585C147.368 98.9896 143.386 97.2696 141.46 98.3244C139.534 99.3807 138.681 100.619 139.108 100.954C139.534 101.289 140.731 101.992 141.926 101.992C143.12 101.992 146.575 102.193 146.973 100.585" fill="#EFAEA6"/>
<path fill-rule="evenodd" clip-rule="evenodd" d="M163.96 75.1517C163.208 73.7685 162.281 73.0248 161.277 73.0006C159.443 72.9564 157.796 75.426 157 79C157.156 79 157.312 78.9998 157.474 78.9998C158.213 75.7599 159.658 73.5433 161.263 73.582C162.109 73.6023 162.907 74.2596 163.574 75.4817C163.646 75.6152 163.79 75.6479 163.896 75.5574C164.004 75.4649 164.032 75.2835 163.96 75.1517" fill="#3F3729"/>
<path fill-rule="evenodd" clip-rule="evenodd" d="M163.862 75.5421L163.95 75.4893C163.581 74.6988 163.169 74.0865 162.717 73.6651C162.267 73.2439 161.777 73.0148 161.266 73.0007L161.217 73C160.754 72.9998 160.306 73.1832 159.886 73.5163C159.258 74.0161 158.688 74.8503 158.202 75.9348C157.715 77.0193 157.314 78.3555 157.025 79.8634L157 80H157.122C157.273 79.9998 157.424 79.9998 157.581 79.9998H157.661L157.678 79.9115C158.029 78.108 158.55 76.5895 159.167 75.5304C159.475 75.0006 159.806 74.5863 160.151 74.3068C160.496 74.0271 160.849 73.8821 161.209 73.8819L161.246 73.8823C161.63 73.8933 162.006 74.0713 162.37 74.4196C162.734 74.7677 163.083 75.2867 163.401 75.9677V75.9668C163.455 76.0904 163.56 76.171 163.672 76.1705C163.742 76.1708 163.812 76.1403 163.866 76.0851V76.0845C163.957 75.9917 164 75.8577 164 75.724C164 75.6441 163.984 75.5626 163.95 75.4887V75.4893L163.862 75.5421L163.775 75.5957C163.793 75.6326 163.802 75.6778 163.802 75.724C163.802 75.8019 163.775 75.8778 163.736 75.9158L163.8 76.0001L163.736 75.9151C163.713 75.9379 163.692 75.9449 163.672 75.9452C163.643 75.9447 163.607 75.9257 163.576 75.8626V75.8617C163.25 75.1628 162.888 74.6207 162.498 74.2472C162.109 73.8737 161.688 73.6691 161.252 73.6572L161.209 73.6565C160.8 73.6563 160.405 73.8225 160.037 74.1234C159.481 74.575 158.979 75.3273 158.547 76.3067C158.114 77.2866 157.752 78.4952 157.484 79.8625L157.581 79.887V79.7744C157.424 79.7744 157.273 79.7744 157.122 79.7746V79.8872L157.219 79.9113C157.599 77.9217 158.18 76.2396 158.88 75.0631C159.229 74.4748 159.607 74.0132 160 73.7011C160.393 73.389 160.8 73.2254 161.217 73.2254L161.262 73.226C161.723 73.2393 162.167 73.4435 162.591 73.8395C163.016 74.2353 163.415 74.8236 163.775 75.5951V75.5957L163.862 75.5421" fill="#3F3729"/>
<path fill-rule="evenodd" clip-rule="evenodd" d="M157 85.5231C157.168 90.1805 158.906 93.8021 161.187 93.9933C161.224 93.9978 161.262 93.9986 161.301 93.9995C162.043 94.0166 162.856 93.5962 163.55 92.8288C164.487 91.7939 165.575 89.7533 165.903 85.7701C165.933 85.4065 165.956 85.0282 165.972 84.6316C165.99 84.1984 166 83.7452 166 83.2697C166 83.1186 165.899 82.9925 165.771 83.0004C165.642 83.0011 165.539 83.1261 165.539 83.2756C165.539 83.7529 165.529 84.2079 165.512 84.6428C165.496 85.0323 165.472 85.4052 165.444 85.7615C165.128 89.5464 164.113 91.4666 163.237 92.432C162.336 93.4277 161.531 93.473 161.226 93.4495C159.181 93.2771 157.623 89.9028 157.463 85.5406C157.459 85.484 157.457 85.4256 157.457 85.3674C157.283 85.4164 157.131 85.4677 157 85.5231" fill="#3F3729"/>
<path fill-rule="evenodd" clip-rule="evenodd" d="M157.101 85.5731L157.002 85.5762C157.085 87.8757 157.551 89.9207 158.282 91.422C158.65 92.1728 159.081 92.7879 159.568 93.2307C160.055 93.6732 160.601 93.9438 161.187 93.9931L161.194 93.9012L161.183 93.9926C161.225 93.9978 161.266 93.9987 161.303 93.9996L161.347 94C162.103 93.9989 162.902 93.5685 163.581 92.8157C164.515 91.7786 165.584 89.7519 165.905 85.823C165.934 85.4642 165.957 85.0912 165.973 84.7001C165.99 84.2729 166 83.826 166 83.3577V83.355L165.973 83.3553H166V83.355L165.973 83.3553H166C166 83.2652 165.971 83.1811 165.919 83.115C165.867 83.0493 165.785 82.9998 165.689 83L165.669 83.0007L165.677 83.0926L165.675 83.0004C165.578 83.0011 165.493 83.0498 165.439 83.1161C165.385 83.1827 165.352 83.2688 165.352 83.3618H165.41L165.352 83.3613V83.3618H165.41L165.352 83.3613L165.354 83.3752L165.451 83.3633L165.352 83.3631C165.352 83.8311 165.343 84.2776 165.325 84.7041C165.31 85.086 165.286 85.4514 165.259 85.8002C164.952 89.5096 163.964 91.3774 163.124 92.3067C162.347 93.1667 161.668 93.2771 161.339 93.2785C161.303 93.2785 161.27 93.2769 161.241 93.2747L161.243 93.2749C160.771 93.2348 160.322 93.0095 159.907 92.6184C159.284 92.0325 158.746 91.0754 158.354 89.8642C157.961 88.653 157.71 87.1885 157.652 85.587V85.5854C157.648 85.5316 157.648 85.476 157.648 85.42V85.2959L157.52 85.3317C157.344 85.3808 157.191 85.4324 157.06 85.4895L157 85.5151L157.002 85.5762L157.101 85.5731L157.143 85.6567C157.263 85.6047 157.408 85.5556 157.576 85.5083L157.547 85.42H157.449C157.449 85.4787 157.451 85.5375 157.454 85.5949L157.553 85.5903L157.454 85.5933C157.534 87.7474 157.953 89.6587 158.611 91.0602C158.94 91.7611 159.328 92.3351 159.765 92.748C160.204 93.1608 160.696 93.4137 161.223 93.4585L161.227 93.4587L161.225 93.4585C161.258 93.461 161.297 93.4628 161.339 93.4628C161.719 93.4643 162.471 93.3224 163.275 92.4254C164.149 91.4565 165.145 89.5482 165.455 85.8145C165.484 85.4628 165.507 85.095 165.522 84.7111C165.54 84.2825 165.549 83.8338 165.551 83.3633V83.3573L165.549 83.3514L165.459 83.3624L165.549 83.3615V83.3514L165.459 83.3624L165.549 83.3615L165.518 83.3618H165.549V83.3615L165.518 83.3618H165.549C165.549 83.3084 165.569 83.2604 165.596 83.2291C165.623 83.1975 165.65 83.1849 165.677 83.1847H165.681L165.685 83.1845L165.689 83.1843C165.712 83.1845 165.735 83.195 165.76 83.2252C165.785 83.2549 165.803 83.3024 165.803 83.3553V83.3579L165.828 83.3575H165.803V83.3579L165.828 83.3575H165.803C165.803 83.8237 165.793 84.2684 165.776 84.6929C165.76 85.0818 165.737 85.4525 165.708 85.8089C165.389 89.7127 164.329 91.6988 163.43 92.6971C162.776 93.4237 162.02 93.8169 161.347 93.8157L161.309 93.8153C161.27 93.8144 161.237 93.8135 161.208 93.8099L161.206 93.8095H161.204C160.674 93.7647 160.17 93.5197 159.705 93.0985C159.009 92.4674 158.412 91.4404 157.975 90.1433C157.538 88.8464 157.261 87.2799 157.199 85.57L157.101 85.5731L157.143 85.6567L157.101 85.5731" fill="#564B37"/>
<path fill-rule="evenodd" clip-rule="evenodd" d="M157.454 74.7988C157.845 73.4249 158.319 72.4538 158.791 71.8006C159.26 71.1467 159.725 70.8118 160.095 70.6982C160.262 70.6463 160.43 70.6229 160.596 70.6229C161.069 70.6223 161.524 70.8187 161.88 71.0743C162.059 71.2016 162.213 71.3431 162.33 71.4768C162.448 71.6089 162.53 71.7378 162.563 71.8139C162.627 71.9628 162.772 72.0134 162.883 71.9272C162.995 71.8411 163.033 71.6505 162.969 71.5016C162.893 71.3316 162.782 71.1691 162.635 71.0028C162.417 70.7555 162.121 70.5087 161.773 70.3194C161.425 70.1306 161.023 70.0002 160.596 70C160.397 70 160.193 70.0281 159.988 70.0916C159.508 70.2405 158.971 70.6463 158.451 71.3704C157.93 72.0951 157.424 73.1397 157.015 74.5781C156.969 74.739 157.03 74.9187 157.152 74.9798C157.272 75.0406 157.408 74.9597 157.454 74.7988" fill="#3F3729"/>
<path fill-rule="evenodd" clip-rule="evenodd" d="M273.187 102.059C280.356 104.134 312.422 113.297 316.351 112.286C320.28 111.277 305.281 128.984 300.639 129C295.997 129.018 257.296 119.043 258.01 115.637C258.725 112.231 269.841 101.093 273.187 102.059" fill="#3EB58A"/>
<path fill-rule="evenodd" clip-rule="evenodd" d="M273.922 104.294L273.859 104.526C276.779 105.384 284.873 107.913 292.9 110.227C296.914 111.384 300.911 112.486 304.242 113.302C305.908 113.708 307.406 114.044 308.659 114.278C309.913 114.511 310.917 114.645 311.61 114.645C311.876 114.645 312.096 114.627 312.281 114.578C312.368 114.556 312.437 114.548 312.48 114.548C312.512 114.548 312.531 114.552 312.539 114.554L312.543 114.556L312.553 114.536L312.537 114.552L312.543 114.556L312.553 114.536L312.537 114.552L312.565 114.523L312.533 114.544L312.537 114.552L312.565 114.523L312.533 114.544L312.547 114.536L312.531 114.542L312.533 114.544L312.547 114.536L312.531 114.542C312.531 114.542 312.535 114.552 312.535 114.578C312.537 114.639 312.506 114.773 312.433 114.942C312.297 115.262 312.023 115.717 311.643 116.247C310.314 118.11 307.708 120.947 305.083 123.306C303.77 124.485 302.453 125.544 301.291 126.307C300.712 126.687 300.171 126.993 299.694 127.202C299.216 127.411 298.802 127.519 298.491 127.519H298.482C298.253 127.521 297.897 127.487 297.442 127.42C295.727 127.168 292.6 126.464 288.887 125.504C283.319 124.067 276.422 122.057 270.927 120.143C268.179 119.185 265.778 118.25 264.077 117.428C263.227 117.016 262.55 116.632 262.099 116.295C261.872 116.127 261.705 115.971 261.602 115.841C261.549 115.774 261.514 115.715 261.494 115.668C261.473 115.619 261.467 115.583 261.467 115.557L261.469 115.526C261.532 115.216 261.717 114.791 262.002 114.304C262.502 113.45 263.306 112.398 264.27 111.311C265.719 109.677 267.531 107.958 269.24 106.653C270.092 106.001 270.919 105.453 271.656 105.072C272.392 104.688 273.042 104.477 273.508 104.479C273.64 104.479 273.756 104.495 273.859 104.526L273.922 104.294L273.987 104.063C273.835 104.018 273.676 104 273.508 104C273.055 104 272.545 104.142 271.984 104.386C271.006 104.81 269.876 105.551 268.712 106.46C266.968 107.826 265.152 109.575 263.719 111.223C263.004 112.047 262.382 112.845 261.914 113.559C261.445 114.278 261.124 114.903 261.014 115.427V115.425C261.006 115.469 261 115.512 261 115.557C261 115.709 261.051 115.853 261.13 115.985C261.284 116.241 261.541 116.478 261.892 116.734C262.551 117.209 263.548 117.73 264.808 118.292C269.21 120.253 276.818 122.674 283.731 124.611C287.186 125.579 290.466 126.425 293.083 127.03C294.39 127.332 295.534 127.574 296.45 127.74C297.369 127.907 298.056 128 298.482 128H298.491C298.991 127.996 299.568 127.805 300.218 127.484C301.352 126.92 302.703 125.95 304.105 124.781C306.205 123.025 308.414 120.827 310.104 118.905C310.946 117.945 311.661 117.054 312.169 116.318C312.423 115.948 312.626 115.617 312.768 115.333C312.839 115.189 312.896 115.057 312.935 114.933C312.976 114.81 313 114.694 313 114.578C313 114.513 312.992 114.446 312.97 114.381C312.937 114.282 312.864 114.189 312.772 114.138C312.681 114.085 312.581 114.067 312.48 114.067C312.384 114.067 312.279 114.085 312.167 114.113C312.045 114.146 311.852 114.166 311.61 114.166C310.972 114.166 309.982 114.036 308.743 113.805C304.4 112.995 296.985 110.935 290.023 108.891C283.061 106.845 276.548 104.818 273.987 104.063L273.922 104.294" fill="#1B5B44"/>
<path fill-rule="evenodd" clip-rule="evenodd" d="M290.179 119.644L290.06 119.317C288.387 119.927 286.608 120.302 284.985 120.302C283.454 120.302 282.074 119.969 281.033 119.217C280.569 118.882 280.234 118.513 280.017 118.132C279.798 117.751 279.697 117.361 279.695 116.964C279.697 116.439 279.876 115.899 280.254 115.374C280.631 114.85 281.206 114.343 281.98 113.912C283.338 113.157 285.057 112.696 286.838 112.696C288.652 112.696 290.53 113.171 292.178 114.277C292.578 114.547 292.859 114.842 293.04 115.143C293.22 115.446 293.303 115.755 293.303 116.074C293.303 116.633 293.04 117.243 292.493 117.819C291.947 118.396 291.125 118.928 290.06 119.317L290.299 119.971C291.448 119.552 292.361 118.972 292.999 118.3C293.634 117.63 293.998 116.858 294 116.074C294 115.63 293.879 115.189 293.638 114.786C293.395 114.381 293.036 114.014 292.566 113.699C290.789 112.507 288.774 112 286.838 112C284.937 112 283.113 112.487 281.642 113.304C280.796 113.775 280.139 114.341 279.689 114.965C279.239 115.59 279 116.276 279 116.964C279 117.484 279.139 118.001 279.412 118.479C279.687 118.958 280.093 119.399 280.627 119.784C281.827 120.649 283.356 121 284.985 121C286.713 121 288.563 120.605 290.299 119.971L290.179 119.644" fill="#1B5B44"/>
<path fill-rule="evenodd" clip-rule="evenodd" d="M284.576 116.778L284.578 116.78C284.802 116.939 285.403 117.041 285.636 117.153C286.205 117.425 285.866 118.123 284.751 117.843H284.747C284.276 117.864 283.919 117.731 283.615 117.541C282.928 117.113 282.516 116.4 281.688 116.527C280.383 117.225 281.103 118.007 282.443 118.525C282.738 118.639 283.063 118.741 283.403 118.825C285.564 119.366 287.704 118.549 287.81 117.784C287.918 117.009 287.253 116.768 286.674 116.325C286.36 116.084 285.603 115.864 285.432 115.757C285.016 115.496 285.385 114.953 286.468 115.302L286.484 115.3C286.829 115.335 287.204 115.453 287.553 115.611C288.077 115.847 288.542 116.176 288.746 116.443C290.334 116.445 290.328 115.396 289.21 114.923C289.062 114.815 288.907 114.719 288.748 114.633C288.456 114.474 288.15 114.347 287.836 114.251H287.834C284.963 113.366 281.564 114.968 284.576 116.778" fill="#1B5B44"/>
<path fill-rule="evenodd" clip-rule="evenodd" d="M288.996 113.076C290.002 112.802 290.176 113.344 289.852 113.491C289.528 113.64 282.996 119.234 282.343 118.992C281.689 118.751 281.996 118.584 283.044 117.689C284.202 116.702 288.996 113.076 288.996 113.076" fill="#1B5B44"/>
<path fill-rule="evenodd" clip-rule="evenodd" d="M300.112 120.776C298.826 121.962 296.614 122.354 295.171 121.651C293.727 120.946 293.602 119.414 294.888 118.226C296.174 117.038 298.388 116.645 299.829 117.351C301.273 118.054 301.398 119.588 300.112 120.776" fill="#1B5B44"/>
<path fill-rule="evenodd" clip-rule="evenodd" d="M276.813 113.992C275.362 115.1 273.151 115.329 271.874 114.507C270.595 113.682 270.736 112.117 272.189 111.009C273.64 109.901 275.851 109.669 277.128 110.494C278.404 111.317 278.263 112.884 276.813 113.992" fill="#1B5B44"/>
<path fill-rule="evenodd" clip-rule="evenodd" d="M272 104.963C272 104.963 280.597 108.145 282.319 107.995C284.04 107.847 285 107.172 285 107.172L274.2 104L272 104.963" fill="#1B5B44"/>
<path fill-rule="evenodd" clip-rule="evenodd" d="M285 125.137C287.244 124.441 288.137 123.84 289.361 124.038C290.585 124.238 302.537 126.528 301.981 126.842C301.428 127.157 299.879 128.064 298.982 127.996C298.085 127.927 285.734 125.32 285.734 125.32L285 125.137" fill="#1B5B44"/>
<path fill-rule="evenodd" clip-rule="evenodd" d="M297.671 87.0571C304.6 89.054 335.576 97.8769 339.373 96.9052C343.168 95.9335 328.678 112.983 324.192 113C319.708 113.017 282.32 103.411 283.009 100.13C283.701 96.8515 294.441 86.1254 297.671 87.0571" fill="#3EB58A"/>
<path fill-rule="evenodd" clip-rule="evenodd" d="M298.424 88.2949L298.362 88.5256C301.171 89.3844 308.953 91.913 316.67 94.2265C320.53 95.3838 324.376 96.4871 327.578 97.3022C329.179 97.7087 330.621 98.0442 331.825 98.2786C333.031 98.5109 333.994 98.6464 334.662 98.6464C334.919 98.6464 335.129 98.627 335.308 98.5797C335.39 98.556 335.456 98.5474 335.498 98.5474C335.529 98.5474 335.547 98.5517 335.555 98.5539L335.559 98.556L335.569 98.5367L335.555 98.5517L335.559 98.556L335.569 98.5367L335.555 98.5517L335.579 98.5238L335.549 98.5453L335.555 98.5517L335.579 98.5238L335.549 98.5453L335.563 98.5367L335.547 98.5431L335.549 98.5453L335.563 98.5367L335.547 98.5431C335.549 98.5431 335.551 98.5539 335.551 98.5775C335.553 98.6399 335.525 98.7732 335.452 98.9432C335.322 99.2636 335.059 99.7174 334.694 100.246C333.416 102.111 330.908 104.948 328.385 107.305C327.125 108.484 325.857 109.544 324.741 110.307C324.184 110.688 323.662 110.993 323.205 111.202C322.745 111.411 322.348 111.518 322.047 111.52H322.039C321.82 111.52 321.477 111.486 321.038 111.419C319.389 111.168 316.382 110.462 312.815 109.505C307.46 108.066 300.828 106.058 295.543 104.144C292.901 103.184 290.594 102.251 288.957 101.427C288.139 101.016 287.489 100.631 287.055 100.296C286.839 100.128 286.676 99.9712 286.578 99.84C286.475 99.7088 286.445 99.6077 286.447 99.5561L286.449 99.526C286.51 99.2163 286.688 98.7926 286.963 98.3044C287.442 97.4506 288.217 96.3989 289.144 95.3106C290.536 93.678 292.279 91.9586 293.92 90.6542C294.741 90.0019 295.535 89.4532 296.246 89.0715C296.952 88.6884 297.576 88.4779 298.027 88.48C298.151 88.48 298.264 88.4957 298.362 88.5256L298.424 88.2949L298.484 88.0641C298.34 88.0198 298.188 88 298.027 88C297.59 88.0009 297.098 88.1432 296.561 88.3856C295.62 88.8108 294.534 89.5506 293.415 90.4608C291.738 91.8263 289.992 93.5757 288.614 95.2225C287.926 96.0462 287.328 96.8441 286.877 97.5603C286.425 98.2764 286.116 98.9044 286.012 99.4249C286.004 99.4679 286 99.5131 286 99.5561C286 99.7088 286.048 99.8529 286.124 99.9841C286.271 100.24 286.52 100.479 286.857 100.735C287.491 101.21 288.448 101.73 289.659 102.292C293.894 104.253 301.209 106.675 307.855 108.611C311.178 109.578 314.331 110.424 316.847 111.028C318.105 111.331 319.204 111.572 320.085 111.74C320.97 111.905 321.63 111.998 322.039 112H322.049C322.531 111.996 323.084 111.804 323.708 111.484C324.797 110.92 326.097 109.95 327.446 108.78C329.466 107.025 331.588 104.827 333.213 102.907C334.024 101.946 334.712 101.053 335.2 100.317C335.444 99.9475 335.639 99.6185 335.775 99.3324C335.844 99.1905 335.898 99.0571 335.936 98.9345C335.974 98.8098 335.998 98.6937 336 98.5775C336 98.513 335.992 98.4463 335.97 98.3818C335.938 98.2829 335.868 98.1904 335.779 98.1388C335.691 98.085 335.595 98.0678 335.498 98.0678C335.404 98.0678 335.306 98.085 335.198 98.113C335.079 98.1474 334.895 98.1667 334.662 98.1667C334.048 98.1667 333.095 98.0377 331.905 97.8054C327.731 96.9946 320.599 94.9343 313.906 92.8909C307.211 90.8464 300.95 88.8177 298.484 88.0641L298.424 88.2949" fill="#1B5B44"/>
<path fill-rule="evenodd" clip-rule="evenodd" d="M313.179 102.643L313.061 102.316C311.388 102.927 309.608 103.303 307.985 103.303C306.454 103.303 305.074 102.969 304.034 102.219C303.57 101.883 303.234 101.513 303.017 101.132C302.8 100.752 302.696 100.361 302.696 99.9617C302.696 99.4398 302.878 98.8988 303.255 98.3747C303.631 97.8486 304.207 97.3435 304.981 96.9124C306.34 96.1559 308.057 95.6973 309.84 95.6973C311.654 95.6973 313.53 96.1707 315.177 97.278C315.578 97.5464 315.859 97.8401 316.04 98.1423C316.219 98.4445 316.304 98.7551 316.304 99.0742C316.304 99.6342 316.04 100.243 315.494 100.82C314.949 101.394 314.127 101.929 313.061 102.316L313.179 102.643L313.3 102.971C314.447 102.552 315.361 101.971 315.998 101.299C316.633 100.629 316.998 99.8582 317 99.0742C317 98.6304 316.88 98.1888 316.637 97.7852C316.395 97.3815 316.036 97.0139 315.565 96.699C313.789 95.5072 311.772 95 309.84 95C307.939 95 306.114 95.486 304.643 96.3038C303.795 96.7751 303.139 97.3414 302.69 97.9669C302.241 98.5903 302 99.2749 302 99.9617C302 100.484 302.139 101.001 302.414 101.479C302.688 101.959 303.095 102.398 303.627 102.783C304.829 103.649 306.359 104 307.985 104C309.713 103.998 311.563 103.605 313.3 102.971L313.179 102.643" fill="#1B5B44"/>
<path fill-rule="evenodd" clip-rule="evenodd" d="M308.179 99.778L308.181 99.7802C308.38 99.9381 308.914 100.042 309.122 100.154C309.627 100.425 309.325 101.123 308.334 100.842H308.33C307.912 100.864 307.595 100.732 307.324 100.541C306.715 100.113 306.348 99.3996 305.61 99.5272C304.452 100.226 305.092 101.006 306.283 101.525C306.544 101.638 306.834 101.74 307.136 101.826C309.058 102.365 310.96 101.549 311.054 100.786C311.148 100.009 310.559 99.7672 310.044 99.3239C309.765 99.0838 309.091 98.8654 308.939 98.7572C308.571 98.4977 308.899 97.9527 309.861 98.3031L309.875 98.3009C310.18 98.3355 310.516 98.4523 310.826 98.6102C311.292 98.8481 311.704 99.1746 311.884 99.4428C313.296 99.445 313.292 98.3961 312.299 97.9224C312.166 97.8165 312.03 97.7191 311.888 97.6326C311.629 97.4747 311.356 97.3471 311.077 97.252L311.075 97.2498C308.523 96.3674 305.501 97.9678 308.179 99.778" fill="#1B5B44"/>
<path fill-rule="evenodd" clip-rule="evenodd" d="M312.121 97.0639C313.002 96.8348 313.153 97.2859 312.87 97.4086C312.588 97.5331 306.873 102.194 306.301 101.994C305.728 101.793 305.995 101.653 306.913 100.907C307.928 100.083 312.121 97.0639 312.121 97.0639" fill="#1B5B44"/>
<path fill-rule="evenodd" clip-rule="evenodd" d="M323.239 103.775C322.135 104.963 320.239 105.354 319.003 104.65C317.767 103.947 317.658 102.414 318.761 101.226C319.863 100.039 321.759 99.6454 322.997 100.35C324.233 101.054 324.342 102.588 323.239 103.775" fill="#1B5B44"/>
<path fill-rule="evenodd" clip-rule="evenodd" d="M299.982 97.1923C298.739 98.0802 296.843 98.2632 295.748 97.6058C294.654 96.9464 294.774 95.6926 296.017 94.8065C297.263 93.9204 299.158 93.7361 300.253 94.3951C301.346 95.0542 301.226 96.3062 299.982 97.1923" fill="#1B5B44"/>
<path fill-rule="evenodd" clip-rule="evenodd" d="M295 88.9618C295 88.9618 303.597 92.1438 305.319 91.9949C307.04 91.8461 308 91.1716 308 91.1716L297.201 88L295 88.9618" fill="#1B5B44"/>
<path fill-rule="evenodd" clip-rule="evenodd" d="M309 108.422C311.111 107.552 311.95 106.8 313.103 107.048C314.254 107.298 325.504 110.163 324.982 110.555C324.459 110.948 323.003 112.082 322.157 111.995C321.314 111.911 309.689 108.651 309.689 108.651L309 108.422" fill="#1B5B44"/>
<path fill-rule="evenodd" clip-rule="evenodd" d="M317.156 70.0549C323.84 71.975 353.734 80.4585 357.396 79.5241C361.055 78.5899 347.076 94.9842 342.748 95C338.42 95.015 302.343 85.7792 303.009 82.6259C303.675 79.4726 314.038 69.1593 317.156 70.0549" fill="#3EB58A"/>
<path fill-rule="evenodd" clip-rule="evenodd" d="M318.175 71.2701L318.116 71.4819C320.867 72.2691 328.494 74.5869 336.058 76.7078C339.841 77.7681 343.608 78.7795 346.748 79.5264C348.316 79.8998 349.73 80.2072 350.909 80.4218C352.091 80.636 353.036 80.7584 353.69 80.7588C353.941 80.7586 354.148 80.7415 354.322 80.6978C354.404 80.6768 354.469 80.6689 354.511 80.6689C354.54 80.6689 354.558 80.6726 354.566 80.675L354.57 80.6768L354.578 80.6579L354.564 80.6728L354.57 80.6768L354.578 80.6579L354.564 80.6728L354.588 80.6478L354.56 80.6663L354.564 80.6728L354.588 80.6478L354.56 80.6663L354.572 80.6577L354.558 80.6638L354.56 80.6663L354.572 80.6577L354.558 80.6638C354.558 80.664 354.562 80.6738 354.562 80.6966C354.562 80.7525 354.535 80.875 354.464 81.0306C354.337 81.3249 354.079 81.7405 353.722 82.2268C352.468 83.9348 350.012 86.5353 347.539 88.6963C346.302 89.7772 345.06 90.7497 343.967 91.448C343.419 91.7971 342.91 92.0776 342.46 92.2686C342.012 92.4602 341.622 92.5596 341.328 92.5598H341.32C341.105 92.56 340.768 92.5287 340.338 92.4671C338.721 92.2366 335.776 91.591 332.279 90.7127C327.031 89.395 320.532 87.553 315.353 85.7976C312.763 84.9201 310.501 84.0636 308.899 83.3089C308.097 82.9322 307.458 82.5797 307.035 82.2711C306.822 82.1174 306.663 81.9742 306.566 81.8535C306.467 81.7323 306.436 81.6408 306.438 81.5936L306.44 81.5661L306.442 81.5653C306.501 81.2822 306.675 80.8925 306.943 80.446C307.416 79.6629 308.173 78.6989 309.081 77.7016C310.444 76.205 312.154 74.6288 313.763 73.4329C314.566 72.8349 315.345 72.3321 316.041 71.9822C316.735 71.6312 317.345 71.4381 317.785 71.44C317.909 71.44 318.019 71.4544 318.116 71.4819L318.175 71.2701L318.236 71.0586C318.094 71.0181 317.944 71 317.785 71C317.359 71.0008 316.877 71.1312 316.349 71.3533C315.428 71.7432 314.363 72.4214 313.266 73.2558C311.623 74.5075 309.913 76.1112 308.562 77.6211C307.886 78.3763 307.302 79.1078 306.86 79.7635C306.418 80.421 306.116 80.9956 306.012 81.4738V81.473C306.004 81.513 306 81.5535 306 81.5936C306 81.7333 306.049 81.8645 306.122 81.9856C306.266 82.2201 306.509 82.4383 306.84 82.6727C307.461 83.1086 308.4 83.5868 309.586 84.1014C313.737 85.8991 320.905 88.1185 327.419 89.8936C330.674 90.7808 333.766 91.556 336.23 92.1101C337.464 92.3871 338.541 92.6089 339.405 92.7618C340.271 92.9144 340.918 92.9992 341.32 93H341.328C341.801 92.9965 342.344 92.8206 342.955 92.5269C344.022 92.011 345.296 91.1205 346.618 90.0486C348.598 88.4409 350.679 86.4259 352.27 84.6642C353.065 83.7833 353.738 82.9662 354.217 82.2909C354.456 81.9528 354.647 81.6505 354.781 81.3884C354.848 81.2572 354.901 81.1359 354.939 81.0224C354.976 80.9087 355 80.803 355 80.6966C355 80.637 354.992 80.5764 354.972 80.5164C354.941 80.4265 354.872 80.3408 354.785 80.2934C354.698 80.245 354.604 80.2291 354.511 80.2289C354.418 80.2291 354.32 80.2442 354.215 80.2713C354.099 80.3009 353.919 80.3191 353.69 80.3188C353.089 80.3193 352.156 80.2013 350.988 79.9887C346.896 79.2455 339.908 77.3571 333.348 75.4833C326.788 73.6091 320.652 71.7496 318.236 71.0586L318.175 71.2701" fill="#1B5B44"/>
<path fill-rule="evenodd" clip-rule="evenodd" d="M332.18 85.6445L332.06 85.317C330.388 85.9275 328.608 86.3034 326.984 86.3027C325.454 86.3032 324.074 85.9696 323.033 85.2181C322.569 84.8829 322.234 84.5138 322.017 84.1334C321.799 83.7527 321.697 83.3609 321.697 82.9632C321.697 82.4402 321.877 81.8999 322.254 81.3744C322.63 80.8496 323.207 80.344 323.98 79.9134C325.338 79.1573 327.058 78.6966 328.838 78.6973C330.654 78.6975 332.53 79.1715 334.178 80.2777C334.579 80.5466 334.859 80.8416 335.04 81.1433C335.221 81.4457 335.303 81.7553 335.303 82.075C335.303 82.6338 335.04 83.2429 334.494 83.8201C333.949 84.3959 333.127 84.9289 332.06 85.317L332.3 85.972C333.447 85.5529 334.361 84.9719 334.999 84.3002C335.634 83.6297 335.998 82.8577 336 82.075C336 81.6308 335.878 81.1893 335.636 80.7855C335.395 80.3811 335.036 80.0146 334.566 79.6987C332.789 78.5065 330.774 78 328.838 78C326.938 78.0007 325.114 78.4866 323.643 79.304C322.796 79.7758 322.138 80.3423 321.69 80.9669C321.239 81.5905 321 82.2762 321 82.9632C321 83.4841 321.139 84.0015 321.414 84.48C321.688 84.9593 322.095 85.3997 322.626 85.7836C323.828 86.649 325.358 86.9996 326.984 87C328.714 86.9993 330.565 86.6045 332.3 85.9722L332.18 85.6445" fill="#1B5B44"/>
<path fill-rule="evenodd" clip-rule="evenodd" d="M326.974 82.7784L326.977 82.7799C327.224 82.9381 327.893 83.0414 328.153 83.1535C328.785 83.4248 328.408 84.1234 327.17 83.842L327.165 83.8427C326.64 83.8632 326.243 83.7307 325.906 83.5419C325.144 83.1135 324.685 82.3993 323.764 82.5265C322.315 83.2255 323.115 84.006 324.604 84.5244C324.93 84.6382 325.292 84.7401 325.671 84.8251C328.074 85.3656 330.449 84.55 330.566 83.7847C330.687 83.0084 329.949 82.7679 329.305 82.3243C328.956 82.0831 328.114 81.8647 327.925 81.7571C327.462 81.4965 327.873 80.9532 329.077 81.303L329.094 81.301C329.476 81.3347 329.895 81.4525 330.281 81.6105V81.611C330.866 81.847 331.381 82.1748 331.606 82.4432C333.37 82.4455 333.365 81.3965 332.124 80.9219C331.958 80.8155 331.787 80.7193 331.609 80.6328C331.287 80.4737 330.945 80.3474 330.596 80.2508C327.403 79.3663 323.628 80.9672 326.974 82.7784" fill="#1B5B44"/>
<path fill-rule="evenodd" clip-rule="evenodd" d="M331.997 80.0632C333.002 79.8357 333.176 80.2862 332.851 80.4097C332.529 80.5329 325.997 85.1946 325.344 84.9937C324.69 84.7928 324.994 84.6532 326.045 83.9074C327.201 83.0835 331.997 80.0632 331.997 80.0632" fill="#1B5B44"/>
<path fill-rule="evenodd" clip-rule="evenodd" d="M342.239 86.7746C341.137 87.9621 339.239 88.3541 338.003 87.6503C336.768 86.9463 336.657 85.4128 337.762 84.2253C338.864 83.0379 340.76 82.6458 341.996 83.3498C343.233 84.0538 343.342 85.5871 342.239 86.7746" fill="#1B5B44"/>
<path fill-rule="evenodd" clip-rule="evenodd" d="M319.811 80.1931C318.36 81.0796 316.15 81.2638 314.873 80.605C313.595 79.946 313.737 78.6932 315.188 77.807C316.639 76.9205 318.849 76.736 320.126 77.3951C321.404 78.0539 321.264 79.3068 319.811 80.1931" fill="#1B5B44"/>
<path fill-rule="evenodd" clip-rule="evenodd" d="M315 72.7216C315 72.7216 323.597 75.1079 325.318 74.9962C327.041 74.8845 328 74.3788 328 74.3788L317.199 72L315 72.7216" fill="#1B5B44"/>
<path fill-rule="evenodd" clip-rule="evenodd" d="M328 90.1378C330.112 89.4409 330.953 88.8396 332.104 89.0386C333.256 89.2376 344.503 91.5294 343.982 91.8431C343.46 92.157 342.003 93.0647 341.159 92.9963C340.314 92.9277 328.69 90.3193 328.69 90.3193L328 90.1378" fill="#1B5B44"/>
<path fill-rule="evenodd" clip-rule="evenodd" d="M357.786 116.993C354.755 117.157 349.721 114.552 350.012 113.417C350.303 112.282 359.792 103.166 364.636 98C366.317 99.9172 368.662 101.292 371.218 101.854C372.534 102.144 373.981 102.26 375 103.104C373.953 103.07 373.12 103.908 372.44 104.677C370.343 107.047 368.247 109.416 366.152 111.786C364.894 113.207 363.464 114.46 361.975 115.657C360.938 116.488 359.486 116.899 357.786 116.993" fill="#3EB58A"/>
<path fill-rule="evenodd" clip-rule="evenodd" d="M373 104C369.719 107.873 366.395 111.542 362.656 115C362.847 113.94 363.279 113.475 363.06 112.356C362.747 110.765 361.599 110.408 362.145 109.552C362.979 108.245 366.447 107.572 367.462 107.404C369.121 107.128 367.948 107.732 373 104" fill="#1E6E56"/>
<path fill-rule="evenodd" clip-rule="evenodd" d="M362 108.947C365.238 105.133 368.701 101.834 372.053 98.2784C373.564 96.6751 375.112 94.266 377.202 93.4214C379.848 92.3529 382.98 93.5183 385.556 94.672C388.13 95.8253 390.28 97.6525 392.359 99.484C394.437 101.315 399 102.975 399 104.505C399 106.039 387.04 120 384.784 120C382.527 120 378.169 114.412 374.262 112.151C370.356 109.891 366.203 107.666 362 108.947" fill="#3EB58A"/>
<path fill-rule="evenodd" clip-rule="evenodd" d="M363.224 112.488C363.224 112.488 363.215 112.494 363.196 112.509C363.051 112.612 362.368 113.097 361.508 113.57C360.65 114.046 359.608 114.505 358.777 114.575C358.718 114.581 358.653 114.583 358.584 114.583C358.235 114.583 357.777 114.518 357.28 114.406C356.532 114.237 355.693 113.968 354.968 113.68C354.604 113.537 354.27 113.389 353.99 113.247C353.709 113.107 353.483 112.97 353.345 112.86L353.296 112.936L353.372 112.898L353.345 112.86L353.296 112.936L353.372 112.898L353.326 112.921L353.376 112.911L353.372 112.898L353.326 112.921L353.376 112.911L353.366 112.913H353.376V112.911L353.366 112.913H353.376V112.911C353.376 112.9 353.38 112.864 353.397 112.815C353.425 112.718 353.494 112.572 353.597 112.395C353.978 111.724 354.819 110.62 355.868 109.364C357.444 107.476 359.498 105.226 361.237 103.449C362.107 102.561 362.898 101.791 363.509 101.248C363.816 100.975 364.075 100.759 364.275 100.615C364.374 100.543 364.458 100.491 364.521 100.457C364.552 100.44 364.579 100.429 364.596 100.423L364.615 100.419H364.617L364.615 100.391V100.419H364.617L364.615 100.391V100.419V100.298L364.556 100.395C364.586 100.417 364.609 100.419 364.615 100.419V100.298L364.556 100.395C365.502 101.093 367.804 102.637 367.805 102.639L368 102.282C368 102.282 367.857 102.185 367.626 102.03C366.934 101.563 365.462 100.563 364.765 100.049C364.714 100.011 364.659 100 364.615 100C364.544 100.002 364.489 100.021 364.428 100.049C364.31 100.099 364.178 100.186 364.018 100.305C363.421 100.749 362.45 101.66 361.312 102.806C359.608 104.528 357.543 106.771 355.901 108.713C355.081 109.683 354.366 110.578 353.853 111.295C353.595 111.654 353.389 111.97 353.242 112.234C353.17 112.365 353.113 112.483 353.071 112.593C353.029 112.703 353.002 112.801 353 112.911C353 112.959 353.006 113.01 353.027 113.063C353.046 113.116 353.082 113.167 353.126 113.2C353.357 113.382 353.709 113.577 354.142 113.776C354.791 114.076 355.611 114.378 356.416 114.611C357.219 114.841 358.001 115 358.584 115C358.662 115 358.735 114.998 358.807 114.992C359.793 114.905 360.938 114.363 361.849 113.847C362.759 113.331 363.428 112.837 363.432 112.834L363.224 112.488" fill="#1B5B44"/>
<path fill-rule="evenodd" clip-rule="evenodd" d="M373.613 97.621C374.899 97.7721 376.184 98.2006 377.347 98.9707C377.709 99.2124 377.965 99.4766 378.129 99.7466C378.292 100.018 378.368 100.296 378.368 100.583C378.368 101.083 378.129 101.63 377.631 102.148C377.137 102.665 376.388 103.143 375.421 103.492C374.407 103.856 373.353 104.128 372.324 104.268L372.366 104.579V104.266H372.345L372.326 104.268C372.236 104.279 372.15 104.29 372.068 104.3H372.063C371.916 104.317 371.769 104.332 371.622 104.343L371.645 104.655V104.341H371.631L371.62 104.343C371.345 104.364 371.072 104.375 370.807 104.375C369.48 104.375 368.277 104.103 367.351 103.492L367 104.013C368.067 104.715 369.396 105 370.807 105C371.089 105 371.377 104.989 371.668 104.966L371.643 104.655V104.968H371.658L371.669 104.966C371.826 104.955 371.982 104.94 372.139 104.921L372.101 104.609L372.135 104.921C372.229 104.911 372.317 104.9 372.404 104.889L372.364 104.579V104.891H372.389L372.41 104.889C373.491 104.741 374.586 104.458 375.638 104.079C376.681 103.703 377.511 103.182 378.091 102.578C378.668 101.978 379 101.285 379 100.583C379.002 100.185 378.891 99.7881 378.672 99.4257C378.452 99.0632 378.126 98.7348 377.698 98.4516C376.446 97.6229 375.064 97.1623 373.687 97L373.613 97.621" fill="#1B5B44"/>
<path fill-rule="evenodd" clip-rule="evenodd" d="M374.319 98.9197C374.191 98.8142 374.057 98.7194 373.92 98.6311C373.669 98.4717 373.404 98.3468 373.133 98.2499C372.667 98.084 372.186 98.0043 371.729 98L369.736 100.283C369.886 100.445 370.079 100.611 370.319 100.779H370.32L370.322 100.781C370.515 100.938 371.033 101.041 371.236 101.153H371.238C371.726 101.427 371.432 102.123 370.473 101.841L370.467 101.843C370.062 101.862 369.754 101.731 369.493 101.541H369.491C369.314 101.414 369.158 101.263 369.012 101.115L368 102.273C368.145 102.364 368.306 102.446 368.479 102.525C368.733 102.637 369.014 102.741 369.307 102.825H369.311C371.178 103.366 373.018 102.551 373.111 101.782C373.203 101.007 372.63 100.768 372.13 100.324C371.941 100.156 371.568 100.001 371.308 99.8826C371.195 99.833 371.102 99.7878 371.059 99.7555C370.699 99.4949 371.018 98.9521 371.952 99.301H371.956L371.967 99.2988C372.264 99.3333 372.587 99.4518 372.888 99.609H372.89C373.343 99.8459 373.742 100.176 373.918 100.443C375.288 100.445 375.283 99.3958 374.319 98.9197" fill="#1B5B44"/>
<path fill-rule="evenodd" clip-rule="evenodd" d="M374.12 98.0753C375.003 97.8037 375.154 98.3426 374.87 98.4914C374.586 98.6401 368.872 104.232 368.301 103.993C367.728 103.751 367.996 103.583 368.914 102.688C369.926 101.699 374.12 98.0753 374.12 98.0753" fill="#1B5B44"/>
<path fill-rule="evenodd" clip-rule="evenodd" d="M384.114 105.774C382.827 106.962 380.613 107.354 379.171 106.651C377.729 105.947 377.6 104.412 378.887 103.226C380.174 102.038 382.387 101.646 383.83 102.349C385.272 103.055 385.398 104.588 384.114 105.774" fill="#1B5B44"/>
<path fill-rule="evenodd" clip-rule="evenodd" d="M375.324 95.4115C375.324 95.4115 375.343 95.4115 375.379 95.4115C375.667 95.4157 377.012 95.4471 378.765 95.7207C380.517 95.9944 382.679 96.5083 384.593 97.4693C386.39 98.3697 389.167 100.104 391.486 101.744C392.645 102.565 393.691 103.36 394.441 104.016C394.815 104.342 395.117 104.635 395.317 104.871C395.418 104.988 395.493 105.092 395.54 105.172C395.587 105.253 395.599 105.312 395.597 105.318L395.632 105.322L395.601 105.305L395.597 105.318L395.632 105.322L395.601 105.305L395.638 105.326L395.612 105.293L395.601 105.305L395.638 105.326L395.612 105.293C395.55 105.345 395.471 105.429 395.362 105.546C394.958 105.984 394.177 106.893 393.196 108.015C391.727 109.699 389.812 111.857 388.086 113.589C387.223 114.456 386.406 115.216 385.719 115.755C385.378 116.022 385.067 116.237 384.806 116.38C384.544 116.524 384.33 116.591 384.203 116.588C384.146 116.588 384.107 116.576 384.08 116.561C383.694 116.342 383.016 115.855 382.153 115.224C379.558 113.327 375.271 110.106 371.548 108.516C370.683 108.149 369.537 107.938 368.358 107.814C367.181 107.691 365.975 107.658 365.007 107.658C363.83 107.658 363.002 107.708 363 107.708L363.022 108.119C363.022 108.119 363.074 108.115 363.168 108.111C363.452 108.096 364.132 108.069 365.007 108.069C365.967 108.069 367.16 108.103 368.317 108.224C369.474 108.345 370.594 108.556 371.393 108.896C373.826 109.935 376.542 111.706 378.849 113.334C380.002 114.148 381.054 114.928 381.918 115.561C382.785 116.194 383.461 116.68 383.884 116.923C383.982 116.977 384.093 117 384.203 117C384.377 117 384.557 116.948 384.751 116.864C385.114 116.703 385.537 116.421 386.014 116.043C387.673 114.727 389.978 112.256 391.956 110.037C392.945 108.93 393.85 107.885 394.547 107.085C394.896 106.684 395.193 106.346 395.422 106.089C395.536 105.961 395.632 105.855 395.71 105.771C395.785 105.69 395.845 105.629 395.873 105.604H395.875C395.957 105.535 396.002 105.418 396 105.318C395.998 105.188 395.953 105.08 395.888 104.965C395.765 104.752 395.559 104.512 395.279 104.236C394.79 103.751 394.081 103.162 393.239 102.521C390.713 100.599 387.021 98.2276 384.771 97.0995C382.668 96.0445 380.31 95.5244 378.475 95.2611C376.642 95 375.33 95 375.324 95V95.4115" fill="#1B5B44"/>
<path fill-rule="evenodd" clip-rule="evenodd" d="M320.252 140.556C325.896 137.537 334.338 130.69 338.772 131.011C344.379 131.417 351.002 142.747 358.95 144.446C365.335 145.813 379.822 145.747 379.998 147.082C380.174 148.42 368.447 162.631 364.414 161.978C359.644 161.204 349.75 160.982 344.804 155.772C340.446 151.181 336.835 147.257 333.335 145.653C329.261 143.789 318.198 141.654 320.252 140.556" fill="#3EB58A"/>
<path fill-rule="evenodd" clip-rule="evenodd" d="M351.052 150.689L351.044 150.387C350.894 150.392 350.743 150.394 350.593 150.394C349.266 150.396 347.936 150.203 346.797 149.786C345.656 149.368 344.71 148.727 344.114 147.848C343.734 147.284 343.566 146.738 343.566 146.243C343.566 145.67 343.786 145.151 344.224 144.709C344.662 144.267 345.326 143.917 346.193 143.741C346.637 143.65 347.108 143.604 347.591 143.604C348.712 143.604 349.902 143.852 351.01 144.381C352.12 144.907 353.149 145.71 353.954 146.818C354.295 147.286 354.436 147.728 354.436 148.125C354.436 148.414 354.363 148.685 354.218 148.942C354 149.326 353.614 149.677 353.075 149.935C352.535 150.194 351.846 150.363 351.044 150.387L351.06 150.991C352.216 150.953 353.183 150.649 353.878 150.15C354.226 149.899 354.506 149.597 354.701 149.255C354.894 148.913 355.002 148.527 355 148.125C355.002 147.57 354.801 146.996 354.4 146.447C353.533 145.253 352.425 144.392 351.241 143.828C350.054 143.264 348.788 143 347.591 143C347.075 143 346.568 143.049 346.087 143.147C345.139 143.34 344.373 143.73 343.838 144.267C343.301 144.802 343 145.497 343 146.243C343 146.887 343.22 147.557 343.658 148.201C344.346 149.215 345.4 149.912 346.614 150.356C347.83 150.802 349.214 150.998 350.593 151C350.749 151 350.905 150.996 351.06 150.991L351.052 150.689" fill="#1B5B44"/>
<path fill-rule="evenodd" clip-rule="evenodd" d="M347.767 146.97L347.769 146.972C347.894 147.152 348.31 147.385 348.453 147.533C348.803 147.888 348.387 148.344 347.64 147.839H347.636C347.286 147.734 347.056 147.539 346.88 147.315C346.481 146.807 346.351 146.148 345.715 146.034C344.591 146.242 344.93 147.032 345.784 147.777C345.972 147.94 346.186 148.103 346.414 148.257C347.866 149.231 349.629 149.147 349.891 148.58C350.158 148.006 349.729 147.649 349.415 147.156C349.241 146.888 348.74 146.524 348.641 146.398C348.401 146.09 348.801 145.762 349.509 146.312L349.522 146.315C349.766 146.428 350.012 146.617 350.228 146.829C350.555 147.145 350.816 147.52 350.901 147.779C352.062 148.188 352.312 147.375 351.609 146.719C351.527 146.599 351.436 146.484 351.341 146.377C351.165 146.178 350.971 146.002 350.765 145.846H350.763C348.875 144.424 346 144.792 347.767 146.97" fill="#1B5B44"/>
<path fill-rule="evenodd" clip-rule="evenodd" d="M351.328 146C352.11 146.029 352.104 146.346 351.838 146.367C351.572 146.391 345.594 148.22 345.187 147.978C344.778 147.738 345.036 147.701 345.995 147.41C347.054 147.088 351.328 146 351.328 146" fill="#1B5B44"/>
<path fill-rule="evenodd" clip-rule="evenodd" d="M338.993 132.253L338.962 132.481C339.191 132.51 339.53 132.664 339.931 132.929C340.636 133.392 341.541 134.183 342.593 135.148C344.171 136.595 346.083 138.431 348.209 140.154C350.338 141.876 352.681 143.49 355.132 144.49C358.362 145.805 362.382 146.552 365.977 146.973C369.573 147.395 372.741 147.487 374.258 147.487C374.713 147.487 375.012 147.481 375.153 147.469C375.188 147.464 375.219 147.464 375.248 147.464C375.32 147.464 375.374 147.473 375.411 147.485C375.469 147.503 375.488 147.522 375.504 147.547C375.521 147.571 375.537 147.617 375.537 147.699C375.539 147.795 375.512 147.935 375.452 148.102C375.343 148.418 375.126 148.83 374.822 149.298C373.754 150.941 371.64 153.274 369.435 155.178C368.333 156.13 367.207 156.977 366.184 157.581C365.672 157.884 365.186 158.126 364.744 158.289C364.301 158.453 363.903 158.539 363.574 158.539C363.481 158.539 363.392 158.533 363.312 158.519C363.14 158.492 362.865 158.463 362.493 158.422C361.193 158.28 358.74 158.011 356.054 157.37C353.37 156.728 350.456 155.713 348.255 154.101C347.525 153.566 346.54 152.74 345.43 151.776C343.764 150.33 341.812 148.573 339.981 147.01C338.15 145.448 336.445 144.082 335.242 143.404C331.636 141.373 328.635 140.501 326.536 140.1C325.486 139.899 324.661 139.816 324.104 139.765C323.825 139.74 323.612 139.722 323.481 139.703C323.417 139.695 323.372 139.683 323.366 139.681L323.312 139.802L323.405 139.71C323.38 139.685 323.368 139.681 323.366 139.681L323.312 139.802L323.405 139.71L323.269 139.845L323.444 139.765C323.432 139.738 323.417 139.722 323.405 139.71L323.269 139.845L323.444 139.765L323.26 139.849H323.463C323.463 139.821 323.457 139.79 323.444 139.765L323.26 139.849H323.463H323.281L323.428 139.96C323.436 139.948 323.461 139.911 323.463 139.849H323.281L323.428 139.96L323.343 139.897L323.417 139.971L323.428 139.96L323.343 139.897L323.417 139.971L323.399 139.952L323.417 139.973V139.971L323.399 139.952L323.417 139.973C323.42 139.969 323.463 139.94 323.531 139.905C326.308 138.474 329.338 136.607 332.055 135.098C333.415 134.346 334.694 133.682 335.821 133.211C336.947 132.738 337.922 132.461 338.641 132.463C338.755 132.463 338.863 132.469 338.962 132.481L339.024 132.025C338.9 132.008 338.774 132 338.641 132C337.809 132.002 336.796 132.302 335.641 132.785C333.913 133.511 331.867 134.656 329.735 135.886C327.602 137.117 325.383 138.433 323.318 139.496C323.246 139.533 323.19 139.564 323.138 139.603C323.112 139.623 323.087 139.646 323.06 139.681C323.033 139.714 323 139.769 323 139.849C323 139.891 323.01 139.936 323.031 139.971C323.068 140.041 323.118 140.069 323.153 140.088C323.221 140.125 323.277 140.135 323.347 140.147C323.473 140.17 323.641 140.187 323.86 140.207C324.622 140.275 326.013 140.392 327.916 140.881C329.817 141.373 332.229 142.236 335.015 143.805C335.773 144.23 336.786 144.979 337.914 145.89C339.607 147.257 341.564 148.992 343.376 150.589C345.19 152.189 346.854 153.646 347.98 154.471C350.592 156.381 354.087 157.448 357.093 158.073C358.596 158.385 359.976 158.587 361.061 158.72C361.603 158.788 362.072 158.84 362.442 158.881C362.814 158.922 363.09 158.951 363.239 158.975C363.347 158.992 363.458 159 363.574 159C364.072 159 364.626 158.85 365.223 158.595C366.269 158.147 367.451 157.37 368.649 156.426C370.445 155.012 372.268 153.219 373.65 151.599C374.341 150.787 374.921 150.02 375.333 149.356C375.539 149.025 375.702 148.721 375.818 148.445C375.932 148.17 376 147.925 376 147.699C376 147.602 375.988 147.51 375.957 147.421C375.909 147.29 375.812 147.17 375.684 147.101C375.556 147.031 375.409 147.004 375.248 147.004C375.204 147.004 375.159 147.006 375.113 147.008C375.008 147.018 374.702 147.026 374.258 147.026C372.76 147.026 369.604 146.934 366.031 146.515C362.46 146.097 358.47 145.353 355.308 144.064C351.671 142.582 348.212 139.673 345.374 137.084C343.954 135.791 342.692 134.58 341.63 133.667C341.097 133.211 340.617 132.826 340.187 132.545C339.755 132.263 339.379 132.074 339.024 132.025L338.993 132.253" fill="#1B5B44"/>
<path fill-rule="evenodd" clip-rule="evenodd" d="M361.831 153.382C360.389 154.18 358.176 154.209 356.889 153.446C355.602 152.682 355.727 151.417 357.169 150.619C358.611 149.819 360.824 149.791 362.111 150.555C363.398 151.317 363.273 152.583 361.831 153.382" fill="#1B5B44"/>
<path fill-rule="evenodd" clip-rule="evenodd" d="M340.738 141.663C339.387 142.186 337.514 142.089 336.554 141.447C335.595 140.804 335.913 139.86 337.263 139.337C338.614 138.814 340.487 138.911 341.445 139.553C342.405 140.194 342.089 141.14 340.738 141.663" fill="#1B5B44"/>
<path fill-rule="evenodd" clip-rule="evenodd" d="M338 132.393C340.064 134.354 344.245 139.051 345.225 139C346.204 138.946 347 138.562 347 138.562L340.656 132.209L339.223 132L338 132.393" fill="#1B5B44"/>
<path fill-rule="evenodd" clip-rule="evenodd" d="M353 156.882C354.034 156.447 354.927 155.918 355.605 156.011C356.284 156.104 367.681 157.487 366.968 157.845C366.256 158.203 364.321 159 364.321 159L360.976 158.576L355.625 157.719L353 156.882" fill="#1B5B44"/>
<path fill-rule="evenodd" clip-rule="evenodd" d="M402 151C399.41 150.438 395.014 148.885 391.32 145.972C389.865 140.782 389.082 135.397 389 130C390.328 133.922 394.803 135.621 397.502 138.731C398.162 139.493 398.705 140.321 399.16 141.201C399.297 141.465 399.426 141.733 399.547 142.007C399.695 142.339 399.834 142.678 399.963 143.022C400.438 144.275 400.791 145.595 401.104 146.941C401.289 147.726 401.457 148.52 401.629 149.312C401.668 149.497 401.707 149.68 401.748 149.864C401.83 150.243 401.914 150.625 402 151" fill="#3EB58A"/>
<path fill-rule="evenodd" clip-rule="evenodd" d="M436.344 157.754C431.164 160.841 427.501 162.709 421.535 163.71C415.573 164.716 408.771 163.146 405.181 158.338C403.488 156.073 402.662 153.355 402 150.559C402.419 150.647 402.791 150.712 403.107 150.752C411.592 151.855 417.162 149.137 426.108 142.055C427.427 141.012 438.835 155.063 437.951 156.5C437.691 156.925 437.178 157.098 436.344 157.754" fill="#3EB58A"/>
<path fill-rule="evenodd" clip-rule="evenodd" d="M416.356 158.646L416.32 158.451C415.719 158.553 415.109 158.608 414.514 158.608C413.801 158.608 413.116 158.529 412.511 158.351C411.908 158.176 411.388 157.906 410.996 157.529C410.593 157.143 410.418 156.743 410.416 156.368C410.418 156.038 410.552 155.716 410.832 155.422C411.111 155.129 411.535 154.869 412.097 154.684C412.676 154.496 413.333 154.392 414.016 154.392C415.426 154.392 416.935 154.835 418.086 155.867C418.438 156.183 418.58 156.502 418.582 156.8C418.582 157.139 418.393 157.484 418.008 157.784C417.624 158.084 417.049 158.329 416.32 158.451L416.356 158.646L416.392 158.838C417.18 158.704 417.821 158.44 418.275 158.086C418.729 157.733 419 157.282 419 156.8C419 156.377 418.787 155.951 418.373 155.582C417.132 154.473 415.517 154 414.016 154C413.289 154 412.588 154.109 411.961 154.315C411.344 154.517 410.858 154.807 410.52 155.161C410.185 155.514 409.998 155.933 410 156.368C409.998 156.862 410.237 157.363 410.697 157.805C411.149 158.236 411.734 158.536 412.389 158.727C413.042 158.917 413.769 159 414.514 159C415.137 159 415.772 158.942 416.392 158.838L416.356 158.646" fill="#1B5B44"/>
<path fill-rule="evenodd" clip-rule="evenodd" d="M413.377 157.096V157.096C413.506 157.256 413.882 157.423 414.021 157.547C414.357 157.846 414.06 158.364 413.371 157.978H413.368C413.062 157.93 412.846 157.772 412.67 157.578C412.274 157.135 412.087 156.498 411.538 156.487C410.617 156.867 410.995 157.6 411.801 158.206C411.979 158.342 412.179 158.469 412.389 158.584C413.726 159.326 415.201 158.965 415.354 158.362C415.512 157.75 415.109 157.462 414.785 157.022C414.609 156.783 414.143 156.498 414.044 156.388C413.805 156.12 414.105 155.731 414.767 156.165L414.776 156.168C414.994 156.241 415.224 156.391 415.433 156.568C415.744 156.831 416.007 157.163 416.109 157.409C417.135 157.631 417.25 156.783 416.581 156.241C416.496 156.137 416.408 156.036 416.313 155.945C416.145 155.773 415.96 155.63 415.766 155.508C414.01 154.389 411.632 155.207 413.377 157.096" fill="#1B5B44"/>
<path fill-rule="evenodd" clip-rule="evenodd" d="M416.458 155.01C417.047 154.926 417.091 155.399 416.896 155.478C416.701 155.553 412.508 159.277 412.167 158.984C411.825 158.687 412.012 158.591 412.685 157.999C413.428 157.34 416.458 155.01 416.458 155.01" fill="#1B5B44"/>
<path fill-rule="evenodd" clip-rule="evenodd" d="M426.832 156.382C425.39 157.18 423.177 157.209 421.89 156.446C420.601 155.682 420.727 154.417 422.169 153.619C423.611 152.819 425.822 152.791 427.111 153.555C428.398 154.317 428.272 155.583 426.832 156.382" fill="#1B5B44"/>
<path fill-rule="evenodd" clip-rule="evenodd" d="M401 146.902C400.846 146.945 400.678 146.976 400.498 146.991C399.173 147.095 397.685 146.289 397.174 145.191C396.662 144.091 397.32 143.114 398.644 143.01C399.056 142.976 399.482 143.031 399.893 143.158C400.354 144.355 400.697 145.616 401 146.902" fill="#1B5B44"/>
<path fill-rule="evenodd" clip-rule="evenodd" d="M425.881 146.282L425.736 146.442C426.006 146.672 426.639 147.262 427.429 148.043C428.616 149.212 430.161 150.815 431.405 152.309C432.026 153.056 432.573 153.775 432.959 154.394C433.153 154.704 433.306 154.988 433.408 155.234C433.512 155.481 433.561 155.689 433.561 155.835C433.561 155.913 433.547 155.972 433.528 156.014C433.508 156.058 433.483 156.09 433.439 156.119C432.724 156.616 430.647 157.985 428.009 159.224C425.371 160.465 422.171 161.574 419.221 161.574C418.543 161.574 417.879 161.515 417.236 161.387C414.081 160.759 410.947 159.34 408.525 157.851C407.315 157.107 406.281 156.346 405.512 155.66C405.128 155.317 404.811 154.994 404.572 154.704C404.331 154.415 404.17 154.158 404.097 153.96C403.903 153.442 403.731 153.08 403.609 152.837C403.549 152.715 403.502 152.622 403.472 152.557C403.457 152.525 403.447 152.502 403.441 152.486L403.439 152.477L403.361 152.492H403.441L403.439 152.477L403.361 152.492H403.441H403.28L403.419 152.566C403.437 152.534 403.441 152.507 403.441 152.492H403.28L403.419 152.566L403.267 152.486L403.37 152.624C403.388 152.61 403.408 152.589 403.419 152.566L403.267 152.486L403.37 152.624L403.288 152.515L403.316 152.648C403.321 152.646 403.341 152.643 403.37 152.624L403.288 152.515L403.316 152.648L403.306 152.604L403.312 152.648H403.316L403.306 152.604L403.312 152.648H403.325C403.355 152.648 403.423 152.654 403.517 152.663C403.609 152.673 403.729 152.686 403.876 152.696C404.013 152.705 404.256 152.77 404.57 152.869C405.52 153.166 407.135 153.733 409.395 153.732C410.89 153.732 412.668 153.486 414.729 152.759C420.926 150.575 426.01 146.453 426.02 146.446L425.881 146.282L425.736 146.442L425.881 146.282L425.739 146.118C425.739 146.118 425.72 146.133 425.683 146.164C425.112 146.615 420.303 150.343 414.58 152.359C412.564 153.067 410.839 153.305 409.395 153.305C407.937 153.305 406.765 153.063 405.861 152.814C405.409 152.69 405.026 152.564 404.705 152.464C404.384 152.365 404.129 152.288 403.907 152.271C403.77 152.262 403.658 152.25 403.564 152.239C403.47 152.229 403.398 152.222 403.325 152.222C403.272 152.222 403.219 152.22 403.139 152.26C403.1 152.281 403.057 152.319 403.033 152.365C403.008 152.41 403 152.458 403 152.492C403.002 152.547 403.014 152.585 403.025 152.622C403.047 152.686 403.078 152.747 403.118 152.827C403.233 153.061 403.437 153.446 403.684 154.107C403.786 154.373 403.97 154.659 404.229 154.971C404.68 155.517 405.36 156.14 406.212 156.793C408.774 158.75 412.915 160.96 417.148 161.806C417.822 161.939 418.518 162 419.221 162C422.282 161.998 425.53 160.863 428.201 159.609C430.872 158.352 432.963 156.974 433.696 156.467C433.8 156.395 433.88 156.298 433.929 156.188C433.98 156.077 434 155.959 434 155.835C433.998 155.525 433.878 155.18 433.684 154.79C433.343 154.109 432.757 153.288 432.054 152.416C431 151.11 429.679 149.697 428.53 148.53C427.954 147.946 427.421 147.424 426.986 147.009C426.551 146.592 426.214 146.284 426.024 146.122L425.883 146L425.739 146.118L425.881 146.282" fill="#1B5B44"/>
<path fill-rule="evenodd" clip-rule="evenodd" d="M401.875 149.442C401.35 149.197 400.671 148.881 399.851 148.498C397.146 147.238 393.779 145.671 393.055 145.308C392.026 144.792 391.658 139.326 391.51 136.848C392.837 137.669 397.31 140.453 399.682 142.052C399.554 141.775 399.419 141.504 399.275 141.236C396.377 139.32 391.644 136.394 391.378 136.233L391 136L391.029 136.518C391.272 140.644 391.631 145.099 392.843 145.708C393.575 146.075 396.946 147.644 399.653 148.903C400.531 149.313 401.385 149.711 402 150C401.957 149.813 401.916 149.628 401.875 149.442" fill="#1B5B44"/>
<path fill-rule="evenodd" clip-rule="evenodd" d="M358 43.9308C366.711 42.6848 367.957 39.1027 369.574 28C370.703 38.5346 372.143 42.5292 381 43.7302C373.275 46.7343 370.56 47.8244 369.181 60C367.278 47.6688 365.582 46.5784 358 43.9308" fill="white"/>
<path fill-rule="evenodd" clip-rule="evenodd" d="M328 115.836C335.208 114.826 336.275 111.701 337.725 102C338.549 111.229 339.697 114.739 347 115.87C340.588 118.429 338.334 119.359 337.069 130C335.625 119.193 334.234 118.222 328 115.836" fill="white"/>
<path fill-rule="evenodd" clip-rule="evenodd" d="M290 64.3419C296.45 63.3669 297.403 60.3549 298.7 51C299.437 59.8994 300.465 63.2828 307 64.374C301.262 66.8411 299.245 67.7374 298.113 78C296.822 67.5773 295.576 66.6424 290 64.3419" fill="white"/>
<path fill-rule="evenodd" clip-rule="evenodd" d="M286.522 20C286.466 20 286.412 19.9903 286.362 19.972C286.217 19.9201 286.101 19.8002 286.061 19.6408C284.601 13.8739 281.391 9.70346 276.248 6.89177C276.016 6.76554 275.933 6.4767 276.058 6.2467C276.146 6.08906 276.31 6 276.477 6C276.555 6 276.633 6.01889 276.707 6.05844C282.095 9.00432 285.457 13.3711 286.985 19.4084C287.051 19.6629 286.895 19.9211 286.64 19.9853C286.6 19.9952 286.562 20 286.522 20" fill="#82615E"/>
<path fill-rule="evenodd" clip-rule="evenodd" d="M287.514 11C287.457 11 287.402 10.9908 287.349 10.9727C287.243 10.9371 287.152 10.8675 287.093 10.7694C285.497 8.14833 283.796 6.19292 281.738 4.61614C279.736 3.08146 277.381 1.89906 274.328 0.89396L274.322 0.892422C274.072 0.807045 273.939 0.546875 274.027 0.308627C274.098 0.118836 274.285 0 274.487 0C274.54 0 274.595 0.00826851 274.648 0.025767C280.892 2.07963 284.742 5.0609 287.935 10.3112C288.069 10.5314 287.988 10.8123 287.756 10.9389C287.679 10.9804 287.595 11 287.514 11" fill="#82615E"/>
<path fill-rule="evenodd" clip-rule="evenodd" d="M138.521 58C138.427 58 138.331 57.975 138.246 57.9223C138.001 57.7729 137.926 57.4573 138.08 57.2174C141.645 51.6222 146.65 48.2831 153.377 47.0094C153.41 47.003 153.445 47 153.478 47C153.723 47 153.941 47.17 153.989 47.4147C154.011 47.5183 153.998 47.621 153.959 47.7114C153.893 47.8629 153.753 47.9807 153.576 48.0143C147.149 49.2308 142.372 52.4185 138.966 57.7592C138.867 57.9146 138.696 58 138.521 58" fill="#82615E"/>
<path fill-rule="evenodd" clip-rule="evenodd" d="M133.512 59C133.447 59 133.381 58.9885 133.317 58.9642C133.056 58.8648 132.931 58.5884 133.038 58.3472C135.692 52.4094 139.232 48.8454 145.26 46.0504C145.333 46.0162 145.412 46 145.489 46C145.675 46 145.855 46.0953 145.945 46.2606C146.016 46.3897 146.016 46.5342 145.96 46.6576C145.915 46.757 145.831 46.8426 145.718 46.895C142.709 48.2903 140.435 49.8277 138.561 51.733C136.737 53.5873 135.283 55.8028 133.985 58.7076L133.983 58.7121C133.901 58.8917 133.713 59 133.512 59" fill="#82615E"/>
</svg>
