<svg width="476" height="170" viewBox="0 0 476 170" fill="none" xmlns="http://www.w3.org/2000/svg">
<path fill-rule="evenodd" clip-rule="evenodd" d="M204 166.854L151.834 167.993L151.42 168C149.917 160.518 146.517 153.093 148.725 148.832C151.366 143.739 170.802 108.888 184.165 92.0944C188.42 86.7456 192.06 83.2294 194.344 83.0895C195.592 83.0127 196.64 82.9902 197.514 83.0037L197.581 83.006C197.816 83.0082 198.036 83.015 198.248 83.0263H198.257C203.124 83.2587 201.651 84.8859 201.651 84.8859L204 166.854" fill="#58585F"/>
<path fill-rule="evenodd" clip-rule="evenodd" d="M247.138 168.306C239.337 168.306 164.739 169.407 153.526 168.835C153.032 168.808 152.664 168.627 152.414 168.299C148.124 162.671 178.264 114.522 193.825 94.5888C197.951 89.3032 201.05 86 202.212 86C203.262 86 206.04 89.3658 209.746 94.7341C224.363 115.917 253.36 168.306 247.138 168.306" fill="#1D6B97"/>
<path fill-rule="evenodd" clip-rule="evenodd" d="M193.234 95C191.431 94.8448 186.251 93.911 184 93.4962C185.692 91.3436 187.29 89.4806 188.748 88L199 88.0996C197.486 89.6428 195.514 92.0179 193.234 95" fill="#474851"/>
<path fill-rule="evenodd" clip-rule="evenodd" d="M209 95C208.329 95 205.087 94.9977 201.683 94.9816C198.096 94.9655 194.33 94.9287 193.2 94.8643C193.142 94.8597 193.072 94.8551 193 94.8505C195.257 91.8899 197.208 89.532 198.706 88L203.89 88.0506C205.233 89.6103 206.979 92.0003 209 95" fill="#21577D"/>
<path fill-rule="evenodd" clip-rule="evenodd" d="M369 90H368.993L21.185 86.7626L11 84.5275C11 84.5275 12.1195 82.9934 13.6105 80.9736C13.8842 80.6022 14.1702 80.2132 14.4646 79.8154C15.1476 78.8967 15.8701 77.9231 16.5781 76.978C17.3069 76.0044 18.0191 75.0637 18.6498 74.2396C19.3725 73.2967 19.9947 72.5077 20.4185 72L193.329 74.2066L231.342 74.7341L359.344 76.6769L362.573 81.1341L362.709 81.3209L365.832 85.6286L366.181 86.1099L369 90" fill="#523637"/>
<path fill-rule="evenodd" clip-rule="evenodd" d="M368.935 94L11 88.8871L11.0661 85L369 90.115L368.935 94" fill="#2C2D34"/>
<path fill-rule="evenodd" clip-rule="evenodd" d="M12.5391 98C12.4448 98 12.3495 97.9726 12.2675 97.9154C7.39916 94.5126 4.69569 90.1201 4.00319 84.4913C3.97352 84.2514 4.15418 84.032 4.40663 84.0046C4.42481 84.0023 4.443 84 4.46095 84C4.69114 84 4.89023 84.1645 4.91775 84.3885C5.5789 89.7613 8.16081 93.9549 12.8114 97.2047C12.9399 97.2961 13.0052 97.4378 12.9997 97.5772C12.9959 97.6618 12.9671 97.7463 12.9109 97.8195C12.8207 97.9383 12.6809 98 12.5391 98" fill="#775B56"/>
<path fill-rule="evenodd" clip-rule="evenodd" d="M4.59601 95C4.47603 95 4.3571 94.9407 4.27725 94.8244C0.992555 90.0913 -0.236474 85.6287 0.0369005 79.4342C0.0476169 79.1898 0.226224 79 0.440343 79C0.447067 79 0.453791 79 0.460725 79C0.682408 79.0119 0.853241 79.223 0.844626 79.4745L0.844416 79.4792C0.711196 82.5089 0.940654 84.9976 1.56704 87.3132C2.21066 89.6904 3.27432 91.8992 4.91393 94.2622C4.9755 94.3523 5.00344 94.4567 4.99966 94.5611C4.99525 94.6916 4.9423 94.8173 4.84501 94.9027C4.77104 94.9692 4.68321 95 4.59601 95" fill="#775B56"/>
<path fill-rule="evenodd" clip-rule="evenodd" d="M15.975 79.035C15.9742 79.035 15.9742 79.035 15.973 79.035C15.9911 79.0144 16.0093 78.9897 16.027 78.965C16.0097 78.9897 15.9924 79.0144 15.975 79.035" fill="#A49A8D"/>
<path fill-rule="evenodd" clip-rule="evenodd" d="M76.7783 83C72.6129 83 68.2571 82.9591 63.7681 82.8748C40.9559 82.4489 21.5148 81.0072 14 79.3586C14.0094 79.3466 14.0188 79.3321 14.0282 79.3177C14.731 78.3213 15.4732 77.272 16.2006 76.2491C20.6552 75.6643 27.5679 75.231 36.0548 75C39.9775 76.9615 44.1413 78.4681 48.4926 79.4597C49.0686 79.5897 49.6458 79.7124 50.2251 79.8231L50.7853 79.929C50.9776 79.9627 51.1705 79.9988 51.3628 80.0301C51.3776 80.0325 51.3924 80.0349 51.4071 80.0373C51.5013 80.0542 51.5956 80.071 51.6897 80.0878L52.2522 80.1793C52.8346 80.2708 53.4181 80.3526 54.0021 80.4272C56.249 80.7088 58.4879 80.846 60.7131 80.846C64.3232 80.846 67.894 80.4826 71.3824 79.7822C75.7929 78.9061 80.0336 77.4934 84.0486 75.6089C103.41 76.5668 117.029 78.2443 117 79.9025C116.966 81.7629 99.8565 83 76.7783 83" fill="#402E33"/>
<path fill-rule="evenodd" clip-rule="evenodd" d="M354.337 87C347.694 87 340.316 86.8683 332.549 86.5951C303.467 85.5691 279.94 82.9037 280 80.6381C280.045 78.9787 292.765 78 311.016 78C317.651 78 325.015 78.1292 332.769 78.4024C343.931 78.7974 354.275 79.4309 362.779 80.196L362.915 80.4071L366.019 85.276L366.365 85.82L367 86.8162C363.212 86.9354 358.951 87 354.337 87" fill="#402E33"/>
<path fill-rule="evenodd" clip-rule="evenodd" d="M91.0136 72H91C92.7223 71.0783 94.3915 70.0776 96 69C94.3995 70.0737 92.7354 71.0763 91.0136 72" fill="#CABBA7"/>
<path fill-rule="evenodd" clip-rule="evenodd" d="M85.1027 76C85.0935 76 85.0851 76 85.0757 76C86.3176 75.5447 87.5396 75.0554 88.7403 74.5302C89.841 74.0485 90.9239 73.5384 91.9863 73H92C89.7903 74.1222 87.4867 75.1272 85.1027 76M36.8655 75.522C35.1991 74.8722 33.5755 74.1581 32 73.3854C33.5766 74.1562 35.2068 74.8703 36.8863 75.522C36.8793 75.522 36.8727 75.522 36.8655 75.522" fill="#4A3235"/>
<path fill-rule="evenodd" clip-rule="evenodd" d="M51.991 79C51.8027 78.9751 51.6138 78.9464 51.4255 78.9196L50.8768 78.8354C50.3096 78.7474 49.7443 78.6498 49.1803 78.5464C44.919 77.7579 40.8415 76.5598 37 75C37.007 75 37.0134 75 37.0202 75C39.645 76.0603 42.3967 76.9598 45.2614 77.6794C46.0075 77.867 46.7552 78.0411 47.5011 78.2019C48.5327 78.4239 49.5654 78.6172 50.5968 78.7876C50.7265 78.8086 50.8562 78.8297 50.9861 78.8507C51.1685 78.8794 51.3506 78.9062 51.5328 78.933C51.6849 78.956 51.8378 78.9789 51.991 79M71.5961 78.8029C75.8718 78.1062 80.0238 76.9866 83.9737 75.4842C83.9829 75.4842 83.991 75.4842 84 75.4842C80.0681 76.9828 75.9153 78.1062 71.5961 78.8029" fill="#3B2B32"/>
<path fill-rule="evenodd" clip-rule="evenodd" d="M112 51C114.255 47.1339 116.089 42.9643 117.431 38.5325C117.527 38.2155 117.618 37.8984 117.709 37.5814C117.84 37.1161 117.967 36.6508 118.086 36.1855C118.445 34.7918 118.749 33.3959 119 32C117.797 38.8108 115.389 45.211 112 51" fill="#CABBA7"/>
<path fill-rule="evenodd" clip-rule="evenodd" d="M350.206 1.09602C350.068 1.03132 349.932 0.96744 349.794 0.903977C349.885 0.945187 349.973 0.986809 350.064 1.02884C350.111 1.0511 350.159 1.07376 350.206 1.09602" fill="#8BC3CB"/>
<path fill-rule="evenodd" clip-rule="evenodd" d="M416.872 167C394.75 167 375.554 166.344 366 165.384C375.437 164.217 381.307 162.937 382.81 161.587C392.333 161.217 404.115 161 416.872 161C448.526 161 476 161.763 476 163.42C476 165.077 448.526 167 416.872 167" fill="#D0C2AB"/>
<path fill-rule="evenodd" clip-rule="evenodd" d="M393.012 158.841C392.914 156.61 393.452 151 393.452 151L400 151.109L399.108 159.529L394.618 162L393.012 158.841" fill="#FFFFFE"/>
<path fill-rule="evenodd" clip-rule="evenodd" d="M392.12 158.029C391.486 157.85 391.742 158.526 391.49 159.582C390.915 162.004 382.903 161.956 381.692 162.158C381.067 162.26 380.008 165.817 383.111 165.848C385.796 165.874 394.392 165.993 397.327 166C397.942 166.002 398.485 165.55 398.642 164.896C399.206 162.555 399.113 158.913 398.295 158.823C397.064 158.369 394.766 158.766 392.12 158.029" fill="#191B28"/>
<path fill-rule="evenodd" clip-rule="evenodd" d="M456.527 143C454.333 142.396 449 140.138 449 140.138L450.719 134L458.699 137.465L460 142.47L456.527 143" fill="#FFFFFE"/>
<path fill-rule="evenodd" clip-rule="evenodd" d="M454.09 143.245C453.745 143.829 454.441 143.755 455.347 144.291C457.419 145.515 455.081 153.491 454.923 154.754C454.839 155.405 457.822 157.415 458.736 154.33C459.53 151.661 462.098 143.124 462.945 140.198C463.122 139.585 462.859 138.922 462.301 138.589C460.301 137.399 456.909 136.508 456.592 137.302C455.819 138.406 455.528 140.807 454.09 143.245" fill="#191B28"/>
<path fill-rule="evenodd" clip-rule="evenodd" d="M391.015 155.588C391.564 155.652 392.083 155.708 392.574 155.755C395.579 156.042 397.526 156.019 398.531 155.97C399.09 155.941 399.359 155.903 399.359 155.903C399.93 153.326 400.082 143.241 400.582 134.474C400.684 132.675 400.802 130.93 400.94 129.319C401.256 125.653 401.683 122.666 402.299 121.261C404.23 116.852 408.21 107.713 411.055 101.168V101.163C412.888 96.955 414.249 93.8231 414.3 93.709C415.642 103.396 416.064 109.154 419.107 119.443C419.837 121.443 421.054 123.384 422.604 125.246C423.821 126.711 425.244 128.125 426.79 129.472C436.469 137.91 451.021 143.789 451.021 143.789C451.417 143.19 451.769 142.583 452.076 141.984C453.241 139.724 453.82 137.552 453.964 136.185C454.06 135.27 453.96 134.715 453.711 134.742C451.339 133.344 445.978 130.255 440.907 126.778C439.032 125.494 437.199 124.158 435.566 122.834C432.169 120.073 429.66 117.371 429.538 115.322C429.193 109.624 430.768 88.331 429.618 74.4474C429.498 73.0112 409.257 72 409.257 72L404.35 72.2103C400.291 82.0021 393.577 114.416 392.57 119.592C392.223 121.382 391.913 126.024 391.664 131.409C391.593 132.923 391.529 134.498 391.469 136.082C391.122 145.158 390.946 154.61 391.015 155.588" fill="#34343E"/>
<path fill-rule="evenodd" clip-rule="evenodd" d="M412 102C412 101.998 412.002 101.995 412.002 101.995C413.688 97.4971 414.944 94.144 415 94C414.959 94.1344 413.879 97.7828 412 102" fill="#726B6B"/>
<path fill-rule="evenodd" clip-rule="evenodd" d="M412 102C412.609 97.0177 414.516 88 414.516 88C414.516 88 414.679 91.455 415 94.4139C415 94.4139 415 94.4162 415 94.4185C414.944 94.555 413.687 97.7347 412 102" fill="#242532"/>
<path fill-rule="evenodd" clip-rule="evenodd" d="M449.055 81.0733C449.118 82.3771 448.727 82.0965 448.582 83.82C448.437 85.5436 447.494 88.0842 448.365 88.181C449.234 88.2804 449.692 87.1703 450.059 86.8946C450.426 86.6189 449.68 87.7589 450.313 88.4567C450.942 89.1571 453.095 89.2191 453.923 88.4145C454.753 87.6123 455.178 86.2265 454.929 84.58C454.681 82.9334 453.505 80.8597 453.218 80.1718C452.931 79.4864 449.055 81.0733 449.055 81.0733" fill="#E6A79D"/>
<path fill-rule="evenodd" clip-rule="evenodd" d="M411.694 39L417.012 38.0037C417.271 35.6744 419.173 30.3428 418.987 28.2223C418.78 25.8953 418.562 26.0007 418.562 26.0007L414.774 27.8049L412.992 28.6531C412.992 28.6531 413.107 29.6 412.571 31.1237C412.195 32.1918 411.501 33.5427 410.224 35.0529C409.266 36.1838 411.694 39 411.694 39" fill="#E7A89E"/>
<path fill-rule="evenodd" clip-rule="evenodd" d="M412.794 31V31C413.224 29.3056 413.198 28 413.198 28C413.198 28 413.29 29.0515 412.862 30.7434C412.842 30.8281 412.818 30.9128 412.794 31" fill="#CABBA7"/>
<path fill-rule="evenodd" clip-rule="evenodd" d="M414.902 32C414.346 32 413.701 31.8303 413 31.3985C413.026 31.3233 413.052 31.2503 413.073 31.1772C413.536 29.7186 413.437 28.812 413.437 28.812L414.978 28C414.978 28 416.479 29.3985 416.874 29.9742C417.341 30.6552 416.467 32 414.902 32" fill="#C7938D"/>
<path fill-rule="evenodd" clip-rule="evenodd" d="M413.267 20C412.525 21.6012 409.608 24.1007 410.709 24.5109C411.81 24.9234 409.142 27.8936 410.296 28.3755C413.099 29.5367 417.027 28.9449 417.901 27.6941C418.777 26.4432 420 22.4867 420 22.4867L413.267 20" fill="#E7A89E"/>
<path fill-rule="evenodd" clip-rule="evenodd" d="M415.609 23.0252C414.727 22.8067 414.624 22.9998 414.139 22.4863C413.652 21.9708 414.982 21.5271 413.942 20.9248C412.903 20.3224 411.465 19.1453 412.203 17.9911C413.401 16.1194 414.973 17.3652 415.9 17.9582C416.493 18.3397 416.73 17.3294 417.999 17.8763C418.994 18.3056 418.229 18.5894 419.099 19.0121C419.626 19.2673 421.023 18.7577 421.629 19.7428C422.754 21.5698 420.882 22.5903 421.711 24.4022C422.679 26.5133 417.934 28.4568 417.669 27.9051C417.357 27.2622 418.647 25.9362 418.3 25.3803C417.775 24.5422 417.451 25.1406 416.623 25.497C415.739 25.8747 414.517 25.4588 415.736 24.5422C416.956 23.6257 416.41 23.2226 415.609 23.0252" fill="#191B28"/>
<path fill-rule="evenodd" clip-rule="evenodd" d="M431.068 88C431.068 88 431.027 87.9827 430.957 87.9538C430.953 86.9644 430.948 85.9779 430.932 85L431.068 88" fill="#726B6B"/>
<path fill-rule="evenodd" clip-rule="evenodd" d="M430 87C429.116 86.5272 418.748 80.929 418.032 78.5322C417.965 78.307 418.005 78.133 418.135 78C418.428 78.7164 418.887 79.3407 419.578 79.8094C422.358 81.6987 427.835 83.3157 429.499 83.5879C429.62 83.6084 429.77 83.6247 429.944 83.637L429.987 84.904C429.996 85.5979 429.998 86.2979 430 87" fill="#242532"/>
<path fill-rule="evenodd" clip-rule="evenodd" d="M375 29.925C374.138 28.9741 373.688 28.2894 372.392 27.2156C371.139 26.1783 370.153 25.4753 369.87 23.9648C369.637 22.7272 367.972 17.9343 367.536 18.0007C366.022 18.2309 366.862 22.1995 367.231 23.0867C369.196 27.823 366.106 26.797 366.005 27.9868C365.906 29.1743 367.33 27.8276 369.291 29.8636C370.469 31.0852 371.457 32.6526 372.095 32.9779C372.733 33.3032 375 29.925 375 29.925" fill="#E7A89E"/>
<path fill-rule="evenodd" clip-rule="evenodd" d="M419.49 32.1316C418.324 31.7271 417.448 32.3294 416.601 32.9295C415.928 33.406 415.273 33.8824 414.503 33.8599C413.447 33.8262 413.566 32.9003 413.13 32.3541C412.932 32.1069 412.562 32.1361 412.048 32.1676C411.859 32.1788 411.653 32.1878 411.427 32.1856C409.218 32.1609 405 74.4378 405 74.4378C405 74.4378 410.911 76.6561 415.351 76.9483C419.794 77.2382 427.03 76.283 427 74.7525C426.97 73.222 423.423 34.696 423.423 34.696C423.423 34.696 421.583 32.8553 419.49 32.1316" fill="#FFFFFE"/>
<path fill-rule="evenodd" clip-rule="evenodd" d="M419.461 33.049C419.037 35.4654 420.699 45.9636 417.825 53.7671C417.235 55.3714 417.012 56.989 417 58.5622C416.992 59.7727 417.11 60.9542 417.287 62.0868C417.774 65.2398 418.708 67.9923 418.596 69.7857C418.455 72.0308 417.926 74.9969 418.547 77.2888C418.817 78.3012 419.316 79.1802 420.165 79.8076C422.943 81.8614 428.414 83.6193 430.077 83.9152C431.744 84.2134 438.928 83.7951 436.57 81.5299C432.889 77.9942 430.435 72.4024 429.366 67.8053C428.982 66.1521 428.776 64.6279 428.759 63.3729C428.75 62.8455 428.754 62.3605 428.774 61.9332C428.799 61.4615 428.843 61.0565 428.908 60.7406C429.013 60.2266 429.136 59.6992 429.268 59.1741C429.865 56.8088 430.647 54.4813 430.781 53.4511V53.4422C430.799 53.3109 430.804 53.1996 430.797 53.1151L430.795 53.0817C431.691 53.6958 441.594 61.5305 444.11 67.3492C447.063 75.7334 447.955 81.7168 448.415 83.4279L448.446 83.4479C450.71 83.1453 454.237 82.5668 454.919 81.8993L454.928 81.8837C455.529 78.5682 452.232 70.293 450.69 64.7725C449.246 59.5969 437.933 46.66 432.153 40.9348C428.314 37.1343 419.468 33 419.468 33L419.461 33.049" fill="#1B5E91"/>
<path fill-rule="evenodd" clip-rule="evenodd" d="M429.004 63C429.004 62.9898 429.004 62.9777 429.004 62.9675C428.995 62.486 429 62.0431 429.02 61.653C429.029 61.5068 429.04 61.3707 429.051 61.2406C429.007 61.7201 428.993 62.3072 429.004 62.9675C429.004 62.9777 429.004 62.9898 429.004 63M429.195 60.3772C429.282 59.9993 429.38 59.6133 429.487 59.2293C429.382 59.6133 429.282 59.9993 429.195 60.3772M430.507 55.8386C430.74 55.0747 430.927 54.4327 431 54C430.927 54.4348 430.74 55.0767 430.507 55.8386" fill="#ACA093"/>
<path fill-rule="evenodd" clip-rule="evenodd" d="M429.226 67C429.136 66.8143 429.239 66.615 429.152 66.3772C428.688 65.1022 427.719 53.3847 428.078 51C428.078 51 430.103 52.2524 431 53.4549V53.4572L430.975 53.8965V53.9011C430.915 54.3834 430.764 55.0991 430.574 55.9506C430.332 57.0286 430.027 58.3195 429.766 59.6239C429.758 59.6602 429.751 59.6941 429.746 59.7304C429.659 60.1584 429.58 60.5887 429.509 61.0099C429.497 61.0801 429.486 61.1503 429.473 61.2183C429.439 61.4334 429.412 61.6848 429.392 61.9724C429.383 62.1173 429.374 62.2691 429.367 62.4321C429.35 62.8669 429.347 63.3607 429.354 63.8974C429.354 63.9087 429.354 63.9223 429.354 63.9336C429.36 64.8644 429.195 65.8994 429.226 67" fill="#1C4C75"/>
<path fill-rule="evenodd" clip-rule="evenodd" d="M436 44C434.906 42.8682 433.886 41.8494 433 41C434.315 42.1067 435.019 42.8849 436 44" fill="#C1B4A1"/>
<path fill-rule="evenodd" clip-rule="evenodd" d="M418.99 42C416.349 40.1005 414.777 35.3913 414.516 35.3913C414.514 35.3913 414.51 35.3936 414.508 35.3936C414.493 35.4003 414.481 35.4049 414.466 35.4049C414.319 35.4049 414.119 35.0525 414.036 34.7024C413.955 34.3523 413.994 34 414.328 34C414.361 34 414.396 34.0045 414.435 34.0113C415.087 34.131 415.075 34.9305 415.559 35.5246C416.434 36.5951 417.583 37.8329 418.979 38.8154C419 39.8204 419.008 40.891 418.99 42" fill="#D3D3D1"/>
<path fill-rule="evenodd" clip-rule="evenodd" d="M429.627 44C426.931 44 424.276 43.9458 422.748 43.7059C421.776 43.551 420.874 43.2027 420.055 42.7518C420.039 42.7441 420.025 42.7363 420.011 42.7286C420.032 41.7784 420.023 40.8612 420 40C420.137 40.0755 420.273 40.1471 420.414 40.2167C421.33 40.6812 422.338 41.0605 423.431 41.283C424.128 41.4262 425.66 41.5056 427.368 41.5056C429.281 41.5056 431.417 41.4049 432.851 41.1843C432.851 41.1863 432.851 41.1863 432.851 41.1863C433.78 41.9719 434.85 42.9144 435.998 43.9613H436C435.966 43.9613 435.929 43.9613 435.895 43.9613C435.055 43.9613 434.06 43.971 432.992 43.9806C431.917 43.9903 430.77 44 429.627 44" fill="#1D527F"/>
<path fill-rule="evenodd" clip-rule="evenodd" d="M413.065 34.9987C413.15 34.5506 413.557 33.8649 414.489 34.0233C415.193 34.1432 415.213 34.442 415.736 35.0372C417.309 36.8252 419.709 39.0839 422.8 39.8376C425.889 40.5913 433.57 37.3525 438.075 38.9776C442.583 40.6003 443.461 44.9955 450.016 46.9465C456.572 48.8974 464.135 46.9691 466.066 47.5689C467.997 48.1709 469.137 48.7639 468.987 49.5492C468.837 50.3346 467.686 51.5183 466.229 51.8985C464.77 52.2787 452.443 51.5296 449.271 50.6695C444.096 49.2686 440.178 43.8639 436.823 43.117C433.469 42.3702 426.076 43.4113 422.127 42.6689C417.723 41.8406 414.775 36.1372 414.458 36.2979C414.14 36.4585 413.845 36.6147 413.293 36.3952C412.915 36.2458 412.98 35.4446 413.065 34.9987" fill="#E8A72D"/>
<path fill-rule="evenodd" clip-rule="evenodd" d="M373.865 26.167C373.004 24.8493 368.041 31.7304 369.165 32.7248C370.847 34.2197 378.891 46.3231 384.84 47.7937C390.479 49.1867 402.938 42.9169 403.89 43.7961C405.009 44.8282 404.647 49.7559 404.331 54.677C404.248 55.9482 404.153 57.1552 404.057 58.2072C403.919 59.6711 403.773 60.8339 403.632 61.4451C403.003 64.1914 399.529 78.5493 402.621 78.0288C405.885 77.4796 411.008 81.1206 411.954 79.6456C412.205 79.2536 411.372 77.1452 410.821 75.0323C409.622 70.4036 408.584 64.1781 408.265 58.989H408.262C408.222 58.2936 408.215 57.6425 408.253 57.0467C408.283 56.5993 408.31 56.1719 408.332 55.7666C408.685 49.7227 408.51 47.8645 409.718 40.5206L411.269 32.6938C411.203 32.6916 411.138 32.6894 411.073 32.6849C403.212 32.4435 393.09 38.2128 388.408 38.5362C383.726 38.8595 374.728 27.487 373.865 26.167" fill="#1B5E91"/>
<mask id="mask0_0_1062" style="mask-type:alpha" maskUnits="userSpaceOnUse" x="285" y="20" width="24" height="54">
<path fill-rule="evenodd" clip-rule="evenodd" d="M285 20.84H308.402V73.8568H285V20.84" fill="white"/>
</mask>
<g mask="url(#mask0_0_1062)">
<path d="M308.402 20.8602C288.515 20.2276 294.302 34.4458 287.822 48.8958C280.359 65.5392 288.7 71.8807 301.131 73.8568C299.408 71.8447 298.001 69.546 296.931 67.0617C288.871 57.0277 292.116 38.7479 304.643 24.7425C305.995 23.2305 307.227 21.9398 308.402 20.8602Z" fill="#E0D7A5"/>
</g>
<path d="M352.566 42.3546C350.719 47.5098 347.329 53.2964 342.538 58.9909C338.804 63.4267 334.653 66.9218 330.368 69.4531C325.413 72.6342 319.268 74.5111 312.396 74.5111C308.552 74.5111 304.77 74.2982 301.304 73.7476C303.351 76.1398 305.841 78.1247 308.732 79.5104C326.676 88.1121 327.808 72.1343 346.793 64.0259C357.453 59.4716 357.491 50.5725 352.566 42.3546" fill="#E0D7A5"/>
<path d="M330.361 25.7255C333.008 26.2045 335.519 27.0672 337.766 28.3264C343.791 31.7057 349.28 36.8777 352.563 42.3535C355.795 33.3278 354.291 26.2342 347.219 24.9474C339.444 23.5382 333.368 23.0869 327.529 19.0434C320.336 14.0654 314.032 15.7063 308.562 20.7413C308.947 20.7518 309.34 20.771 309.747 20.7941C317.336 21.237 324.58 22.701 330.359 25.7255" fill="#E0D7A5"/>
<path d="M304.699 24.7221C292.178 38.7271 288.934 57.0063 296.991 67.04C293.374 58.6406 293.625 48.1641 298.721 39.8004C305.509 28.6637 319.12 23.8072 330.295 25.8252C324.506 22.801 317.249 21.3376 309.649 20.8927C309.24 20.8693 308.846 20.8546 308.458 20.84C307.283 21.9196 306.051 23.2102 304.699 24.7221" fill="#AD9B26"/>
<path d="M337.736 28.5041C335.476 27.2409 332.953 26.3792 330.295 25.9C337.943 29.8873 343.032 36.5861 342.974 47.2578C342.922 56.5166 338.08 64.698 330.302 69.68C334.608 67.146 338.781 63.6483 342.533 59.205C347.348 53.5048 350.752 47.7118 352.608 42.5481C349.309 37.0656 343.793 31.8852 337.738 28.5041" fill="#AD9B26"/>
<path d="M330.145 25.4662C318.963 23.4478 305.343 28.3063 298.55 39.456C293.451 47.8325 293.197 58.3243 296.818 66.7323C297.889 69.2168 299.294 71.5233 301.02 73.5379C304.492 74.089 308.282 74.3 312.136 74.3C319.024 74.3 325.184 72.4209 330.149 69.2368C337.91 64.2579 342.741 56.0756 342.79 46.8187C342.849 36.1495 337.771 29.4516 330.145 25.4652" fill="#BAA046"/>
<path d="M326.666 58.24H326.61C323.613 58.24 321.653 57.5307 320.785 56.1395C320.757 56.0576 320.701 56.0031 320.673 55.9485L320.589 56.1122V56.1122C319.84 57.5166 317.994 58.2258 314.995 58.2398L314.848 58.24C311.851 58.24 309.751 57.5307 308.603 56.1395C307.455 54.7482 306.867 52.8113 306.867 50.3561V38.3802C306.867 37.971 307.063 37.78 307.483 37.78H311.291C311.711 37.78 311.907 37.971 311.907 38.3802V50.3288C311.907 51.4473 312.159 52.3203 312.636 52.9204C313.112 53.5206 313.98 53.8207 315.184 53.8207C316.388 53.8207 317.172 53.5206 317.536 52.9204C317.9 52.3203 318.069 51.4473 318.069 50.3288V38.3802C318.069 37.971 318.265 37.78 318.685 37.78H322.493C322.913 37.78 323.109 37.971 323.109 38.3802V50.3288C323.109 51.4473 323.361 52.3203 323.838 52.9204C324.314 53.5206 325.182 53.8207 326.386 53.8207C327.59 53.8207 328.374 53.5206 328.738 52.9204C329.102 52.3203 329.27 51.4473 329.27 50.3288V38.3802C329.27 37.971 329.466 37.78 329.887 37.78H333.695C334.115 37.78 334.311 37.971 334.311 38.3802V50.3561C334.311 52.784 333.807 54.7209 332.771 56.1122C331.735 57.5308 329.719 58.24 326.666 58.24Z" fill="white"/>
<ellipse cx="56" cy="46" rx="28" ry="33" fill="#E0D7A5"/>
<path d="M72.6215 63.9906C71.4505 66.0412 69.5477 67.8821 66.913 69.5132C64.2782 71.1444 60.9117 71.96 56.8132 71.96C51.4501 71.96 47.1292 70.3405 43.8504 67.1015C40.5716 63.8625 38.9323 59.2487 38.9323 53.26V38.1602C38.9323 32.2647 40.4897 27.6975 43.6045 24.4585C46.7193 21.2195 50.8529 19.6 56.0052 19.6C61.2278 19.6 65.2209 20.9107 67.9844 23.5322C70.7479 26.1537 72.2234 29.8296 72.4107 34.56V43.2222H65.4902C65.422 41.3753 66.0178 35.9715 65.4902 32.2436C65.1125 29.5748 63.7336 28.2246 63.0838 27.5344C61.5264 25.8799 59.202 25.0527 56.1106 25.0527C52.9958 25.0527 50.5367 26.1654 48.7334 28.3907C46.9301 30.6161 46.0284 33.8492 46.0284 38.0903V53.26C46.0284 57.5942 46.9945 60.8973 48.9266 63.1692C50.8588 65.4412 53.4876 66.5772 56.8132 66.5772C59.2489 66.5772 61.14 66.1636 62.4866 65.3363C63.8333 64.5091 64.8345 63.4547 65.4902 62.1731V50.6035H56.743V45.4654H72.6215V63.9906Z" fill="white"/>
</svg>
