<svg width="390" height="306" viewBox="0 0 390 306" fill="none" xmlns="http://www.w3.org/2000/svg">
<path fill-rule="evenodd" clip-rule="evenodd" d="M262.496 249.717C266.243 275.118 248.687 298.749 223.283 302.496C200.036 305.925 178.273 291.514 171.876 269.571C171.282 267.538 170.822 265.44 170.504 263.283C170.066 260.32 169.92 257.38 170.041 254.493C170.681 239.316 178.743 225.6 191.126 217.53C192.762 216.46 194.476 215.492 196.256 214.632C197.407 214.076 198.585 213.565 199.791 213.103C202.931 211.897 206.25 211.014 209.714 210.504C215.908 209.591 221.994 209.942 227.713 211.366C245.458 215.783 259.662 230.505 262.496 249.717" fill="#E8A72D"/>
<path fill-rule="evenodd" clip-rule="evenodd" d="M169 254C169.645 238.599 177.775 224.681 190.263 216.492C191.912 215.407 193.641 214.424 195.436 213.552C196.596 212.988 197.784 212.469 199 212C198.977 214.201 198.89 216.526 198.697 218.909C198.544 220.802 198.319 222.729 198.008 224.661H198.006C197.266 225.074 196.545 225.51 195.839 225.972C195.816 225.987 195.793 226.003 195.77 226.018C195.043 226.495 194.337 227.001 193.654 227.529H193.651C193.649 227.532 193.649 227.532 193.646 227.532C191.678 229.05 189.883 230.772 188.284 232.658C188.213 232.74 188.144 232.824 188.075 232.909C187.963 233.04 187.856 233.173 187.746 233.307C187.683 233.386 187.619 233.468 187.555 233.548C187.461 233.666 187.372 233.781 187.28 233.899C187.231 233.961 187.183 234.025 187.135 234.089L187.122 234.104C186.982 234.292 186.839 234.479 186.701 234.669C186.635 234.761 186.566 234.854 186.502 234.946L186.495 234.956C186.395 235.092 186.301 235.228 186.207 235.364C186.168 235.421 186.13 235.474 186.092 235.531C186.031 235.621 185.969 235.71 185.908 235.8C185.893 235.823 185.878 235.844 185.865 235.867C185.855 235.88 185.847 235.893 185.837 235.905C185.834 235.911 185.834 235.913 185.832 235.916C185.822 235.929 185.814 235.941 185.806 235.954C185.801 235.962 185.796 235.967 185.791 235.975C185.786 235.982 185.781 235.993 185.773 236C185.768 236.011 185.763 236.018 185.758 236.026C185.75 236.039 185.743 236.049 185.735 236.062C185.732 236.065 185.73 236.067 185.727 236.072C185.633 236.213 185.541 236.357 185.449 236.501C185.419 236.549 185.388 236.598 185.358 236.647C185.345 236.665 185.335 236.683 185.322 236.701C185.238 236.837 185.154 236.97 185.072 237.106C184.899 237.388 184.733 237.671 184.57 237.955C184.396 238.258 184.228 238.561 184.065 238.869C184.057 238.881 184.05 238.892 184.045 238.905C184.04 238.912 184.037 238.92 184.032 238.925C183.945 239.092 183.856 239.259 183.772 239.428C183.754 239.464 183.734 239.5 183.716 239.536C183.667 239.633 183.616 239.731 183.568 239.831L183.56 239.844C183.54 239.887 183.519 239.931 183.496 239.974C183.377 240.221 183.257 240.472 183.142 240.721C183.134 240.736 183.129 240.749 183.122 240.762C183.119 240.772 183.114 240.782 183.109 240.793C183.032 240.96 182.956 241.129 182.882 241.296C182.877 241.308 182.872 241.321 182.867 241.334C182.859 241.349 182.854 241.362 182.846 241.375C182.846 241.378 182.846 241.378 182.846 241.378C182.841 241.391 182.834 241.406 182.829 241.419C182.783 241.526 182.737 241.632 182.691 241.737C182.668 241.791 182.647 241.845 182.625 241.898C182.584 241.993 182.543 242.091 182.505 242.188C182.505 242.188 182.502 242.191 182.502 242.194C182.502 242.196 182.5 242.199 182.5 242.201C182.497 242.209 182.492 242.217 182.489 242.222C182.487 242.232 182.482 242.245 182.477 242.255C182.474 242.26 182.474 242.263 182.472 242.265C182.466 242.281 182.461 242.294 182.456 242.306C182.456 242.309 182.454 242.312 182.454 242.314C182.301 242.689 182.155 243.068 182.018 243.451C182.01 243.466 182.005 243.481 182 243.497C182 243.499 181.997 243.502 181.997 243.504C181.992 243.517 181.987 243.53 181.982 243.543C181.982 243.548 181.98 243.553 181.977 243.558C181.974 243.569 181.969 243.581 181.967 243.592C181.964 243.597 181.962 243.605 181.959 243.612C181.954 243.623 181.951 243.633 181.949 243.643C181.944 243.651 181.941 243.658 181.939 243.666C181.936 243.674 181.934 243.684 181.931 243.692C181.926 243.702 181.923 243.712 181.918 243.723C181.916 243.73 181.913 243.735 181.913 243.743C181.908 243.756 181.903 243.769 181.898 243.782C181.898 243.787 181.895 243.789 181.895 243.792C181.566 244.726 181.273 245.675 181.023 246.64C181.023 246.645 181.021 246.647 181.021 246.652L181.018 246.658C181.001 246.732 180.98 246.809 180.962 246.883C180.723 247.825 180.524 248.779 180.363 249.744V249.749C180.276 250.27 180.203 250.798 180.139 251.327C176.975 252.702 173.291 253.636 169 254" fill="#EDBD39"/>
<path fill-rule="evenodd" clip-rule="evenodd" d="M215.955 291C198.887 291 183.943 278.496 181.379 261.106C180.913 257.946 180.885 254.822 181.249 251.797C181.29 251.446 181.338 251.098 181.391 250.749C181.417 250.579 181.445 250.406 181.473 250.233C181.473 250.23 181.473 250.23 181.473 250.228C181.559 249.711 181.659 249.197 181.768 248.686C181.804 248.516 181.842 248.345 181.88 248.175C181.941 247.913 182.005 247.651 182.071 247.391C182.091 247.312 182.111 247.231 182.132 247.15C182.221 246.819 182.31 246.488 182.407 246.16C182.59 245.542 182.786 244.931 183.002 244.326C183.002 244.323 183.004 244.321 183.004 244.316C183.009 244.303 183.015 244.29 183.02 244.277C183.02 244.27 183.022 244.265 183.025 244.257C183.03 244.247 183.032 244.237 183.037 244.226C183.04 244.216 183.043 244.211 183.045 244.201C183.048 244.193 183.05 244.186 183.055 244.178C183.058 244.168 183.06 244.158 183.065 244.148C183.068 244.14 183.071 244.135 183.073 244.127C183.076 244.115 183.081 244.104 183.083 244.094C183.086 244.089 183.088 244.084 183.088 244.079C183.093 244.066 183.098 244.053 183.104 244.041C183.104 244.038 183.106 244.036 183.106 244.033C183.111 244.018 183.119 244.003 183.124 243.987C183.261 243.608 183.406 243.232 183.559 242.86C183.559 242.858 183.562 242.855 183.562 242.853C183.567 242.84 183.572 242.827 183.577 242.812C183.579 242.809 183.579 242.807 183.582 242.802C183.587 242.792 183.592 242.782 183.595 242.769C183.597 242.764 183.6 242.756 183.605 242.748C183.605 242.743 183.607 242.741 183.61 242.736C183.648 242.639 183.689 242.542 183.729 242.448C183.752 242.395 183.773 242.341 183.796 242.288C183.801 242.28 183.803 242.273 183.808 242.263C183.849 242.166 183.89 242.069 183.933 241.973C183.938 241.96 183.946 241.945 183.951 241.932C183.951 241.932 183.951 241.932 183.951 241.929C183.958 241.917 183.963 241.904 183.971 241.889C183.976 241.876 183.981 241.863 183.986 241.85C183.997 241.83 184.004 241.81 184.014 241.792C184.078 241.644 184.144 241.499 184.213 241.352C184.223 241.329 184.233 241.306 184.246 241.281C184.312 241.138 184.378 240.998 184.447 240.856C184.498 240.749 184.549 240.645 184.599 240.54C184.625 240.492 184.648 240.444 184.671 240.398L184.678 240.383C184.727 240.288 184.772 240.197 184.818 240.105C184.836 240.07 184.856 240.034 184.874 239.998C184.884 239.978 184.895 239.955 184.907 239.935C184.981 239.79 185.057 239.645 185.134 239.5C185.146 239.482 185.154 239.462 185.167 239.444C185.241 239.304 185.317 239.167 185.393 239.027C185.477 238.879 185.561 238.729 185.645 238.581C185.653 238.566 185.663 238.553 185.671 238.538C185.912 238.118 186.162 237.704 186.421 237.294C186.429 237.284 186.436 237.271 186.444 237.261C186.446 237.253 186.452 237.248 186.457 237.241C186.487 237.192 186.518 237.144 186.548 237.096C186.607 237.007 186.663 236.918 186.721 236.829C186.757 236.778 186.79 236.724 186.826 236.671C186.828 236.666 186.831 236.663 186.833 236.661C186.841 236.648 186.848 236.638 186.856 236.625C186.861 236.617 186.866 236.61 186.871 236.6C186.879 236.592 186.884 236.582 186.889 236.574C186.894 236.567 186.899 236.561 186.904 236.554C186.912 236.541 186.92 236.528 186.93 236.516C186.93 236.513 186.935 236.508 186.935 236.506C186.945 236.493 186.953 236.48 186.963 236.467C187.037 236.355 187.113 236.243 187.189 236.134C187.225 236.083 187.261 236.03 187.296 235.979C187.299 235.976 187.301 235.971 187.304 235.969C187.464 235.737 187.629 235.508 187.797 235.279C187.83 235.236 187.864 235.19 187.897 235.147C187.998 235.01 188.1 234.872 188.204 234.735L188.217 234.72C188.271 234.651 188.324 234.582 188.375 234.516C188.423 234.453 188.472 234.391 188.52 234.33C188.563 234.277 188.606 234.221 188.65 234.168C188.886 233.87 189.13 233.575 189.377 233.285C189.53 233.107 189.683 232.931 189.838 232.756C189.952 232.626 190.067 232.499 190.181 232.374C190.298 232.247 190.415 232.122 190.532 231.998C190.649 231.873 190.769 231.748 190.886 231.626C191.005 231.502 191.125 231.379 191.247 231.26C191.364 231.14 191.481 231.026 191.601 230.909L191.629 230.883C191.746 230.769 191.865 230.654 191.985 230.542C192.484 230.069 192.997 229.611 193.524 229.169C193.918 228.838 194.32 228.517 194.727 228.202C194.732 228.202 194.732 228.199 194.735 228.199C194.87 228.095 195.007 227.991 195.145 227.889C195.422 227.683 195.702 227.482 195.987 227.284C196.129 227.184 196.272 227.088 196.414 226.989C196.557 226.894 196.702 226.798 196.844 226.704L196.847 226.701C196.87 226.686 196.892 226.671 196.915 226.655C197.035 226.579 197.154 226.503 197.274 226.426L197.284 226.421C197.577 226.235 197.872 226.052 198.172 225.877C198.322 225.788 198.472 225.701 198.622 225.612C198.775 225.526 198.925 225.442 199.078 225.358V225.355C202.647 223.386 206.623 222.01 210.892 221.379C212.625 221.125 214.345 221 216.044 221C233.112 221 248.056 233.504 250.62 250.894C253.442 270.015 240.228 287.8 221.107 290.621C219.374 290.875 217.655 291 215.955 291" fill="#E2A22E"/>
<path fill-rule="evenodd" clip-rule="evenodd" d="M181 251V251C181.064 250.485 181.139 249.969 181.226 249.462C181.198 249.632 181.17 249.802 181.144 249.969C181.09 250.312 181.041 250.655 181 251M181.226 249.457C181.388 248.516 181.588 247.586 181.83 246.667C181.763 246.923 181.699 247.18 181.637 247.438C181.598 247.606 181.56 247.773 181.524 247.941C181.414 248.444 181.313 248.949 181.226 249.457M181.891 246.43C182.143 245.489 182.438 244.564 182.77 243.653C182.551 244.249 182.354 244.849 182.169 245.457C182.071 245.779 181.981 246.105 181.891 246.43M182.772 243.643C182.777 243.631 182.783 243.618 182.788 243.606C182.783 243.618 182.777 243.631 182.772 243.643M182.793 243.586C182.798 243.576 182.801 243.566 182.806 243.556C182.801 243.566 182.798 243.576 182.793 243.586M183.384 242.09C183.422 241.995 183.463 241.9 183.504 241.807C183.463 241.9 183.422 241.995 183.384 242.09M183.571 241.65C183.617 241.547 183.664 241.444 183.71 241.339C183.666 241.434 183.625 241.53 183.584 241.625C183.579 241.635 183.576 241.642 183.571 241.65M183.748 241.257C183.753 241.244 183.759 241.232 183.764 241.219C183.759 241.232 183.753 241.244 183.748 241.257M183.764 241.219C183.838 241.057 183.915 240.892 183.992 240.729C183.923 240.874 183.856 241.017 183.792 241.162C183.782 241.179 183.774 241.199 183.764 241.219M184.026 240.659C184.141 240.416 184.262 240.171 184.383 239.931C184.331 240.034 184.28 240.136 184.229 240.241C184.159 240.381 184.092 240.519 184.026 240.659M184.455 239.791C184.503 239.693 184.555 239.598 184.604 239.503C184.557 239.593 184.511 239.683 184.462 239.776L184.455 239.791M184.66 239.398C184.745 239.233 184.835 239.071 184.922 238.908C184.845 239.051 184.768 239.193 184.693 239.336C184.681 239.356 184.67 239.378 184.66 239.398M184.955 238.853C185.12 238.553 185.289 238.258 185.464 237.962C185.456 237.977 185.446 237.99 185.438 238.005C185.354 238.15 185.269 238.298 185.184 238.443C185.107 238.58 185.03 238.715 184.955 238.853M186.222 236.739C186.235 236.722 186.245 236.704 186.258 236.687C186.253 236.694 186.247 236.699 186.245 236.707C186.237 236.717 186.229 236.729 186.222 236.739M186.35 236.544C186.443 236.404 186.535 236.264 186.63 236.126C186.594 236.179 186.561 236.231 186.525 236.282C186.466 236.369 186.409 236.457 186.35 236.544M186.638 236.116C186.646 236.104 186.653 236.094 186.661 236.081C186.653 236.094 186.646 236.104 186.638 236.116M186.71 236.011C186.717 235.999 186.725 235.986 186.735 235.974C186.725 235.986 186.717 235.999 186.71 236.011M186.741 235.964C186.751 235.951 186.759 235.939 186.769 235.926C186.759 235.939 186.751 235.951 186.741 235.964M186.997 235.599C187.036 235.544 187.074 235.491 187.113 235.436C187.11 235.439 187.108 235.444 187.105 235.446C187.069 235.496 187.033 235.549 186.997 235.599M187.611 234.758C187.75 234.573 187.894 234.39 188.035 234.208L188.022 234.223C187.917 234.358 187.814 234.493 187.711 234.628C187.678 234.671 187.645 234.716 187.611 234.758M188.194 234.008C188.287 233.893 188.377 233.78 188.472 233.665C188.428 233.718 188.384 233.773 188.341 233.825C188.292 233.885 188.243 233.945 188.194 234.008M189.206 232.797C190.817 230.958 192.625 229.28 194.608 227.799C194.197 228.109 193.791 228.424 193.393 228.75C192.861 229.185 192.342 229.635 191.839 230.1C191.718 230.211 191.598 230.323 191.479 230.436L191.451 230.461C191.33 230.576 191.212 230.688 191.094 230.806C190.971 230.923 190.85 231.043 190.729 231.166C190.611 231.286 190.491 231.409 190.372 231.531C190.254 231.654 190.136 231.776 190.018 231.901C189.902 232.024 189.787 232.149 189.671 232.277C189.515 232.449 189.36 232.622 189.206 232.797M194.616 227.797C195.304 227.281 196.015 226.789 196.747 226.323L196.745 226.326C196.601 226.418 196.455 226.513 196.311 226.606C196.167 226.703 196.023 226.799 195.879 226.896C195.592 227.091 195.309 227.289 195.029 227.491C194.89 227.591 194.752 227.694 194.616 227.797M196.817 226.278C197.528 225.828 198.255 225.403 199 225V225.003C198.846 225.085 198.694 225.168 198.54 225.253C198.389 225.34 198.237 225.425 198.086 225.513C197.783 225.685 197.485 225.865 197.189 226.048L197.179 226.053C197.058 226.128 196.938 226.203 196.817 226.278" fill="#E5B338"/>
<path fill-rule="evenodd" clip-rule="evenodd" d="M238 228.979C231.068 224.332 222.464 222.153 213.565 223.468C194.529 226.284 181.373 244.039 184.18 263.131C185.493 272.052 190.058 279.686 196.496 285C188.596 279.707 182.874 271.212 181.378 261.041C178.568 241.952 191.727 224.194 210.763 221.379C220.903 219.879 230.665 222.922 238 228.979" fill="#BF7C31"/>
<path fill-rule="evenodd" clip-rule="evenodd" d="M177 233.953C183.059 233.095 183.925 230.633 185.051 223C185.836 230.241 186.837 232.987 193 233.813C187.624 235.878 185.737 236.629 184.776 245C183.453 236.522 182.272 235.771 177 233.953" fill="#FFFFFE"/>
<path fill-rule="evenodd" clip-rule="evenodd" d="M267.242 184C267.175 184 267.109 183.969 267.061 183.909C266.971 183.797 266.983 183.627 267.081 183.528C269.312 181.338 270.436 178.634 270.517 175.262C270.519 175.169 270.562 175.088 270.629 175.042C270.665 175.015 270.711 175 270.757 175C270.759 175 270.762 175 270.764 175C270.899 175.004 271.004 175.128 271 175.277C270.915 178.806 269.738 181.638 267.402 183.933C267.356 183.978 267.299 184 267.242 184" fill="#775B56"/>
<path fill-rule="evenodd" clip-rule="evenodd" d="M267.256 188C267.171 188 267.086 187.954 267.039 187.871C266.964 187.743 267 187.576 267.12 187.495L267.122 187.494C268.572 186.535 269.642 185.56 270.488 184.422C271.356 183.254 271.994 181.91 272.496 180.192C272.516 180.128 272.555 180.076 272.604 180.043C272.645 180.015 272.694 180 272.743 180C272.767 180 272.794 180.004 272.818 180.012C272.955 180.057 273.03 180.211 272.989 180.355C271.982 183.796 270.361 185.999 267.393 187.959C267.349 187.987 267.303 188 267.256 188" fill="#775B56"/>
<path fill-rule="evenodd" clip-rule="evenodd" d="M179.227 100.466C177.382 100.316 173.054 98.6107 172.062 99.0822C171.07 99.5536 169.864 99.9474 170.012 102.446C170.16 104.944 170.95 107.4 173.11 106.945C175.271 106.49 179.38 105.541 180.657 105.85C181.935 106.158 179.227 100.466 179.227 100.466" fill="#E7A89E"/>
<path fill-rule="evenodd" clip-rule="evenodd" d="M268 77.3075C269.161 76.6966 270.619 76.3257 272.258 75.7352C273.845 75.1641 274.768 74.0667 276.103 73.3482C278.128 72.2599 281.053 70.8215 281.48 71.0182C282.96 71.7003 280.891 73.9129 280.09 74.4361C274.777 77.9038 279.891 77.2436 279.645 78.3731C279.399 79.5024 277.232 79.3987 275.531 79.4276C273.785 79.4572 272.651 80.8955 271.905 80.998C271.156 81.1005 268 77.3075 268 77.3075" fill="#E7A89E"/>
<path fill-rule="evenodd" clip-rule="evenodd" d="M218.698 204.574C217.841 202.522 217 197.036 217 197.036L222.406 195L224 204.724L221.091 207L218.698 204.574" fill="#FFFFFE"/>
<path fill-rule="evenodd" clip-rule="evenodd" d="M216.864 201.211C216.262 201.105 216.545 201.674 216.386 202.618C216.015 204.777 209.812 207.164 208.697 207.432C208.123 207.571 207.008 210.036 209.911 210C212.981 209.958 217.301 208.857 222.269 207.782C222.831 207.661 223.786 206.923 223.888 206.336C224.251 204.252 223.679 201.082 222.911 201.064C221.731 200.761 219.381 201.656 216.864 201.211" fill="#191B28"/>
<path fill-rule="evenodd" clip-rule="evenodd" d="M291.014 178.085C289.694 176.514 285.892 173 285.892 173L282 176.775L287.753 182L292 181.142L291.014 178.085" fill="#FFFFFE"/>
<path fill-rule="evenodd" clip-rule="evenodd" d="M290.53 176.861C290.835 176.376 291.028 176.927 291.74 177.399C293.372 178.481 298.374 173.65 299.239 173.043C299.686 172.729 302.212 174.19 300.283 176.068C298.612 177.692 293.283 182.914 291.445 184.678C291.061 185.047 290.483 185.107 290.039 184.815C288.459 183.775 286.607 181.575 287.073 181.032C287.609 180.025 289.258 178.881 290.53 176.861" fill="#191B28"/>
<path fill-rule="evenodd" clip-rule="evenodd" d="M215.807 199.784C215.918 200.645 224.771 198.733 224.64 197.519C224.509 196.308 219.672 171.742 221.332 164.992C222.32 160.961 231.608 139.779 231.608 139.779L231.61 139.781C231.797 139.878 240.045 144.178 248.074 148.927C251.849 151.161 255.574 153.493 258.393 155.536C262.171 158.273 281.27 179.578 282.975 180.274C284.288 180.81 289.15 175.08 288.996 174.493C288.843 173.907 266.735 147.969 264.834 146.529C261.845 144.267 253.209 136.51 248.062 131.302C245.432 128.642 242.282 124.79 240.073 121.423C240.002 121.318 239.844 122.094 239.682 122.87C239.521 123.638 239.354 124.405 239.266 124.32L239.264 124.317C238.124 123.224 237.037 122.136 236.033 121.067C235.831 120.855 234.82 121.165 233.408 121.754C231.681 122.474 229.358 123.611 227.182 124.719C225.977 125.331 226.241 124.611 226.589 123.889C226.897 123.254 227.268 122.618 226.751 122.896C226.241 123.169 221.98 123.116 221.98 123.116L219.201 125.976C218.137 126.119 210.814 159.986 210.082 163.572C209.2 167.897 215.693 198.924 215.807 199.784" fill="#34343E"/>
<path fill-rule="evenodd" clip-rule="evenodd" d="M246.224 129C246.075 128.677 245.927 128.349 245.776 128.015C245.785 128.01 245.792 128.005 245.799 128C245.939 128.334 246.081 128.668 246.224 129" fill="#8E867E"/>
<path fill-rule="evenodd" clip-rule="evenodd" d="M245.655 131C241.894 131 236.34 130.623 233.364 127.257C235.098 128.541 238.479 128.343 241.432 128.547C241.827 128.575 242.253 128.59 242.69 128.59C243.883 128.59 245.166 128.473 246.203 128.158C246.419 128.389 246.632 128.617 246.845 128.84C247.506 129.574 248.213 130.296 249 130.985C248.821 130.973 248.605 130.969 248.353 130.969C248.012 130.969 247.61 130.976 247.157 130.984C246.702 130.992 246.198 131 245.655 131M232.32 125.738C232.205 125.517 232.099 125.287 232 125.047L232.107 125C232.177 125.272 232.25 125.519 232.32 125.738" fill="#282935"/>
<path fill-rule="evenodd" clip-rule="evenodd" d="M217.033 82.4384C217.407 82.9893 217.72 83.5467 217.871 84.0305C218.177 85.0001 219.222 85.9531 219.338 87.7185C219.424 89.0397 222.192 85.2818 222.192 85.2818L224 81.8063C222.187 78.9019 219.008 77.1601 217.571 75.8986C215.995 74.5146 213 75.1417 213 75.1417L214.462 79.4087L214.495 79.505L214.801 79.7279C214.801 79.7279 216.098 81.0605 217.033 82.4384" fill="#E7A89E"/>
<path fill-rule="evenodd" clip-rule="evenodd" d="M217.788 82V82C216.775 80.6881 215.367 79.4192 215.367 79.4192L215.036 79.207L215 79.1153L215.641 77.8968C215.641 77.8968 216.027 77 216.687 77C216.723 77 216.758 77.0024 216.794 77.0077C217.895 77.1664 220.541 81.0597 217.788 82" fill="#C7938D"/>
<path fill-rule="evenodd" clip-rule="evenodd" d="M223.527 80.025C221.5 79.6788 221.65 83.037 219.678 83.4019C218.637 83.595 218.821 83.1022 218.276 82.6575C217.939 82.3837 217.616 82.0708 217.186 82.6275C208.434 93.9489 220.603 121.935 219.542 123.878C218.672 125.468 230.799 125.379 235.879 123.541C242.849 121.021 236.02 113.552 235.656 112.053C235.295 110.555 230.839 84.1994 230.839 84.1994C230.839 84.1994 227.015 82.6078 223.527 80.025" fill="#FFFFFE"/>
<path fill-rule="evenodd" clip-rule="evenodd" d="M177.507 106.273C178.206 106.484 197.235 111.546 201.491 108.857C203.164 107.798 205.774 104.909 208.131 102.723C209.949 101.032 211.615 99.764 212.579 100.084C212.772 100.147 212.944 100.387 213.111 100.74C213.539 101.659 213.906 103.347 214.387 104.687C215.187 106.928 215.782 113.775 215.774 114.905C215.754 117.805 214.354 127.255 216.751 128.885C219.409 130.693 221.488 130.062 222.668 128.695C223.938 127.224 221.164 116.609 221.057 106.627C220.982 99.3059 217.27 95.3797 217.409 89.3086C217.516 84.7148 217.093 83 217.093 83C206.747 89.3019 200.332 98.8354 197.235 100.642C195.727 101.523 190.547 100.861 185.818 100.199C181.441 99.5871 177.446 98.9745 177.099 99.5856C176.829 100.063 177.16 106.167 177.507 106.273" fill="#1B5E91"/>
<path fill-rule="evenodd" clip-rule="evenodd" d="M208 78.4986C209.135 79.8818 210.195 83.7494 211.007 82.8525C211.817 81.9553 213.402 85.777 214.295 84.8555C216.463 82.6219 217.517 78.5664 216.751 77.1974C215.984 75.8285 212.937 73 212.937 73L208 78.4986" fill="#E7A89E"/>
<path fill-rule="evenodd" clip-rule="evenodd" d="M231.969 126.288C232.945 129.077 237.205 128.687 240.814 128.954C244.42 129.223 250.437 128.427 245.969 123.234C240.533 116.919 237.799 105.903 237.195 101.303C236.736 97.8303 236.985 95.0679 237.603 92.8903C237.7 92.5508 237.975 92.3147 238.388 92.1618C239.809 91.6302 242.87 92.0531 245.997 92.4758C248.629 92.832 251.304 93.188 253.085 92.974C256.385 92.5753 273.247 82.4995 273.889 81.169C274.53 79.8397 272.224 76.23 271.26 75.0872C270.298 73.9457 255.867 84.3805 251.919 84.8993C248.011 85.4141 230.374 80.5827 223.164 80.0404C223.164 80.0404 221.871 100.25 226.546 108.426C230.239 114.879 230.989 123.497 231.969 126.288" fill="#1B5E91"/>
<path fill-rule="evenodd" clip-rule="evenodd" d="M234 81.2243C233.664 81.1028 233.331 80.9825 233 80.8651C233.025 80.8352 233.051 80.8056 233.079 80.7756C233.336 80.9177 233.66 81.0728 234 81.2243" fill="#C1B4A1"/>
<path fill-rule="evenodd" clip-rule="evenodd" d="M220.259 84C220.006 83.6985 219.849 83.2764 220.222 83.0687C220.307 83.0207 220.388 83 220.467 83C220.655 83 220.822 83.1214 221 83.2711C220.796 83.5915 220.555 83.8516 220.259 84" fill="#BD8C86"/>
<path fill-rule="evenodd" clip-rule="evenodd" d="M222.973 85C221.645 84.5107 220.564 83.983 220.057 83.7839C219.925 83.7319 219.831 83.7022 219.784 83.7022C219.769 83.7022 219.76 83.7053 219.754 83.7119C219.73 83.7401 219.686 83.7526 219.63 83.7526C219.474 83.7526 219.209 83.6501 219 83.5111C219.377 83.407 219.683 83.2246 219.943 83C220.199 83.1184 220.47 83.262 220.811 83.3368C221.471 83.4814 222.211 83.6235 223 83.7346C222.988 84.1281 222.979 84.551 222.973 85" fill="#D3D3D1"/>
<path fill-rule="evenodd" clip-rule="evenodd" d="M226.944 86C226.902 86 226.857 85.9995 226.815 85.9987C226.275 85.9898 225.723 85.8865 225.179 85.7241C224.419 85.4972 223.671 85.1563 223 84.7983C223.005 84.2522 223.012 83.7379 223.022 83.2592C223.369 83.3301 223.728 83.3906 224.094 83.436C224.557 83.4938 225.03 83.527 225.513 83.527C225.595 83.527 225.674 83.526 225.756 83.5241C226.008 83.5185 226.261 83.5032 226.516 83.4757C226.644 83.4623 226.773 83.4468 226.902 83.427C227.429 83.3526 227.956 83.2247 228.476 83.04C228.994 82.8535 230.318 82.0227 231.804 81C232.158 81.0765 232.514 81.1549 232.873 81.2341C233.878 81.5073 235 81.7621 235 81.7621C235 81.7621 230.482 85.0335 229.286 85.5486L229.241 85.5668C229.194 85.5885 229.145 85.6069 229.098 85.6254L229.095 85.6259C228.405 85.8948 227.674 86 226.944 86" fill="#1D527F"/>
<path fill-rule="evenodd" clip-rule="evenodd" d="M232.584 82C232.28 81.8959 232.063 81.8016 232 81.7317C232.209 81.5798 233.17 81.243 234.068 80.9223C233.966 80.9988 233.861 81.0751 233.759 81.1511C233.364 81.4411 232.969 81.7265 232.584 82M234.068 80.9223C234.277 80.7674 234.484 80.6117 234.688 80.4571C234.893 80.301 233.992 79.2335 234.191 79.0795C234.283 79.1453 234.393 79.1694 234.513 79.1694C234.673 79.1694 234.853 79.127 235.039 79.0847C235.223 79.0423 235.408 79 235.584 79C235.736 79 235.877 79.0316 236 79.1218C235.791 79.2715 235.919 80.1122 235.709 80.2662C235.534 80.393 234.825 80.652 234.068 80.9223" fill="#C1B4A1"/>
<path fill-rule="evenodd" clip-rule="evenodd" d="M219.832 84.1079C220.316 84.0164 220.459 83.7719 220.612 83.5158C220.625 83.4971 220.663 83.4947 220.722 83.5056C221.155 83.5916 222.806 84.4264 224.752 84.8109C225.746 85.0068 226.819 85.0833 227.845 84.8799C228.164 84.8169 228.48 84.7262 228.786 84.6035C230.243 84.0203 232.067 82.8214 233.871 81.6089C234.228 81.3718 234.58 81.1332 234.931 80.8991C235.122 80.7688 235.313 80.6422 235.504 80.5159C236.967 79.5485 238.335 78.7007 239.385 78.3206C242.081 77.3446 247.182 79.4292 251.449 78.1024C254.063 77.2894 263.114 72.2841 263.985 71.3584C264.851 70.4319 265.157 69.0751 264.925 68.4484C264.693 67.8219 263.631 67.9113 262.005 68.352C260.38 68.7912 255.855 73.5592 250.374 75.1176C244.891 76.6742 242.381 73.9426 238.488 74.8123C236.34 75.2924 234.146 77.2626 232.187 79.0739C231.932 79.3091 231.68 79.5425 231.435 79.7699C230.146 80.9543 228.987 81.9657 228.042 82.2869C227.29 82.5427 226.523 82.6734 225.766 82.7161C225.053 82.7573 224.35 82.7206 223.677 82.6341C222.686 82.5112 221.764 82.2806 220.976 82.0441C220.35 81.8563 220.207 81.6542 219.656 81.8831C218.928 82.1902 218.938 82.8607 219.068 83.2165C219.2 83.5718 219.499 84.1719 219.832 84.1079" fill="#E8A72D"/>
<path fill-rule="evenodd" clip-rule="evenodd" d="M208 102C208.479 100.708 209.221 99.1338 210.169 98.4402C210.592 98.1292 210.952 98 211.262 98C212.222 98 212.678 99.2503 213 100.161L212.985 100.171C212.818 99.8461 212.645 99.6248 212.453 99.5667C212.351 99.5358 212.242 99.5208 212.126 99.5208C211.137 99.5208 209.629 100.604 208 102" fill="#1D527F"/>
<path fill-rule="evenodd" clip-rule="evenodd" d="M159.015 27.0717C159.015 27.0729 172.293 99.9189 172.995 103.72C173.148 104.543 173.216 105.297 173.216 105.98C173.216 107.812 172.727 109.124 172.058 109.959C171.722 110.378 171.338 110.681 170.93 110.884C170.519 111.085 170.083 111.187 169.629 111.187C168.722 111.186 167.724 110.779 166.822 109.827C165.925 108.876 165.135 107.372 164.742 105.235C164.652 104.743 164.186 104.419 163.702 104.511C163.216 104.604 162.897 105.077 162.99 105.569C163.436 107.982 164.351 109.824 165.536 111.081C166.717 112.337 168.183 113.001 169.629 113C170.348 113 171.058 112.836 171.707 112.514C172.684 112.033 173.521 111.2 174.098 110.091C174.674 108.981 175 107.598 175 105.98C175 105.174 174.92 104.308 174.747 103.385C174.399 101.491 170.902 82.3264 167.496 63.6407C165.792 54.2972 164.11 45.0724 162.855 38.1834C162.226 34.7389 161.704 31.8785 161.341 29.8791C161.158 28.8792 161.015 28.0951 160.917 27.5604C160.822 27.0261 160.77 26.7422 160.77 26.7414C160.679 26.2491 160.213 25.9239 159.729 26.0154C159.246 26.1066 158.925 26.5796 159.015 27.0717" fill="#FFFFFE"/>
<path fill-rule="evenodd" clip-rule="evenodd" d="M174.223 100C174.5 101.569 174.683 102.613 174.75 102.999C175.815 109.014 173.304 112.354 170.521 112.913L170.516 112.913C168.939 113.229 167.263 112.672 165.918 111.384C164.482 110.009 163.479 107.897 163.016 105.279C162.92 104.731 163.259 104.204 163.773 104.1C164.289 103.998 164.786 104.358 164.883 104.906C165.676 109.395 168.14 111.334 170.165 110.929L170.167 110.929C172.856 110.389 173.462 106.634 172.884 103.372C172.817 102.986 172.631 101.942 172.357 100.375L174.223 100" fill="#191B28"/>
<path fill-rule="evenodd" clip-rule="evenodd" d="M172.018 99.2859C173.774 100.224 174.699 105.544 173.369 105.85C172.037 106.156 170.656 106.06 170.373 104.928C170.09 103.796 169.683 99.7205 170.405 99.2402C171.073 98.7972 171.598 99.0606 172.018 99.2859" fill="#E7A89E"/>
<path fill-rule="evenodd" clip-rule="evenodd" d="M249 149C240.711 144.176 232.195 139.808 232.003 139.709L232 139.707L233.408 137C233.408 137 245.506 144.939 249 149" fill="#20222E"/>
<path fill-rule="evenodd" clip-rule="evenodd" d="M42.8988 113.748C30.4407 114.517 18.5337 113.509 6.30937 110.943C4.43424 110.549 2.44552 110.023 1.17482 108.563C-0.749754 106.352 -0.171192 102.628 1.90474 100.565C3.98067 98.5005 7.10927 97.8822 9.99498 98.1691C11.843 98.3529 13.7379 98.8598 15.5217 98.3343C17.7503 97.678 19.2264 95.6005 20.7207 93.7913C22.2148 91.9823 24.2377 90.1935 26.5408 90.4766C28.2664 90.6888 29.6268 92.0128 31.1625 92.8426C32.6984 93.6723 34.9287 93.7597 35.8092 92.232C37.6937 88.9631 35.0486 80 44.7541 80C58.7633 80 56.475 89.0218 58.1615 90.9362C60.7181 93.838 65.269 93.199 68.9716 92.2173C72.6745 91.2355 77.0844 90.3034 79.9412 92.8979C82.4185 95.1481 82.6738 99.2739 85.308 101.331C88.1121 103.52 92.0946 102.352 95.4922 101.368C98.8898 100.385 103.27 100.024 105.242 103.012C106.894 105.516 105.662 109.153 103.311 110.988C100.961 112.824 97.8599 113.272 94.9045 113.455C75.7143 114.64 58.2915 112.797 42.8988 113.748" fill="#FFFFFE"/>
<path fill-rule="evenodd" clip-rule="evenodd" d="M216.507 306C164.313 306 122 305.627 122 302.514C122 299.518 155.038 299.095 198.74 299.038C204.381 301.46 210.543 302.792 216.936 302.792C218.528 302.792 220.133 302.709 221.747 302.539C226.523 302.043 231.047 300.827 235.229 299.013C240.835 299.005 246.296 299 251.556 299C287.466 299 314.073 299.298 314 301.841C313.888 305.627 268.701 306 216.507 306" fill="#D0C2AB"/>
<path fill-rule="evenodd" clip-rule="evenodd" d="M187.584 300C187.563 300 187.542 299.997 187.519 299.994C182.132 299.091 178.059 296.373 175.069 291.683C174.944 291.482 174.993 291.209 175.184 291.074C175.255 291.022 175.336 291 175.414 291C175.55 291 175.681 291.066 175.762 291.193C178.616 295.671 182.504 298.265 187.65 299.13C187.791 299.152 187.906 299.251 187.964 299.378C187.995 299.455 188.008 299.543 187.995 299.631C187.964 299.846 187.786 300 187.584 300" fill="#775B56"/>
<path fill-rule="evenodd" clip-rule="evenodd" d="M179.581 301C179.523 301 179.462 300.987 179.404 300.961C174.389 298.69 171.382 295.681 169.037 290.582C168.942 290.375 169.037 290.129 169.248 290.036C169.303 290.013 169.361 290 169.419 290C169.577 290 169.73 290.088 169.801 290.238V290.243C170.95 292.737 172.205 294.628 173.754 296.193C175.346 297.802 177.251 299.08 179.758 300.214C179.85 300.258 179.921 300.33 179.96 300.415C180.011 300.521 180.016 300.646 179.96 300.762C179.892 300.912 179.739 301 179.581 301" fill="#775B56"/>
<path d="M229.082 277.699C227.633 279.294 225.561 280.561 222.864 281.501C220.168 282.441 216.961 282.516 213.245 281.725C208.382 280.69 204.769 278.419 202.407 274.911C200.044 271.402 199.428 266.99 200.557 261.673L203.404 248.266C204.515 243.032 206.788 239.277 210.224 237.002C213.659 234.728 217.712 234.087 222.384 235.081C227.12 236.089 230.493 238.023 232.505 240.884C234.516 243.744 235.161 247.292 234.439 251.528L232.806 259.219L226.531 257.884C226.817 256.231 228.376 251.548 228.601 248.137C228.762 245.694 227.766 244.23 227.307 243.491C226.206 241.722 224.255 240.539 221.452 239.943C218.627 239.342 216.188 239.855 214.133 241.483C212.078 243.111 210.651 245.808 209.851 249.573L206.991 263.042C206.174 266.89 206.427 270.009 207.751 272.399C209.075 274.789 211.244 276.304 214.26 276.946C216.468 277.416 218.261 277.413 219.638 276.939C221.015 276.464 222.122 275.721 222.958 274.71L225.139 264.438L217.208 262.75L218.176 258.188L232.574 261.252L229.082 277.699Z" fill="#BF7C31"/>
<path d="M227.812 274.904C226.364 276.498 224.291 277.766 221.595 278.706C218.898 279.645 215.692 279.72 211.975 278.929C207.112 277.895 203.5 275.623 201.137 272.115C198.775 268.607 198.158 264.194 199.287 258.877L202.134 245.47C203.246 240.236 205.519 236.482 208.954 234.207C212.389 231.932 216.443 231.291 221.115 232.285C225.85 233.293 229.224 235.227 231.235 238.088C233.247 240.948 233.892 244.497 233.17 248.733L231.537 256.424L225.261 255.088C225.548 253.435 227.107 248.753 227.331 245.341C227.492 242.899 226.496 241.434 226.037 240.696C224.937 238.926 222.985 237.743 220.182 237.147C217.358 236.546 214.918 237.06 212.863 238.687C210.809 240.315 209.381 243.012 208.582 246.777L205.722 260.246C204.905 264.094 205.158 267.213 206.482 269.603C207.805 271.993 209.975 273.509 212.99 274.15C215.199 274.62 216.992 274.618 218.369 274.143C219.746 273.668 220.852 272.925 221.689 271.914L223.87 261.642L215.938 259.954L216.907 255.392L231.305 258.456L227.812 274.904Z" fill="#EFC444"/>
<path fill-rule="evenodd" clip-rule="evenodd" d="M252.622 252.959C255.43 272.048 242.276 289.806 223.237 292.621C213.098 294.121 203.335 291.078 196 285.021C202.932 289.668 211.538 291.847 220.435 290.532C239.471 287.716 252.628 269.958 249.82 250.869C248.508 241.948 243.942 234.314 237.504 229C245.405 234.293 251.127 242.788 252.622 252.959" fill="#EFC444"/>
<path fill-rule="evenodd" clip-rule="evenodd" d="M210.824 77.1227C210.213 77.8773 210.36 78.0527 209.636 78.307C208.909 78.5616 209.061 77.1094 208.001 77.8551C206.945 78.6008 205.893 79.5214 204.735 78.6389C203.062 77.3618 204.63 76.2809 205.63 75.6407C206.272 75.2285 205.225 74.0201 206.334 73.0326C207.2 72.258 207.599 72.8081 208.406 72.1493C208.893 71.7515 209.012 70.2087 210.257 70.0329C212.564 69.707 212.742 71.9113 214.905 71.8607C217.423 71.8017 217.235 77.1267 216.572 77.1548C215.797 77.1879 215.059 75.4137 214.356 75.5187C213.291 75.677 213.74 76.2301 213.721 77.1657C213.703 78.165 212.745 79.1619 212.381 77.623C212.018 76.0841 211.376 76.4397 210.824 77.1227" fill="#191B28"/>
<path fill-rule="evenodd" clip-rule="evenodd" d="M116 66.1026C127.605 63.3181 135.487 65.0703 140.163 66.8223C143.338 68.0134 145.033 69.2046 145.407 68.9703C146.332 68.3909 155.984 62.7756 164.477 61.3543C169.553 60.505 175.383 60.9467 179.263 61.3882C181.552 61.649 183.164 61.9096 183.537 61.9051C184.55 61.8924 195.893 48.0426 212 50.4592C201.393 39.4192 147.448 41.0902 147.448 41.0902L117.687 60.2381L116 66.1026" fill="#1B5E91"/>
<path fill-rule="evenodd" clip-rule="evenodd" d="M144.998 68C144.45 68 142.788 66.9301 139.896 65.86C137.001 64.7898 132.873 63.7197 127.385 63.7197C124.088 63.7197 120.302 64.1061 116 65.1101C116.05 65.0683 116.103 64.9676 116.154 64.8032C116.974 62.1261 123.456 58.6236 131.133 57.9142C132.037 57.8306 132.961 57.7859 133.89 57.7859C136.616 57.7859 139.42 58.1695 142.121 59.0855C142.222 59.1188 142.32 59.1534 142.421 59.1885C142.592 59.2496 142.763 59.3128 142.934 59.3782C146.879 54.1048 154.878 50.7593 163.057 50C163.678 53.3086 164.333 56.8045 165 60.3551C164.705 60.3949 164.413 60.4384 164.124 60.4861C155.661 61.883 146.043 67.4015 145.122 67.9709C145.091 67.9908 145.049 68 144.998 68" fill="#193956"/>
<path fill-rule="evenodd" clip-rule="evenodd" d="M114.906 66.0946L114.96 65.9053C114.987 65.9533 115.013 65.9901 115.04 66.0152C115.058 66.0314 115.076 66.043 115.094 66.0498C115.031 66.0646 114.969 66.0794 114.906 66.0946" fill="#193956"/>
<path fill-rule="evenodd" clip-rule="evenodd" d="M183.399 62C183.005 62 181.394 61.7398 179.115 61.4794C176.834 61.2192 173.886 60.9591 170.811 60.9591C169.532 60.9591 168.23 61.0042 166.946 61.1127C166.279 57.5009 165.622 53.9426 165 50.5703C165.586 50.543 166.17 50.5293 166.753 50.5293C166.964 50.5293 167.177 50.531 167.388 50.5346C167.398 50.5349 167.411 50.5351 167.421 50.5354C172.363 50.6258 177.131 51.7221 180.866 53.9732C181.506 54.3577 182.112 54.7751 182.686 55.2276C184.581 50.7275 189.021 48.0338 194.484 47.2444C195.608 47.0818 196.778 47 197.978 47C202.444 47 207.329 48.1334 211.944 50.4444C211.957 50.451 211.972 50.4577 211.985 50.4643C211.99 50.4668 211.995 50.4694 212 50.4719C210.701 50.2765 209.432 50.1865 208.199 50.1865C194.058 50.1865 184.345 61.9883 183.409 62C183.406 62 183.404 62 183.399 62" fill="#193956"/>
<path fill-rule="evenodd" clip-rule="evenodd" d="M115.482 65.6666C116.698 61.6947 130.183 55.9315 141.775 59.8686C142.053 59.9616 142.325 60.0612 142.598 60.1656C150.099 50.1254 172.056 46.9784 182.557 55.1373C186.319 46.3365 200.067 44.5187 212 50.4317C212 50.4317 204.813 21.1724 159.009 28.0457C158.78 28.0797 158.553 28.115 158.321 28.1511C157.794 28.234 157.269 28.32 156.754 28.4108C125.522 33.8422 117.185 51.8239 115.413 60.8032C114.649 64.6795 115.11 66.8785 115.482 65.6666" fill="#1B5E91"/>
<path fill-rule="evenodd" clip-rule="evenodd" d="M115.152 65C114.987 64.8622 114.866 64.5165 114.848 64C114.866 64.5165 114.987 64.862 115.152 65" fill="#ECDCC1"/>
<path fill-rule="evenodd" clip-rule="evenodd" d="M115.04 66.0549C115.013 66.0298 114.987 65.993 114.96 65.945C114.987 65.993 115.013 66.0298 115.04 66.0549" fill="#254D67"/>
<path fill-rule="evenodd" clip-rule="evenodd" d="M158 28.1451C158.197 28.0859 158.394 28.028 158.591 27.9706C158.729 27.9316 158.865 27.8925 159 27.8548C158.865 27.893 158.729 27.9316 158.591 27.971C158.394 28.028 158.197 28.0859 158 28.1451" fill="#ECDCC1"/>
<path fill-rule="evenodd" clip-rule="evenodd" d="M142 60C141.902 59.975 141.806 59.9504 141.708 59.9266C139.076 59.2737 136.343 59.0002 133.686 59.0002C132.781 59.0002 131.881 59.0321 131 59.0916C131.883 59.0319 132.781 59 133.689 59C136.343 59 139.076 59.2735 141.708 59.9264C141.806 59.9504 141.902 59.975 142 60" fill="#254D67"/>
<path fill-rule="evenodd" clip-rule="evenodd" d="M180 54C176.389 51.3808 171.779 50.1053 167 50C171.779 50.1047 176.389 51.3811 180 54" fill="#254D67"/>
<path fill-rule="evenodd" clip-rule="evenodd" d="M159 27.2243V27.2243C159.099 27.2007 159.196 27.1775 159.295 27.1543C159.869 27.0203 160.438 26.8943 161 26.7756C160.438 26.8943 159.869 27.0203 159.295 27.1543V27.1547C159.293 27.1556 159.298 27.1538 159.295 27.1547C159.196 27.1775 159.099 27.2007 159 27.2243" fill="#FFFFFE"/>
<path fill-rule="evenodd" clip-rule="evenodd" d="M142.828 60C142.653 59.9342 142.479 59.8701 142.305 59.8086C142.202 59.7732 142.102 59.7383 142 59.7044C142.202 59.2369 142.392 58.7559 142.356 58.2721C141.675 49.1244 148.155 34.9676 159.327 28.0001C159.096 28.0341 158.868 28.0692 158.635 28.1051C158.43 28.137 158.225 28.1694 158.02 28.2026C158.225 28.1694 158.43 28.137 158.635 28.1051C158.778 28.083 158.919 28.0614 159.06 28.0401C159.15 28.0265 159.237 28.0132 159.327 28.0001C159.329 27.9996 159.324 28.0006 159.327 28.0001C159.437 28.0336 178.688 33.8908 183 54.9905C182.421 54.5451 181.809 54.1329 181.163 53.7542C177.391 51.5355 172.576 50.4541 167.585 50.3655C167.575 50.3652 167.562 50.365 167.552 50.3647C167.339 50.3612 167.124 50.3595 166.911 50.3595C157.415 50.3595 147.422 53.9044 142.828 60" fill="#276C9A"/>
<path fill-rule="evenodd" clip-rule="evenodd" d="M115.482 64.6662C116.697 60.6895 130.18 54.9193 141.769 58.8612C141.97 58.3914 142.159 57.908 142.123 57.4219C141.446 48.2289 147.89 34.002 159 27C158.771 27.0341 158.544 27.0694 158.312 27.1055C157.785 27.1886 157.26 27.2746 156.745 27.3655C125.519 32.8035 117.184 50.8069 115.413 59.7969C114.649 63.6779 115.11 65.8796 115.482 64.6662" fill="#1B5E91"/>
<path fill-rule="evenodd" clip-rule="evenodd" d="M212 50V50C212 49.9997 211.997 49.9995 211.997 49.9997C211.997 49.9997 206.289 26 172.565 26C169.027 26 165.185 26.2637 161 26.8478V26.8475C165.18 26.2639 169.027 26 172.565 26C206.294 26 212 50 212 50" fill="#EEE1C9"/>
<path fill-rule="evenodd" clip-rule="evenodd" d="M212 50C207.506 47.3163 202.75 46 198.402 46C197.233 46 196.094 46.095 195 46.2838C196.094 46.095 197.233 46 198.402 46C202.75 46 207.506 47.316 212 50" fill="#496D82"/>
<path fill-rule="evenodd" clip-rule="evenodd" d="M159 27.1943V27.1938C159.337 27.0565 159.67 26.9273 160 26.8057V26.8061C159.672 26.9268 159.335 27.0579 159 27.1943" fill="#FFFEFD"/>
<path fill-rule="evenodd" clip-rule="evenodd" d="M182.552 55V55C178.262 33.9246 159.11 28.0741 159 28.0407C159.512 27.9644 160.027 27.8912 160.53 27.8237C164.753 27.2562 168.631 27 172.202 27C206.239 27 212 50.3176 212 50.3176C211.995 50.3151 211.992 50.3128 211.987 50.3103C211.975 50.3038 211.959 50.2973 211.946 50.2908C207.31 48.0152 202.402 46.8995 197.916 46.8995C196.71 46.8995 195.535 46.98 194.406 47.1401C188.917 47.9168 184.456 50.569 182.552 55M178.919 29.3764C178.524 29.3764 178.188 29.676 178.157 30.0704C178.124 30.4849 178.437 30.8472 178.861 30.8795C181.96 31.1184 185.063 31.8297 188.211 33.1225C191.359 34.4154 194.556 36.2913 197.829 38.8657C197.969 38.9766 198.14 39.0303 198.306 39.0303C198.53 39.0303 198.754 38.9334 198.905 38.7472C199.167 38.4226 199.114 37.9489 198.785 37.6895C195.415 35.0398 192.096 33.0859 188.8 31.7331C185.506 30.38 182.236 29.6291 178.978 29.3787C178.958 29.3772 178.937 29.3764 178.919 29.3764M176.452 29.2824C175.628 29.2824 174.805 29.3125 173.982 29.3709C173.561 29.4008 173.242 29.7613 173.273 30.176C173.303 30.5722 173.637 30.8745 174.035 30.8745C174.055 30.8745 174.073 30.8738 174.091 30.8725C174.879 30.8166 175.667 30.7877 176.452 30.7877H176.477C176.9 30.7877 177.242 30.4513 177.242 30.0358C177.242 29.6201 176.9 29.2829 176.48 29.2824H176.452" fill="#4985A8"/>
<path fill-rule="evenodd" clip-rule="evenodd" d="M158.265 27.2659C157.198 25.0399 159.68 23.8201 159.987 26.642C160.143 28.0979 158.858 28.5025 158.265 27.2659" fill="#0E0E0E"/>
<path fill-rule="evenodd" clip-rule="evenodd" d="M161.998 27.2651C162.117 28.0959 157.237 29.4985 157.042 28.8206C156.845 28.1427 157.318 26.5657 158.944 26.125C160.567 25.6843 161.888 26.491 161.998 27.2651" fill="#1F2028"/>
<path fill-rule="evenodd" clip-rule="evenodd" d="M174.77 31C174.369 31 174.033 30.6202 174.002 30.1226C173.971 29.6016 174.292 29.1488 174.716 29.1113C175.545 29.0378 176.375 29 177.204 29H177.232C177.656 29.0006 178 29.4242 178 29.9464C178 30.4683 177.656 30.891 177.23 30.891H177.204C176.413 30.891 175.62 30.9272 174.826 30.9975C174.808 30.9991 174.79 31 174.77 31" fill="#B4CDD9"/>
<path fill-rule="evenodd" clip-rule="evenodd" d="M198.231 39C198.065 39 197.893 38.9444 197.753 38.8295C194.467 36.1628 191.257 34.2196 188.096 32.8804C184.936 31.5412 181.821 30.8044 178.709 30.557C178.284 30.5235 177.969 30.1482 178.002 29.7189C178.033 29.3103 178.371 29 178.768 29C178.786 29 178.806 29.0008 178.827 29.0023C182.097 29.2617 185.381 30.0396 188.688 31.4411C191.997 32.8425 195.329 34.8665 198.712 37.6112C199.043 37.8799 199.096 38.3705 198.833 38.7068C198.682 38.8997 198.456 39 198.231 39" fill="#B4CDD9"/>
<path fill-rule="evenodd" clip-rule="evenodd" d="M322.73 12.147C317.393 12.147 306.422 21.522 322.101 23.0267C337.78 24.5289 361.26 23.8356 370.764 23.8682C386.273 23.9185 390.121 23.2905 389.997 17.0154C389.926 13.3855 387.945 11.0342 379.768 10.0796C371.264 9.08987 375.61 -0.277541 365.226 0.00632019C356.382 0.249989 355.481 12.5088 347.388 9.50436C339.297 6.49996 340.992 14.6892 335.073 16.1914C328.568 17.8418 328.068 12.147 322.73 12.147" fill="#FFFFFE"/>
</svg>
